<mxfile host="65bd71144e">
    <diagram id="TJjdadRIfV1-wO1RfBe5" name="Page-1">
        <mxGraphModel dx="1086" dy="658" grid="1" gridSize="10" guides="1" tooltips="1" connect="1" arrows="1" fold="1" page="1" pageScale="1" pageWidth="827" pageHeight="1169" math="0" shadow="0">
            <root>
                <mxCell id="0"/>
                <mxCell id="1" parent="0"/>
                <mxCell id="2" value="n" style="shape=image;verticalLabelPosition=bottom;labelBackgroundColor=default;verticalAlign=top;aspect=fixed;imageAspect=0;image=data:image/png,iVBORw0KGgoAAAANSUhEUgAAAacAAAUpCAYAAADDGskjAAAAAXNSR0IArs4c6QAAAARnQU1BAACxjwv8YQUAAAAJcEhZcwAAEnQAABJ0Ad5mH3gAAABjaVRYdFNuaXBNZXRhZGF0YQAAAAAAeyJjbGlwUG9pbnRzIjpbeyJ4IjowLCJ5IjowfSx7IngiOjQyNCwieSI6MH0seyJ4Ijo0MjQsInkiOjEzMjF9LHsieCI6MCwieSI6MTMyMX1dfU0u4nMAAP82SURBVHhe7J0HYFvV9f+PLMny3na87SROnJ2QTUgg7D3KKF3sljIKHfBv6aKlk65fB4W2jJZZKJuyykqAEEL23nGW7QzvbXlI+r9zdRVdPS+t99598vlQVe8+24qkd+/73nvOuedYOjq7PEAQBEEQEhHHnwmCIAhCGkicCIIgCOkgcSIIgiCkg8SJIAiCkA4SJ4IgCEI6SJwIgiAI6SBxIgiCIKSDxIkgCIKQDhIngiAIQjpInAiCIAjpIHEiCIIgpIPEiSAIgpAOEieCIAhCOkicCIIgCOkgcSIIgiCkg8SJIAiCkA4SJ4IgCEI6SJwIgiAI6SBxIgiCIKSDxIkgCIKQDhIngiAIQjpInAiCIAjpIHEiCIIgpIPEiSAIgpAOEieCIAhCOkicCIIgCOkgcSIIgiCkg8SJIAiCkA4SJ4IgCEI6SJwIgiAI6SBxIgiCIKSDxIkgCIKQDhIngiAIQjpInAiCIAjpIHEiCIIgpIPEiSAIgpAOS0dnl4cfEyaho6MD3n7rLVi7dg3s2bOXnyUIYjAmTpwA8+bNh/MvuABSUlL4WUJ2SJxMxvfvuQfee+9d3iIIIhTOPvsc+PX99/MWITMkTibhwIEDcNutt0B9fT0/QxBEOOTm5sJDf/s7jB07lp8hZITEySScd+450NDQwFsANpsN4uLi2MNisfCzBEGIeDwecLvd7NHf38/PAuTk5MD/3iELhMyQOJmAe773PXj//ffYMYpRfHw8WK1W1iYIIjhcLhf09vYyoULOOutsuP83v2HHhHxQtJ7kNDc3nxAmxG63kzARRBjguMHx4wPHFY4vQk5InCTnf2+/xY+8woTmPIIgwgPHjyhQ4vgi5ILESXLWrVvHj7wmPYIgIkMcRzi+0C9FyAfd7SRn717/PiYSJ4KIHHEcieOLkAu62xEEQRDSQeJEEARBSAeJE0EQBCEdJE4EQRCEdJA4EQRBENJB4kQQBEFIB4kTQRAEIR0kTgRBEIR0kDgRBEEQ0kFZySXnkosvgiNHjrDjxMTEiLNEYEbmvr4+lqFZFvAzGZnQFr8LLKcg03eC3wXmgTPyO8F+4svgLQO+xK3RGAPd3d3suLCwEF777+tUdkZCSJwkJ1rihDdfp9PJSgbICt6MExISWEkQPcCbL34n+CwreDPG70RMVqol2D/wOxFrH8kG9g/8TsJNgkziZA7IrDcKaG9vh7a2NqmFCcEbYkdHhy43itbWVva9yCxMCL4/fJ96ZKPH7wS/f5mFCcF+jP3Z4XDwM0QsQuIU4/hMVXrc3KJBdnY2lJSUQGpqKj8TffDmiytQo0xmoZKXl8dm+ElJSfxM9EERNNN3UlRUBGPGjNFtlU3oD4lTjONbLeFqRHaB8gkTkpmZyZ61wPedmOFm7BMmREvBRlMeYobvBIUpNzeXHaelpbFnIvYgcYphsE6NaKKRWaBEYfKhxUoBV5Ji4IPMN2NRmBA0Y2mxUlCb8WT+TkRhQrCP4PslYg+6qjHMYNFnMgrUYMKEoNM72gz2nch4M1YLk4/R/J2ohcmHFt8JYTwkTjHMUGHAMgnUUMKEaPEeh/pOZLoZDyVMiBZRe4OJEyLTdzKUMCF6RTIS+kLiNEqRQaCGEyYjwJux0d/JcMKEaFFSHPvCUMggUMMJExG7kDiNYowUKNmEyYeR38lIwmQURgoUCdPohcRplGPEzVhWYfJhxHciqzD5MEKgSJhGNyROhK43Y9mFyYee34nswuRDT4EiYSJInAiGHjdjswiTDz2+E7MIkw89BIqEiUBInIgTaHkzNpsw+dDyOzGbMPnQUqBImAgfJE5EAHgzxtDiaD/MKEw+8DvBjaqDfa5wHxjSbkZh8oECNdjniuSB3zMJE+GDxIkYAN4kMNdatB5444kFBvts4T60CAnXG7yug322cB/Y7wjCB4kTQRAEIR0kTgRBEIR0kDgRBEEQ0kHiRBAEQUgHiRNBEAQhHSROBEEQhHSQOBEEQRDSQeJEEARBSAeJE0EQBCEdJE4EQRCEdJA4EQRBENJB4kQQBEFIB4kTQRAEIR0kTgRBEIR0kDgRBEEQ0kHiRBAEQUgHiRNBEAQhHSROBEEQhHSQOBEDiIuLA6vVGrVHLJTfxs8w2GcL90HfycAHlWknRCwdnV0efkxIyCUXXwRHjhxhx4mJiUw4gqW3txd6enp4KziysrKgoqKCt6IHvo/+/n7eCg6n0wl1dXW8FR3wNfv6+ngrOPLy8qC8vJy3oge+F5fLxVvB0dHRAU1NTbwVHbq7u0O+NoWFhVBcXMxb0SOc76S1tZU9gsXtdrPPjODneO2/r5MwSgitnIgTaCVMiMPhAJvNxlvmQSthQhISEtiKwWxoJUyIWb8TIvqQOBEMLYXJh9kESkth8mG2m7GWwuSDBIpASJwIXYTJBwqU3W7nLXnRQ5h8mOVmrIcw+SCBIkicRjl6CpOP+Ph4qQVKT2HyIfvNWE9h8kECNbohcRrFGCFMPmQVKCOEyYesN2MjhMkHCdTohcRplGKkMPkYSaD0jqAyUph8jHQzDiVaM1g8nqEDdo0UJh8kUKMTEqcYZqibuwzC5GM4gQo15DsYhrq5yyBMPoa7GeP2gGgz1HcigzD5GO47CTUMnjAHJE4xzGCDWSZh8jGUQOGel2gz2HcikzD5GOpmHOq+tWAYLIJSJmHyoed3QhgPiVMMgzNi8cYjozD5GEygfBslowne3MSVgozC5EN9M8aVpB7iJKMw+VB/JziBoZVTbELiFOP4bvgyC5MPUaBaWlqG9YVEAv47iMzC5EO8Gbe1tbFnLcAQf0RmYfKh13dCGAuJU4yDs+Ls7GzphcmHT6C0vOng65tBmHz4bsadnZ38TPTB790MwuQDvxP0qWph+iXkgMRpFIBO9NraWlMM5OPHj0NVVRVvaQeaDI8ePcpbcoPv88CBA7ylHe3t7ez7lx3sx9ifDx06xM8QsQglfpWcSBK/DkZSUhIkJyczM45WZrNQwBUB3mxQLPDmaAT4ffi+E0wKajR4jdG3hCslLVdLw5Gamsr6G65QQk3EqgW4SvJ9J11dXfxseFDiV3NA4iQ50RYnghjtkDiZA7rTEQRBENJB4kQQBEFIB4kTQRAEIR0kTgRBEIR0kDgRBEEQ0kHiRBAEQUgHiRNBEAQhHSROBEEQhHSQOBEEQRDSQeJEEARBSAeJE0EQBCEdJE4EQRCEdJA4mQzMJE4PetAj/AdhDigrueSIWckJgogulJVcXmjlRBAEQUgHiRNBEAQhHSROkjNjxkx+RBBEtKHxJS8kTgRBEIR0kDgRBEEQ0kHiRBAEQUgHiRNBEAQhHSROBEEQhHSQOBEEQRDSQeJEEARBSAeJE0EQBCEdJE4EQRCEdJA4EQRBENJB4kQQBEFIB4kTQRAEIR0kTgRBEIR0kDgRBEEQ0kHiRBAEQUgHiRNBEAQhHSROBEEQhHSQOBEEQRDSQeJEEARBSAeJE0EQBCEdJE4EQRCEdJA4EQRBENJB4kQQBEFIB4kTQRAEIR0kTgRBEIR0kDgRBEEQ0kHiRBAEQUgHiRNBEAQhHSROBEEQhHSQOBEEQRDSQeJEEARBSAeJE0EQBCEdJE4EQRCEdJA4EQRBENJB4kQQBEFIB4kTQRAEIR0kTgRBEIR0kDgRBEEQ0kHiRBAEQUgHiRNBEAQhHSROBEEQhHSQOBEEQRDSQeJEEARBSAeJE0EQBCEdJE4EQRCEdJA4EQRBENJB4kQQBEFIB4kTQRAEIR0kTgRBEIR0kDgRBEEQ0kHiRBAEQUgHiRNBEAQhHSROBEEQhHSQOBEEQRDSQeJEEARBSAeJE0EQBCEdJE4EQRCEdJA4EQRBENJB4kQQBEFIh6Wjs8vDjwkJ+dEPfwj/+9/bvBUecXFxYLfb2TNBxAJutxv6+vrYcyScd9758PNf/AIsFgs/Q8gC3a1iHBSkhIQEsNls7Jge9IiFB/Zn7Nd4TMQmdGVjHFwx0ayQiEWwX2P/JmITEqcYh2aWRCxD/Tt2oSsb40RqkycImaH+HbuQOMU4LpeLHxFE7EH9O3YhcYpx+vv7oaenh2aYREyB/Rn7NfZvIjahUHLJiUYouQgFRxBmx+OJ3i2LQsnlhVZOowwc2PSgh5kfxOiAxIkgCIKQDhIngiAIQjpInAiCIAjpIHEiCIIgpIPEiSAIgpAOEieCIAhCOkicCIIgCOkgcSIIgiCkg8SJIAiCkA4SJ4IgCEI6SJwIgiAI6SBxIgiCIKSDxIkgCIKQDhIngiAIQjpInAiCIAjpIHEiCIIgpIPEiSAIgpAOEieCIAhCOkicCIIgCOkgcSIIgiCkg8SJIAiCkA4SJ4IgCEI6SJwIgiAI6SBxIgiCIKSDxIkgCIKQDhIngiAIQjpInAiCIAjpIHEiCIIgpIPEiSAIgpAOEieCIAhCOkicCIIgCOkgcSIIgiCkg8SJIAiCkA4SJ4IgCEI6SJwIgiAI6SBxIgiCIKSDxIkgCIKQDhIngiAIQjpInAiCIAjpIHEiCIIgpIPEiSAIgpAOEieCIAhCOkicCIIgCOkgcSIIgiCkg8SJIAiCkA4SJ4IgCEI6SJwIgiAI6SBxIgiCIKSDxIkgCIKQDhIngiAIQjpInAiCIAjpIHEiCIIgpIPESXLGV4znRwRBRBscXxaLhbcImSBxkpzJkyfzI4Igog2NL3khcZKcSZNo8BCEVtD4khcSJ8nJyMiAm7/+dd4iCCJa4LjC8UXICYmTCbj55q/DzFmzeIsgiEjB8YTjipAXEieT8P3v/4Ds4wQRBXAc4Xgi5MbS0dnl4ceECfjrAw/A44//i7cIggiF66+/Ab5xxx28RcgMiZMJOXjwAOzYsQN27tzJHpHQVHccjtfU8JaxlIwfDynpxvkAjm7fDj2dnbxlHI7kZCiYOpW39KejrgY6m+t4y1iySyrAlpTGW+GBKyV8TJkyBcrLx/KzhOyQOI1y1n+8DH79rW/wlrFcf9f34KIvX8db+vP3Sy+BQxs38pZxlJ10Etzy2n95S38+/st3YP+65bxlLJff/xKkFY7jLWI0QT6nUU5+STk/Mp6qLZv4EWEk9cdq+ZHxpBXQSme0QuI0yskck8+PjKe3r48fEUbSXruXHxlLdm4ePyJGIyROo5ykpCRIyczkLWOpP36cH8mF3WKB5Lg4yLRaYYzNxh7FdjuMi48PeExyONjD18bf8T3wb/Dv8XVkpq/lGD8CSLDFQUai8nlT46E8M+HEozIvKaiH7/fx7/GBr4WPYEnOHMOPiNEI+ZwI+O6Xr4L9O7fz1tBY4yxgU26u7GH15iNzKDddEZvyOyL9bo/ycLNjl/Lc7/K2e/pd7JxIRk4OPPrux7ylP+hzOrJpE2QpIoKgkKRoJCa9Hg90KN9DH3/u5N8RYqTPqXn3Z7D5oe9AWZaDn9EGZ58bnP3eR0t3v9IfvM8iFadfAYtv+KFyRLnvRiO0ciIgPTubH3lBEUqOt0N6YjzkpSZBYXoylGamQlF6ijIDToLs5ARIT3CwR4LNGvA4IV78gedSlNfCB/4+/i2+Br4evm4Wvpby7ziU32tpaICmY0f5u9CfSYo4TlZWPr7VkVbChMQrqzEUQfx3xvNVF66wDF9ZHduluTAhCXbvqixfWVFNUlZZMwtTYEFpGnvG1Rau2jJTk5XfJGEarZA4ERCv3CBRHFAkfCLkEyCf4GgBvq5PtFCwUKxGKz6xYkKlmiyMFnyCVZaVwESqcPrJ/CfEaITEiYDTzj2PiQOKhJGgWDUfP8JbhBE4D2zhR8aCQpUyRp5IUkJ/SJwIyM4v4EfG02igWY9QxOmQPOH89gx5IkkJ/SFxIqRi/2bjN8GOVsRIPaOxkTCNekicCBg/cw4/Mh5aORmH8yCumuQI3k0spyz8ox0SJ4KRJYlpr2rzen5E6E1/qzwrJ2sG7XEa7ZA4EYzMMYX8yHiMDCcfzcgSDIHQyokgcSIYMgVFUMSeMcgUDJFQRuI02iFxIhjjZp7Ej4yH/E76Q8EQhGyQOBEMmVZOFLGnPx2b/6f8P2UyI+SBxIlgyORzopXT6CZl1rn8iBjNkDgRDIzWo4i90UvLh0/wI4KQAxIn4gQUsTc6kcnfhFCkHoGQOBEnkMnvtI9WT7rh3XwrBxgMQZF6BELiRJxApog9Qj9k2nxLED5InIgTUMTe6KRj0zv8yHgoGILwQeJEnEAmnxOZ9fQB/U39Mu1xSqc9ToQXEifiBDJF7GFABAVFaI93f5M8pM46jx8Rox0SJyIAWj0RRkGZIQgREiciALly7NHKSWtk2t9EIeSECIkTEYBMEXv7NlFQhJbItr+JymQQIiRORAAyrZwoU4S2yOZvSplJ/ibCD4kTEQBWxZUlKAKRNSjCZbVCn90OPY4E6E5Mgo7kFGhLS4eW9Az2jG08jz/H38Pflw3ngc38yHjQ32QnnxMhYOno7KJUxEQAv/jyZdKIwhe++2OYf+5FvKUtH950IxxdsYK3vPRbbdCemgodqWnQkZKqHKdBlyI6HouF/0bwWDxuSOrqgtSOdkhpb1ee29izzdXPf8NLweLFsPSf/+ItbUCTXs2fv8hbxoNZIQqu/yNvEQStnIhBqFBWT7Kg92bcPpsdjuYXwvYp02HVwsWwYsnpsGnWXNg3fiIcG1MAnUnJYQkT4rHEQaeyosLX2VcxETYqr4uvj//OzsnT4HhePvTbbPy3tUU2k17C2Jn8iCC8kDgRAxhthQcPH66GN996G961OuCTU06DXZOmQp0iFM6ERP4b2oL/DgrWDkUQPzllKbynvI+3334Hampq+W9EH1fLcX4kBykzKTMEEQiZ9YgBYCDCg9+5jbeM50fPvBp1P1hPjxM++WQVLP/wI6g7XsfPDk96ehrk54+BgoICSElJhnh7PNjj7cqz8ohXjtmzHXp7+6Cvr0957oVe5blPaff29UJHewccOXoMjh07Dm1tbfxVh2fMmDGwdOmpsHjxInA4HPxs5By47wzl/+UY+uhvKvnmv5Wj8FakRGxC4kQMikx+p2iKEwrRMkWQPlmxkonHUKSmpsDMGdOhtLSEC1I+JCQk8J9GTne3E44e8wrVoUOHYeuWbdDe0cF/OhBHggNOOWURnHnG6ZCbm8PPhofz0CY4+vh3lCM5hn7G0usg87TreYsgvJA4EYOCKydZQrmjERTR3d0NL77wEnyychV4PIN3ebzpz5w5A2ZMnwrl5WVgCdO3FA74ng4cPMREatPmLdDQ0Mh/Egi+p1OXnAKXX/E5SEwMz+zY/NHjUm2+JXEiBoPEiRiU5377c1jzzhu8ZSwoTChQ4fLRx5/Aq6+8Bp2dnfyMHzSVLVq0AE5euICtjmShtvYIrF6zFj79dDX09PTws36Sk5Phiisug8WLT+FngufAfafzIzkY+5Pl/Igg/JA4EYOCwoQCJQv/98FqfhQ8R48ehccffwoOHDjIz/gpLCxgK5D58+cyX5GsoO9q7dr18PGKlUyw1IwdWw7XX38N84MFg2wh5F5/07O8RRB+SJyIQWFBEXfdjvYmfsZYQvU7rV69RhGmJ8HlcvMzXtLT0+Gyyy6CuXNm8zPmYcPGTfDKK/+FlpZWfsaL1RoHX7nmS3DKokX8zNCQSY8wCxRKTgyKbJkigs1Qjr6b5194ER577PEAYbJarXDWmafDvfd+35TChMw+aRb8+Mffh7PPOgNswn4o/JxPPP40vPDCS0P603zIJEwIJXslhoLEiRgSmcpnsM24I9x4e5xO+NOfHoD331vGz3iZUDEefviD78Kll17Ewr7NDL7/Sy65EL5/z90wcUIFP+vlvfc+YJ8fv4fBkC3RK5r0MDMEQQwGiRMxJNlj5AkQQB/YcNLU1NQMv/zVb2Hnzl38DLDItksuvhDuvPO2iMOvZSMvLxfuuONWuOzSiwOiCvHz4/cwWLSfdIleqSQ7MQwkTsSQzDv3ArzD85bxDLXvCn0w99//Wzh2zL8ywCCHr998E5x9Nm42jV3OPHMp+5xiUAd+D/ff/zsm2CJk0iPMBIkTMSSy+Z2qtgz0O2Gmhz/84U8BQQKYyeH/3f0tmDp1Mj8T2+DnxM+Ln9sHZqD485/+eiIMHQMhZIJMesRIkDgRpmH/5k38yIvL5YI//+VBOH7cnycOMzrc8727pNqzpAf4efFzlxQX8zMAR5WV5t8eehjcbrd0ufRo1USMBIkTMSwVM+SJbFNvCn70sX/Bvr1VvAWQP2YMfOubt0NKSgo/M7rAz/3Nb97G0i352LFzJzzx6CPQvkkufxNVvSVGgsSJGBZZ/U6vvfY6rF+3gR0jmIj19tu/LvWGWj3AjBe33XozpAoCvWrdZljZLldACO1tIkaCxIkYFvQ7yZQrGvc7VVXthzfffJufAbbn51blhpyRkc7PjG4yMzPgllu+yvZ2+fi4LRdqevUpATIS5GsigoHEiRiRTImCIta88xZLSSRy3XVfhtISv6+F8PrevvSlq3nLy5vNBVLkIafCgkQwkDgRIyKT32nX4dqAAIiFC+fDrJkzeIsQmT9vDssd6KOp3wFrO7J4yzgyT72OHxHE0JA4ESMiS2Vcty0e+jL9WSswAODyz13KW8RgXHnF51gGcx8fteVBh1ufUvCDwUx6MtmJCWkhcSJGBEtW6FnbaCh6corBI7yPz191OSQmRq8AYCyC3w9+Tz76PRZ4r8W4SDmvSY/UiRgZEiciKIz2O7kSUsCVnMlbANOmTYWTTiLfRTDMnj0Lpk2dwlsAu7rToLonibf0hUx6RLCQOBFBYbTfqTfLL47x8fHwxS9cyVtEMFx99ZXse/NhRGg5lseQaVsCITckTkRQGOl3cjuSwJXoT82z9LQlkJbmbxMjg2H2p526mLcADvQkw9E+fUPLbemjK2sHERkkTkRQoN/JKHqz/EEQuMl26dIlvEWEwumnnxZQB+rTtmx+pD2YSy911nm8RRAjQ+JEBI0RSWDd8YnQn+TfXHvKKSdDamoqb8lDb18f1NXXw/4DB9kztmUjNTUFFi1ayFsAe5yp0NDvN/VpCZXHIEKFyrQTQfPcb38+IL+d1jjHjIP+FH8gxC9+/pOA7NtGgiUpVq9ZC1u2bIOamlp+1g8mYZ05czrMnz8HMjP9n8FIWlvb4Ec/vo+3AKYltcLFmUd4SzsKrv8jZYYgQoLEiQiaqs3r4cHv3MZb2uOJs0GnkE0AZ/1f/MJVvGUcjY2N8Mab/4N1Qm6/kZg/by5cdNH5LLWQ0Tz77PPw6arVvAXw7YLdkBDnL2kfbdCkV/LNZ3mLIIKDzHpE0Ohd36k/NXC1sfiURfzIOKqra+B3v/9zSMKErFm7Dn77uz/CkSODF0zUk8WLA7/HXU5tV6Jk0iPCgcSJCInMMf7gBK3pF/Y15eXmQklJEW8Zw+HD1ax+VGdnJz/jxd7bC9kN9TBu/z6YsW0Te85prId45bxIR0cH/PFPf2UCZyQlJcWQk+MPhtjVpbE4zaRACCJ0SJyIkGAlNHTAY7WDK9Ef+DBnrrEplFBYHn7kn9DT4xccFKXJO7fB4k8/YqJUdvgAEyl8nr51E5yinMefiyLldDrhHw8/prxeoMDpzdw5/n1rB3uSodvtz2AeTdCkZ1ceBBEqJE5ESGTrZNZTm/TEm6kR/PNfT7JgAh8FR2th4ZqVkH98eDMd/nwB/t4xf9ABvs4TTzzNW8Ywd67/+0Sn884ubSIgyaRHhAuJExESevmdXIn+8PHi4iLIy8vlLf3ZsGET7BUq7ma0NMOk3TvA1t/PzwwP/t7kXdshs7mJnwHYtXsPbN68lbf0Z8yYPCgs9F/H/b3aiBMVFSTChcSJCJkKRaC0pj/Bn0l78uRKfmQM772/jB95hWbqji28FRpo4rO6XLwF8L7wukYwZfIkfgRQ2xP9BLq06ZaIBBInImS0TmXkjldulHF+H8i4seX8SH8aGhoD9jBN2LtrQKBDsDh6e2DCvt28BXDw0GFoamrhLf0pLy/jRwBdbhs0R3lDrqOMEvMS4UPiRISM1qmMXMKqCRlroDitXbueHymDxe0e0cc0EvlHa8Hi8e8pWrfe//p6M378WH7kpTaKZdwpXRERKSRORFho6XdyOVL4EUB2dnZAsTy9wfBxH4nd3fwofDAnd4LT6W0oHDp4mB/pDxZrxISwPo5EUZwoEIKIFBInIizmnXshP4o+bmHlNHas3/RkBF2CIDl6IhcnJNHpfx3x9Y2gvMz//db2Rq/GE+1tIiKFxIkIi4qZ2oV2u+1+57yRUXqI1eofIm7BDxYJbov/NePijB2C4vfb0G9nYeWRQnubiGhA4kSEhVYh5R4UAKEgndEZyMW6UR0p0XkvbWl+U5rRSWzT0vyfqd8TBy5P5MUAyaRHRAMSJyJstAgpx2SvImmpfv+TEYh7gfptNnAmROaX6Vb+3i2slsTXNwK1+He6A7//cKC9TUQ0IHEiwkaLkHKPNfDmmGLwymlS5UR+5OVIYTE/Co/aohJ+5GXihAn8yBiwxpMIhpRHApr0CCIakDgRYaNJSLlQqRVJM1icMElqYqJ/tXS4pAy6ksKLHuxMToGa4lLeAuV1EwxPZqteOXW7IrslkEmPiBYkTkRERNvv5IoPNJsZGUaOWCwWWCKUmPAo7Z2VU3grNHZNmsr+3sfpS09jr28k6pVTXX/4mSJw1UQmPSJakDgRERHtkHJxgyqCqwujOffcswJWGG3pGbBbESjRdzQc+Hu7lN9vS/UHP+D+orPOOp23jEMt/jYIv+ggrZqIaELiREREtEPKPRZ/uLbdbudHxhIfHw83XP+VgLDvIwVFsG7OQmaqG472lFRYM+9kOKr8vg+r1Qo33nCtNJ/PJphSezzhh8snllMZdiJ6kDgRERH1kHJhL1FCgvGrJh8TJlTA1VdfyVteOpVVBwrP9ikzoLq4DFrT0sGl3OjxubqkDLZPnQHr5i6E7sTAza1Yat7IlExqxO+51xPeLQFNegllJE5E9CBxIiImmiHlbJ8Tx+GIbiLSSFl08gL4+s03DRDNurwxsK9iImyYPR8+Xnw6e943fiLU5Y7hv+HF4XDAN26/BRYsmMfPyIFoOu1xh3dLIJMeEW1InIiIiWpIuWA6E6PkZGHatCnw3f/3bZg4MbQQcCz78f177obKSmNDxwcDRdNHX5grJzLpEdGGxImImGiGlItBBuJNUyZyc3Pgjm/cAjdcfw3MPmkWZGZm8J8EkpmZCbNnz4Kv3nQ93HbrzZCdncV/IhfiSrAnjHLtZNIjtMDS0dkVjXRaxCjnF1++DJqORVZOAukuqgRXgjfIYNq0qfD1m29kx7LT3t4BBw8egrq6elZltqysdECYtqz84x+PwbbtO9hxqaMLvpxziB0HS8bS6yiEnIg6tHIiokK0Qso9wsopIUHOldNgoBBNnz4VzjxzKTP9mUWYEIfwPYcTEJEyk/xNRPQhcSKiQtRCyiWN1otlRPNpb4gBEZSBnNAKEiciKkQrpFzc55Qgqc8p1gj0OYV2S/BG6Rmb5YKITUiciKgRjZDyQLMerZz0QJwEoFkvFCd0YvkMfkQQ0YXEiYgaEYeUY545oRCf6AshtEP8njGU3BPkSoii9AgtIXEiogaGlEeSyFQ06SFmCogwM+oVal+Qpj2vSY9uIYQ2UM8iokpmBH4n0aSHJDjIrKcHat9esBF7tnQKhCC0g8SJiCrzzrmAH4WBEKmH0MpJH9SbnXuCKNWOJr1USllEaAiJExFVWEh5mKY9Ma8eImuGiFhDbdYLJjM5rZoIrSFxIqJKJCHlA8x6FK2nC+oVajA+p4SxM5X/D9+/SBAjQeJERJ2KGWFuyKWACENQr1CD8TmlzDyPHxGENpA4EVEn3JBytVmPVk76oJ4EOEdI/kpZIQg9IHEiog7bjBuG34nMesbgUEVFjlQ2g2o3EXpA4kREHfQ5heV3ElZOWMI8kj1TRPDY7baA7zrU/HoEoQXUCwlNCMfvZNaM5LFAUpK/lHzPCCsnKo9B6AGJE6EJ884NY79TnI0fkElPb8TJwHABEehvIgg9IHEiNCGskHJh5UR7nPQloGyGa+jbAvmbCL0gcSI0I3NMIT8KDrFEe2KiuVZOvX19UFdfD/sPHGTP2DYT4vfdS7cFQgKoTDuhGe88+Qi888SjvDUy3YUTwZWYyo7NUKK9qakZVq9ZC1u2bIOamlp+1k9JcTHMnDkd5s+fA5mZmfysnPzt74/Ajh272HG5oxO+mHOYHaspuP6PlImc0AWaIhGaEXJ1XMHnlCTxyqm+vgGeePIZ+MlPfwFvvfXOoMKEVNfUwBtvvg33/uQX8NRTzzIxkxXRx9c7RPoiKpFB6AmJE6EZofqdxGg9WX1O27btgPt/8wdYt24DPxMca9aug1/f/3vYuXM3PyMXYmZyp5tC+AnjIXEiNCUUv5OYISIxMZEfycPq1WvhHw8/Br29vfyMF7vSzm6oh3H798GMbZvYc05jPcSrfs/pdMJDf3sY1qxZx8/IQ4LwffcNsXKiYAhCT0icCE2pmBV8KiNRnOId8fxIDtB09+xzL/CWFxSlyTu3weJPP2KiVHb4ABMpfJ6+dROcopzHn6tFCl+ntvYob8mBuHIaaZ8TQegB9UJCU0IqoSH8nkwrp/7+fnjk0X+By+XiZwDyjx2BhWtWQv7x4UUGf75A9Xv4eo8+9i/wSBSKFOBzGiJDBCV7JfSExInQlGD9Th5roClJJp/TB8s+DAhmyGhphsm7toNNEZlgwN/DFVRmcxM/A9DQ0AgffLCMt4zHocrI0aNK/krJXgm9IXEiNCcYv5NHiNRD1KXDjcKjLG+WL/+It7xCM3XHFt4KDRQoq7D6Wv7hCnC73bxlLOp0UWrTHhUXJPSGxInQnIqZQYQfD6jlJEcoeVXVfujs7OItgAl7dw3wIQWLo7cHJuzzR+u1tbXBwYOHeMtY1N93j8q05y0uSBD6QeJEaE4w+50GlsuQY+V04IBfPOKUVc5IPqaRyD9aCxaPf7Ukvr6RqMVppLIZBKE11AMJzQnK76Qy66l9IEbR0NDAjwASu7v5UfhgyEeC0+ltKDQ2NvIjY0lUr5xU4pRYTptvCX0hcSJ0YSS/kzsuMKJPfbM0ioZGfxCDoydycUISnf7XaRRe30gG+JxGqIZLEFpD4kToQnaIKydZfE4ewQTnVpWRDxe3xT/s+oUACSPB71uM+FeXzaC0RYTekDgRujBu5vCbcdU+J1lCydPS0vgRQEeKNyltpLSlpfMjgPR0/+sbiXoy4BQCIqiGE2EEJE6ELsw/9yJ+NATCqkSmPU6Fhf4VX7/NBs6EyDYHdyt/L5YGEV/fSLBMu91m563AgAgKIyeMgMSJ0I3hgiLE1EWymPSQyokT+JGXI4XF/Cg8aotK+JGXiRMCX99IHML3LgZEUBg5YQQkToRuVMycw48GEpD0VSJxKi0tUVZy/jx/h0vKoCspmbdCozM5BWqKS3lL+ZyJCVBSUsRbxiN+7xQQQRgNiROhG8P6nYRNuLKEkSNo7jr11MW8pYio0t5ZOYW3ggfT6O2cNJX9vY+lS09lry8LYsSeGBBBZj3CCEicCN0YNmJPLNEu0coJOe+8cwICI9rSM2C3IlCi72g48Pfw99tT/a+RkZEOZ591Bm/JgVg2Q0z+as8kcSL0h8SJ0I3hNuOKZj2ZVk5IvN0ON914raKf/uFypKAI1s1ZyEx1w9Gekgpr5p0MR5Xf92G1WuHGG64Fu/K6MhFYcND/Wa20ciIMgMSJkAIxlFy2lRMybtxYuPrqK3nLS2dyMhOe7VNmQHVxGbSmpYPLZmPP1SVlsH3qDFg3dyF0Jybxv/DyxS9cBWPHlvOWPCQIpfHFaD3KRk4YAYkToStDBUWIWcnjJQolF1l08gL4+s03DYgmrMsbA/sqJsKG2fPh48Wns+d94ydCXe4Y/hteMET+G7ffAgsWzONn5EIM4XdSQARhMCROhK4MGRQhrpyEGbxsTJs2Bb77/74NE1Uh5iMxeXIlfP+eu6GyUp7QcTVJAaXavdeDNuASRkHiROjKUEERAfucJF05+cjNzYE7vnEL3HD9NTD7pFmQmZnBfxJIZmYmzJ49C7560/Vw2603Q3Z2Fv+JnIgrpy5aOREGY+no7JKoWDQxGvjOmQv4kRePJQ46x/lXVOjbWXzKybxlDnr7+qCluQU6OjshJSUZMjIyWCCFmVixYiU8/8LLvAXw/aKdLKdewfV/5GcIQj9o5UTozoCIPXWJ9nj/plezgEKUl5cL48aWQ15urumECREzRCBdLiuFkROGQeJE6I66fIZo0kMSBd8HoR9JKl+fuqYTQegJ9T5Cd9R+J7U4yVIFd7ShjkLs9VjBmhEYcUgQekHiROiOOmJvoDjJG60Xy6i/9x5hIy5B6A31PkJ3BkTsqdIAkTgZwwBxIrMeYSDU+wjdUacxIrOeHOD3LuahxczklPSVMAoSJ8J4VOKUnBxeSQoiMmjlRMgE9T7CEMSIPXHlZLPZpCojMZpQf/diZnKC0BvqfYQhiH4n3ITrQ8akr6MJMYyfVk6EkVDvIwwhIGJPSPoqZsYm9Ec07WEoOW3CJYyCxIkwHNGsl+AgcTISUZwolJwwEup9hCEEhJMLoeSyFRocbYiRkmTWI4yEeh9hCBhO7iNg5UQ+J0MJMOvRyokwEOp9hGH49jqJ4qTO70boS4BZzxMY4k8QekLiRBiOWKKdVk7Gol45WWkTLmEQJE6EYZwo2S5G65E4GQr5nAhZoN5HGI64z4nEyVgCzHpUDZcwEBInwjBwr5MHMxIIWQnMGq2HlXDr6uth/4GD7BnbZkTcBN3voUwdhHFQmXbCMNa88wY8+4f7obN8Bj8DcO01X4J58/yRfDLT1NQMq9eshS1btkFNTS0/66ekuBhmzpwO8+fPgczMTH5WblavXgtPP/McbwH87r7/B+kFY3mLIPSDVk6EYeBeJ4+qRHuiCaL16usb4Iknn4Gf/PQX8NZb7wwqTEh1TQ288ebbcO9PfgFPPfUsEzPZUZtVnc5efkQQ+kLiRBiKRwiGQGT3OW3btgPu/80fYN26DfxMcKxZuw5+ff/vYefO3fyMnKjNqt1OJz8iCH0hcSIMg2UmN1GhwdVr1sE/Hn4MensDVxN5dcehYt8emL1hDSz5ZDl7rqjaA3n1x/lveHEqN/qH/vYwrFFeR1bU339PD62cCGMgcSIMg23CVdVyklWc0HT37LPP85aX5M5OmL92FUzdsQVKag5Belsr2Pr72XNJ9SGYun0LzF33GSR2d/G/8PLscy9Abe1R3pKLBId65dTDjwhCX2I+IGLlzsPw0bZDsPnAcahv6YSG9i5w9vbznxJGk+9phUlwhLcAfvXL+yA1NYW35KBfEZyf/+L+AJ9RUW01TNy7i7eGx62sDvdWVMKRwmJ+BiAnJxvu/fEPAirPykBrayv86Mc/4y2AHZYiqIM03iKMJiHeBjmpSTAmMwVmjc2HU6eVwsmTSvhPY4uYFKc+lxv+8/E2ePDNNdDY3s3PEjJSBM0wwXOMtwD++H+/YUXvZOKdd9+HN954m7cAMlqa4aRNoZvmNs2cA82ZWbwFcOklF8JZZ53BW3KApsfvfu+H4OF3hT2QD0cs5og0HK3kpifDHRcvgKtOmQLWuNgJ/485s96eI01w3k+ehp899xEJkwmwgYsfKTMlZRkhmzB5lLv08uUf8ZbyfpVVFJrxwmHyzm1gdfk/7/IPV4Db7eYtOVCbVa1AO01kp761E+59ehlcdN+/4eDxFn7W/MSUOK3YcRiuvv95qK5v5WcI2bF6/Dfn5OQkfiQPVVX7obPT7zOasHcXxKsCIoLF0dsDE/b5o/Xa2trg4MFDvCUPDqGmljh5IOSm6lgTXPHr/8C6fX4zuZmJGXFas6cWvv7Af6Gzx5w780crNotfnGQMhjhwwC8eccoqJ/94ZIEM+UdrwSIIsvj6siDm17MK14eQn/buXrjxz6/BzuoGfsa8xIQ4Ha5rgdv/9ib0u8kEYTasHv/MPDEhkR/JQ0ODf5AndkduJkaPQIKwd6ixsZEfyUNiov862IDEyWxgwNdXlYl6XWsnP2NOYkKc7nrsXWjtopBXM2IXbn7ijF0WGhqb+BGAoyc6PsxEp/91GoXXlwVxBStOHgjzgH6on//nY94yJ6YXp093HYYtBwM3OxLmIU4QJ4eEZj2PYIJzq/ZkhYtbyMLeLwRIyIKY/JVWTublnfX7WICYWTG9OD345jqKJzIxosNdxiq4aWn+PT4dKan8KDLa0tL5EUB6unx7iAJWThQQYWoeemsNPzIfphanY80dsHbP4Ek3CXMge0BEYaG3lDzSb7OBM0K/WLfy97gp14f4+rKQIEwSRLMrYT4+2HQAunvNGSRmanF6d2MVPyLMik0wm8lYy6ly4gR+5EXM8hAOtUWBu/knTgh8fRkQJwmi2ZUwHz19/bBi+2HeMhemFqetB+v4EWFWRLORjCun0tIScDjieQvgcEkZdCUl81ZodCanQE1xKW9hVFwClJQU8ZY8iIEptM/J/Gza78/AYiZMLU5N7YEJNQlzEQceFlrtQ3TEywJmrTj11MW8hSXlLbCzcgpvBQ/6RXdOmuqt/MtZuvRU9vqyIYaSY4aI2EmIMzo50tzOj8yFqcWpuZNqzZgZdSSYeFOUifPOOycgMKItPQN2KwIl+o6GA38Pf7891f8aGRnpcLZkefV8qK8DBUWYm6NNHfzIXJhanPr6adCYGbXJSEazHhJvt8NNN14LcYIYHSkognVzFjJT3XC0p6TCmnknw1Hl931YrVa48YZrwa68royoy2aIfkHCfHSZtJqxqcWJQsjNjVW1chKjxGRj3LixcPXVV/KWl87kZCY8W6bNgn3jJzLBasrMZs/Y3jp9FqybuxC6EwNzBn7xC1fB2LHlvCUf6lL5tHIyN2a9T5panMgWbm7UKycZfU4ii05eAF+/+aYBK7zGnFyoLiljprvNM2ezZ2w3ZOfy3/DiUFYk37j9FliwYB4/IyfqzyeG+xPmw6z3SVOLk9tXdIYwJQPESVKfk8i0aVPgu//v2zBRFWI+EpMnV8L377kbKivlCx1Xo17BipnjCfNBKyeCCBH1TQ9XFmYgNzcH7vjGLXDD9dfA7JNmQWZmBv9JIJmZmTB79iz46k3Xw2233gzZ2f5CgzKjXjnZaeVEGICpK+FeeN8zsNfEuaNGO8WeJqgAf17EB/7yB35kPnr7+qCluQU6OjshJSUZMjIyWCCFGelTPst37rqHtwB2WwrgKAwuwIT8TCzKhjfu/RJvmQdTi9PFP/s37K7Vp+SANTENLELCTmIg/V2hVeEsgwYY66lnxxi59n9/uJ8dE8Zz5zfvZlWAkf2QB4ct2ew4GCwWqzJeopOHMFbBhMKu7jbe0pZKRZxeJ3HSF63FyZ5ZDPasYrA6wssIMNro2PmhMuiCj+war6yaSpTVE5Kamgq/+uVP2TFhPPd8/8cnKgAfghw4YAkM7hiOOGW8JI9fyFvEcLidHdDbeBj6WiMrYjkcZhUnWgoMgiXOBkllJ0FCQSUJk4aIPifZI/VGG6LfiVIYaUdcQgokFE2BxNIZ7L5D+CFxGoTEsllgTTaH89rMiBkiZN7jNBoRxYlKtWuPLSUXEoun8haBmFqctLBH2jMLwZror7dDBI/HEtoVkT3p62iGVk76Y03JYY9oY1a/jbnFSYN9TvGZkZVEIIJHXDmpsxIQxiJeD0pfpB/xmfJlqTcKU4tTXLQzOsfZIC6BoozCxeIJ7XqI6Yto5SQXAWY9VZopQjtsKdF3J1CGCAOI9ropzuav20OETqhmPbHKKgVEyIV4PWgTro5Y4sASH91MKWTWMwDKrScXkayczJC6aDQRUNMphO0BRORYonxno5UTQYSI6GgXq68SxiOWzKeACMIITC1OlPhVLkIx66lveAm0cpIK0eeEM+848juZFjLrEUQIDKjlRCsnqVD7ANVViwlCa8ztc4p2tB6hG+rw5MQEWjnJxMBS7SROhL5QQAQRNUIJiFBnHaCVk1yoM3aIkZWEuaCACAMgn5NchOJzsqt9TrRykgq1WY8i9swL+ZwIIgTUZiLKECEX6k3RNguJE6EvJE6EIdhUM3Ey68mFerJAARGE3pA4EYag9jmZpUT7YGDdo+3bd8LKlavg3fc+YM/Y9tVDMiNJSUn8yAsFRBB6Y+6ACIrWMy2BSV/N6W9avXot/OWBh1hhvr//41F47j8vwuuvv8WesY3nH/jr32Ht2vX8L8yFw+FP50XJXwm9MbU4aZGVnNCHgEKDzIRknonG1q3b4d6f/ByefuY52Lu3ip8dnD179sKTT/0bfnrfL2HHjp38rDkQg1TI50ToDZn1CEMQQ5PR+W6WRfDqNevgkUf/Bc3NLfxMcDQ2NimrqcfY35sFMWJPnEwQhB6YWpyiXjKDiIhQ9jnFCaHkZonUQzPe008/O2DFnld3HCr27YHZG9bAkk+Ws+eKqj2QV3+c/4YX/Dv8+zUmEajEJGHlRPn1TItZ75KmFifa5yQX4e5zMkMtp5qaWnj2uRd4y0tmcxOc/NknMHXHFiipOQTpba1g6+9nzyXVh2Dq9i2wUPl5RmvgKgtfp7b2KG/JixikQtF65oX2ORkArZzkIqQMEWJAhAnE6dHHHgeXyy+ok3dug1mb10OCs5ufGZxE5ecnbVwLk3Zv52cA+hUBe+yfj0t/00gSAlVInMwLrZwMgFZOchFuVnLZV07vvPs+8xn5KK45DPnHQ1v5FBw9AkW11bwFUF/fAB+8v4y35ETce2Yls55poZUTQYSAOBOXWZzQT7R8+Ue85V0Jjd+/l7dCA/1Q+Pc+ln+4AtxueVckYhkT2udE6A2Z9STFqnw2u9UCDlscJNgskGhXnpWHQ3nEK+dscRbl8/NfloRQzHoBKyeJAyKqqvYHbKZFX1JcmIKCf4erLh9tbW1w8OAh3pIPceVk1sSv2CNxrLBxxMfQiXGkjC+rbINIA8z6CcmsJwkoRjiAUuLjICPRBhlJVkhPsEKqQznnsEKych5/lqo80pRzGYnKz5XfS1MeScpAU/5neCcM1qxnUa6b+F5l3oRbtf8AP/KS3tLMj8IjXRUcsV/1+jIhXhcsNmiWmxyKDo6VTGWMZCcrY0l5ZuOIj6ET40gZX/g7Ocrv4FhLircqQsZfJIYgsx4RFrg6SlbEJy1BGTDKAMJZHQ6QYG4Eyp+CMsaUQRXHhCpVGWD49yh0MmNXbehMkDh1EfqGfFhd/ZDS1clb4ZHa0Q7W/n7eUl6/oZEfycfAgoPy+p3wRobikpmkTNh84yCEVRGOwyS7hU0MUbDw7wljMfUVMLNZz8Znd6mKMCXaomNe8M0YfSKnt8UiWLOeVTWXSxL208hGkxAIkdHaik4o3goT5e/T2pXX4TRILE7q/HoyRuxhj0OrQpay+kFxwQlbpOBYxHGUpQhdovKaZsesn8DU4mRGsx52FOzwaFbQSkB8wocrMhQsvQjWrKeegTsc8vqcbHYbPwLos9v5UWT02fyvY7NZ+ZF8OFSZ4mVbOSXY4thKCf2xWoBjM1lZjaFZEFdWZoXMesSIYP9OUVY12OH1cMQ6lH8QBUq22Z/6JidztF5KSgo/AmhPSVVmFxF+l8rfd+LrcNLS0viRfAwoOCiROKEfFseSHtYBDKhAn1SiMuEj9IO+bZ3AyR0OKAx60BMURBRDFCk9BnIwqMVJ5vRFxUWF/AhXhoqwJCXzVnh0JKew1/FRXFzEj+RDHagig1kP+zAKBUaw6k2yMojRZE7og6m/abP4nNC0hs5aI00D6NfCqD4tBSpYn5P6JiezOE2ePIkfeTlSWMyPwuNIQaAYTZ4U+Poyoa6xZfReJ7xZYbCDkeMIJ5cYeGQmzHGXHAhNAzQGBxLaxGWwWaOPC9+L0e9EneFa5lDygoL8gNVNrSJOuPoJh07l744UlfAWQHl5GeTl5fCWfKSkBK4S7arqxXqCfRa3TaCJzWjQXI4mRUJbTP0Nyx4QgeMIBUEmZyrbzKuR7TzogAghlBwL2sleNPLii87nR17T3q5JU3krePCbwb8Tv6ELLzyPH8kJXhebzR8Qoq5erCcpympFpj1IGIyBUYJmgAIiiAGgGQ1nWbKRqAwsI9+XaNYzQxXcKVMmQ2mpf8XTnpoGuyungDsuuOGDv4e/36b8nQ9cNU2qnMhb8iJeH6Oi9aQdR5K+r1iBxEkjHDYLS5EiI74VXZxBJhKbYB7yFhqUf4Bfd+2XA27U6DtaN2chM9UNB0b4rZl3MhwVfE34Otd85Yu8JTdixJ4RpdpxWwRuMpcVDDQiedIGEicNwAwNuOyXudOiqRHfoxFYBfOfeqOnrOTl5cJtt34t4P12Jicz4dkyfRZUjZvABKspM5s9Y3vr9JNg3dyF0J3o/5tk5W9uv+1m9npmQMx7aDPArIeRpjKD8zuzmPfMhqm/VVmj9eLt3qStsqNM+qLqYA46Wi9g5SRv6iI1aIr7/j13Q5EQXo40ZufC4dJyZrrbPHM2e8Z2Q3ZgsENJcbHy93dBWVkpPyM/YiSl3qXaMTJOUuNDAGiFkDmBrPx3osExtTjJGBDBEriaxA6NAwrNj9EinAwRZvA5iWRkpMPdd30TLr74ArAHmTEiPj4eLrn4QrjrrjshPT2dnzUHiQn+6yNWL9YDrTI/aAGmTpIVCoggGHblZi9DuGuwsLIBOq9AzRYQoQYj2M45+0y498ffh89fdTnMmzcH8vPH8J96wfb8eXPh6s9fwX7v7LPPAKvVXPtjEDHvoZ77nNDyYJDVOSxwlWeiYW8KLB2dXWYVVrjwvmdg7xF/Ys5IiYtPguSKk3krPHCDntkieNp73dDTF/mNp33XcmU5O/LrLPLshXjwZubGmzyuQmKBnp4eOH68jgkTrpZigZdfeQ2WL/+YHfcq04pPLRPY8XDEOZIhefxC3goPzMSgdzaVSOlQxpEzCuOoc98qcPf6a4hFysSibHjj3i/xlnkw9cpJNp8TmsnsJpw+RSs5bLA+JzsXJkT2Eu2hgBkVMOQ8VoQJEc16eubWs1vNd2uSVUzNd0fyYmpxks3nhH3TjEt7NJdH420H43OKg8BCg+rM14RciNF6WOpEj+6NJj1TjiNl/Mv4tsnnRJjK1ySC+51wP4keDMirF0Mrp1hEnffQJqx6tUKvvqgFZojSNQskTlHErOKE6LUhV20aMmNAxGhCNOsheoSTG5BwPGpYSZyihqnFSbbMAjLvdRgJvSL27KqVk2g2IuRDvXKy67AR18zjyMzCKhumFiePRD4n7JMmHlMBWRu0xKrKbK2emRNykaBa2eoRFGGWUjiDYQky3yIxMvRNRgkz5IcbFp3ev5iRHJG5lhOBkwe1z0n7lZOZh5JF8koJZoLEiWDodT9Q39xiKZQ8FlFPHvTYiGvmaZ7pJ6kSQT6nqGHuGZNe7168ueH1o5WT3GCiWhE9Cg6aeSTJ5GowO+YWJ/4sA9gpR/ugCmYTrnhzM1PS19EKTiACCw7qIE4mHkgyvnWzruVMLU4ybcLF7YlmHlTuILM7DEcwm3DFaqreMHKzDp3Rgxjub9chlNxt6nHEDyTCrF8n+ZyiSL+JB5UriJx40UC8ueFNj0z08iOaXvXwOfXr1Be1QK9xNBowtTjJFnLqMvGUzxWFMRWMWc9q8WcYoA245iBJuE56ROuZeRz1u+R772ad/5FZL4rI2DGDAd92NG4IwZj1xFLfFAxhDsS9TuqtAFrQZ9JxhPRLuHAy67dJZr0oguJkxklfv7Js0uttizNvCiM3BwErJx2i9fAG7zbhfL9XGf/mlVX5IHGKIi5lJdcbDfuYzvRpf785gTjzpqSv5kBMMaWHWQ/plXEJMgIoTkT0IJ9TlDGbSaJfWepFS1CD8TkFmPWEKquEvIgrJ72q4TpNJk446qNRsFMLyOdkALL5nBAUJzMJVG9/9EyRQfmchNxsSUlJ/MjcdHZ2wfbtO2HlylXw7nsfsGds4/lYQJxE+CoYaw2ayCW91w8KCpOso948d6NAyKwXZfBG32MSccIgCD3fqyhMiNl9TqtXr4W/PPAQ3PP9H8Pf//EoPPefF+H1199iz9jG8w/89e+wdu16/hfmRG1+xYKRetBtInXq7jOrBMiLqcVJ1jxWaC/vNcG4cirCpGfYLlZSFRHNRWZi48bNcO9Pfg5PP/Mc7N1bxc8Ozp49e+HJp/4NP73vl7B163Z+1lw4VOKkp9/JDH4cFFH0NxPRxdzixJ9lg62eel1SL6dRPKNtIx/J5zRg5WSyUHK32w0vvfwa/PNfT0Jzcws/GxyNjU3w8CP/hNdee8N0+dfUkwj1ddSSTslneTi5k/09ks/JAGT0OflAc5msS30UT6cintFeNI3kc1Lf1Mzmc3rppVfhww8/5i0/eXXHoWLfHpi9YQ0s+WQ5e66o2gN59cf5b/h5/4Pl8OKLr/CWOUhSBa7oUdPJB978OyS++csuTIi8d8nhMbU4yV6UzNnngh4Jo466lBWTFuaSkVdOgd+FmRK/rlu3AT5esZK3vGQ2N8HJn30CU3dsgZKaQ5De1gq2/n72XFJ9CKZu3wILlZ9ntAausvB18PXMgto3aNdRnBCn0l9lHEedGo2jaEMrJwOQvVvgygRXTzJ14C7l/eBg14IRV06qDZxm8Tm1tbXBv599nre8TN65DWZtXg8Jzm5+ZnASlZ+ftHEtVO7ewc94waCJ9vZ23pKbgTWd9O/P7T1yCQGOoW4TrJoQeb610DC3OJnAdo/7iLp6XVIMLHTc4nsxCvXKSV0rSFZe+++b0NfXx1sAxTWHIf/4Ud4KjsKjtVBcW81bAD09PfDGG2/zltwkqErp6+lzEml3uqTYpuHsl9vUGCuQWU8H0CLRpXRmo0LMcQWH/z4+tGQks55YCwhrBJmhamh3tzMgFDypqxPGV+3hrdDAv8OVlI/PVq9lIiU7uHISr5W4kVpPcPS0KgJlpIkPJ3gdPcZN8MKBzHrEsLAVVI8bunWuq8GiiXDFpDyMnnMGlsswR6Te9u07AlbouGqKC3PFHud2Q3H1Id7yRv/t2LGLt+RG9A/qkfx1ONDEh+ZpvWlXJndmCICIFUwtTjJH6w0G7oXoVGZd2Mn1ME/gSg3/Lb3SqozkcxKjvMxSLqO6uoYfeVEHN4RKRlsrP/Kifn1ZEa+X1aCVkwiap9uUVZQe+/RQj5q7lRWbTuMo2pjrLunH1OJkBrPQYGAnR5s1zv60GFzo3+pQZpdoo5epjId9QBVc+Wlp8YuJ1dUPyZ0dvBUeKR3tbAXlo6U1UKxkRbxeRq+cfGA/R9Ho1GBbBIJDB8dRW3e/LiJIBEIBEQaBnZ3N/pTOj2a3SFdSOHbQFo+DCW3iMibOFGfcySbZ49QmRNSlR7hqYih9VnydlpYovKYOiOKkdyj5SGBEbFNXP+v3aD6PFBQ9nNg1K69ptgS0sQQFRBgMihSGpKKJAp29GLSAZoRgtAr/Fk13OCjxb9EWj4MpCuMzLEYKiBBvambJq2e32/gRQL89nh9FRp/N/5p2u50fyU1AqXYJzHqDgVF0LcpKCkXFtwcpmLGAY803jpq7vOZCo4KXtIACIoiIwKGAqycMXEAzQosywNBk4RMd38MnYjiI8Oc4w8NBaQazgxiCbJZyGakpqfwIoB2PI50QKX/fKbxmWloaP5IbmVdOalBXfBM+XFE1dSrjSRlT2Mbxgg88RiHDn6OYnRhHJrbGxBokTpKCQwQFBwULzXW+B84G8ZwZB5FYC8gsPqei4kJ+pFwTFJakyPZmdSSnsNfxUVxcxI/kJqAark6JX6MFvlu0zuHYwRURPvAYTYAmmNONWkwtTmaL1ot1RorWswu1gMwSSj5l8iR+5KW2qIQfhUeN6u8nTwp8fVkRV7p65tYjIsesd0nyORFRYzifE9YAEn9qFp9Tfv6YgNVNbWExtKRn8FZoNGdmwdEC/2uVl5dBXl4Ob8lNQLSeshahkWcezHqtyKxH6MKAjOQmMeshF190Pj/ysnPyNHDHhTZ0XFYrbJ88nbe8XHRh4OvKjPp60eqJ0BoSJ0IX1H4Ks/ickClTJgesnpwJifD2kvPhiblXwNMzL4Xnp54Pr1WeCf+rWALLyxfAsrEL4Y2JS+GlKefCv6dfDE/OvRz+t/h86Iv3R/vhqqmycgJvyY86gMVuMr8TYT7I50REjeF8TuqVk1mi9XzccP01AYKaZOmF4pQO6MxKg+15E2BD4VRYVXISfDh2AXxUPh/WFs2ALWMqoSMnHYpSOpXf9+fQw9e59pov8ZY5MLLgIBEZ5HMiiGFQJws1k1kPycvLhVtv+WpAgcQ4ZfUw0XMMFnn2wjRPDZR5GiHb08Gep0M1nOLZAxM8x9nv+cBM7LfddjPk5prD1+RDvdIVIy8JQgtInAhdUKe8MUu0nsjYseXw/XvuhqIif3g5Eg/9kAPtMBbqmCjhM4qUej9QSXGx8vd3QXlZKT9jHgYUHFTV5iKIaEPiROiCeqZtJp+TSEZGOtx91zfh4osvCDq7Q3x8PFxy8YVw1113Qnp6Oj9rLtSl2mXJr0fELiROhC6oZ9p4wzYrWIvqnLPPhHt//H0WcVdYWMB/EgiusPDn9/74Hjj77DPAarXyn5gPMusRemPp6OwybVTBhfc9A3uPNPFW5MTFJ0Fyxcm8RYRK+67lAELGbZFxnjoohUZ2nJKSDL/+1c/YMWEevvu9H7Lii8ghyIEDllx2rCbOkQzJ4xfyFhEqnftWgbu3i7ciZ2JRNrxxr7kCcBBaORG6YDNhuQwiEPG60cqJ0BoSJ0IXxNBjs2SHIAIRxYl8ToTWkDgRumAVfE60cjInYvi/7JnJCfND4kTogl3YoGu2PU6ElwQT1HQiYgcSJ0IXbOLKyWTZIQgv4oqXVk6E1pA4EbpgE8plqPfMEOZA9BVS+iJCa0icCF0QZ9rkczInojmWxInQGhInQnPUtZxInMxJYMHBwGtKENGGxInQHPUsmwIizIn6utHqidASEidCc8xcy4nwo/YVitsDCCLakDgRmqOeYVO0njlRTyrsQtYPgog2ps6tN+87D0Nrp7+IW6RYLHFgTUzjLSJUPO7+QSubZbpbYVrvHt4C+OEPvgv5+WN4izAL1dU18Nvf/ZG3ALbGV0JL3CDjxWIBS5x5k9wajau7DTxR3EeWnuyAtf93M2+ZB1OL07TbH4LefjItyE6epw2mQC1vAfzyFz+BtDSaBJiNxsZG+Ol9v+ItgO2WYqiHVN4iZCXeboNtf72Vt8wDmfUIzRlg1iOfkykRqwAjtBGX0BISJ0Jz7EJAhMViCbpIHyEX6oS9VhInQkNInAjNEVdOWMuJMCc4sRBXvTbKr0doCIkToTniDJtMeuZGDCe3CympCCLakDgRmiOGHKv9FrFAZ2cXbN++E1auXAXvvvcBe8Y2no81khL910+9f40goglF6xGaM9NzGDKhkx1PmTIJbr3la+zY7KxevRZWr1kLe/dW8TMDmThxAixcMA/mzZvDz5ibBx74G+zZu48dN0IybLWUsmNCXihajyCGQPQ5xULqoo0bN8O9P/k5PP3Mc8MKE7Jnz1548ql/w0/v+yVs3bqdnzUv4spXrNFFENGGxInQHFGczO5zeunl1+Cf/3oSmptb+Bk/bmU4dUACe1bT2NgEDz/yT3jtv2/yM+ZE9DmJNboIItqQOBGaI4aSi9VUzcYLL7wMH374MW95cSqfbg/kwzoYCx9bKmGdxfu8XnneY8lnPxd5//1l8LzyOmYlQZhcUCg5oSUkToTmiI5zs5r11q3bAB+vWMlbXo5CBqy1jIMjlkzosASKbruygjoCmeznxywZ/KyXFcrr4OuZEXHlFE/ReoSGkDgRmuI16fl9E0nJ5tvn1NbWBv9+9nne8rLdUgS7LQXKpxt+COHPd0EB7IAifsbLc/95Edrb23nLPIhmWaznhLW6CEILSJwITVFv1ExUZRkwA+gn6uvr4y2AasiCeggtN2CdJQ1qLFm8BdDT0wNvvPE2b5kHqulE6AWJE6EpNkvgzcts5TK6u52wdu163gLognjYb8njrdDYD3ngtMTzFsBnq9cykTIT6ppOJE6EVpA4EZqivnmZbRPu9u07wOPxm65qlFVTuAXK3crf1XgyeUtpu92wY8cu3jIH6mhLitgjtILEidAUu8qsZ7aACKxhJNJmiUxcW1V/r3592VFPLihLBKEVJE6Epgww65kslLylpZUfYXCDBTrAwVvhod4H1dLqf30zoDbLUjVcQitInAhNsapm1skmi9ZrEyLqWiBykyQaCFvBf4NvaRm4mVdm0lIDiwvSXidCK0icCE2JF3wSDkdkqw4jsNtt/Aj39UTnRiz64cxY20p8z3byOREaQYlfdSYuPgnibP6IrVhnfM8BKOg/xo4zMzPhZ/f9iB2bhaeeehbWrF3HjjEQ4mPLpIh29mAoxameXcqz91UWLpwPX/7S1ezYLPzox/dBa2sbO661F8CB+HJ2PBpwOTvA4zbX5mOHzQpbH7yNt8wDiZPOOMZUQHx2GW/FPuNq3oHM1r3suLi4CL733e+wY7OwbPlH8Mor/+UtgHWWcRH5nVLACXM9B3gL4MorPwennbqYt8zBL3/1Wzh27Dg7bsyYDAeLzmTHo4Gu/WsVgfIKs1mgrOREULj7zLWvJVKsrl5+ZL5gCGTK5En8yEuRp4kfhUeRp5kfeZk8KfD1zYAYsWd1ja7+7Dbh57UIWyHMBImT3pjMJBAp4s3LjIUG8/PHsBWfjwJogQwIr4gg1rTCv/dRXl4GeXk5vGUeAjKTu5z8aJTQT/kE9YLESXfC28BpVqz9/hu5GcUJufii8/mRl0lwRBk4oYVQY9TiJM9R3vJy0YWBr2sWxI241v5ufjRKMOHw9VjMec8hcdKbOCs/iF08bhf0NR6Gzn2rIK5PFCdzbcD1MWXK5IDVU4KnD2Z7DkEi+E2Ww4G/d5Ly+w7w5+fDVVNl5QTeMhfiJCOutx06q1ZBX1M1u+4xj9UfvUloC4mTzsTZzVvPaETc/dBbvx8693wCzuN7wd2Lmej8NyyzrpyQG66/JmDFgIEN8zwHoBACfUhqiqCJ/R7+vg98nWuv+RJvmQ8xywdmiHD3dIHz2B523XvrD4DHFbumrzib+bZDmBUSJ53BUPJYw+PqhZ7j+6BDuTn14M2J+9W85RT8zlgzi1NeXi7cestXITlZWDUoN+aJnmOwxLML5ngOwhRPLYzz1LFnbC/x7IYJnuPs93zgd3D7bTdDbq75fE0+koTvQNxkjde9Bycne5V+ULeP9YtYw2I35+rfjJA46UxcYmilFmTG09cDPcd2K6K0EnobDw0w69hVm1bNWC5DZOzYcrjne3dDUVEhP+PFqghwKnRDHrRBKTSyZ2yrs2OUFBfDD75/N5SVlfIz5kSd/FVddBD7QW/DIejYu5L1D+wnsYI1ITBDhhmgaD1iROIcsbEBF811ziM7oWOfIkpNNXg34j8JxOwZyQcjIyMd7r7rm3DxxRcEnd0hPj4eLrn4QvjOd+6A9PR0fta8JA8omzFEcIjbzfoH9hPsL+4+80f2WZP9WeXNAgVEECNiS83lR+bE3dMJ3bXboHPfZ9DXckTp9cPPyAaKU2yYRGw2G5xz9plw74+/zyLuCgsL+E8CwRUW/vzeH98DZ599Bvu7WCBBtXIaMb+e0k+wv3SiSCn9B/uRWbEmpoHFZBNMs66cKEOEjiSPX6isnsxXphx3xPfWHYT+znrlRsNPBkGOpwOmQTVvAbuZm9nXQng5cuQo/Pr+3/MWwFZLCTRCCm8FgTKRt6XkgiN3LMSZ0EyGwT4YjWoWKEMEMSzWpAzTCRP6CrprtrKULf0doQkTYlP5IsyYIYIYiNo8G3JNJ6Uf9bfXQ+f+NWwl7u43V+BEfEagz1F2yOdEDEt8jnmc4Fj5FQMcOqs+g/62On42dNQ3LbOVyyAGJ5ql2vtbj0PXvk/ZPqlQJz9GgZNMW6p5LADkcyKGxJqYzswYZsDV1aKslFaz0PBIsy+L0XoJCQlgMekgIQLBAA/xWkYiTghG9+E+qa79n7H+Zwbic8fxI/mhlRMxKDiIHYWTeUte0LTirN0OXQfXR81hLd60YiUYgvAiroLVWwbCxaX0O+x/3Uo/lH2PFIaUx2cV85bc0MqJGBR77liwSu5rwnBfZlpp9dZdihaB4mT+MHLCj7gZ2RblgoP9Sj/s2LfKu01BYuLzKsAST5MurSBx0hBrchY4csbylny4utugs2q1d6OkBnnRAsRJFX5MmBtxshFyQEQwuPpZv8T+if1URixxVkgsmsZb8kJmPSKAOEcKJJZM5y258Lj62KbIroNrwd3Twc9GH7tw06KVU2yRHCBO0Z/Y+MD+if3UeXQn67eygfueEktmKgrAT0gImfWIE8QlpEBS+RxlZiXZpktlBtXXXMOyhXs30fLzGiH6IsjnFFskCtdTS3FiKP20r/kIdO79VHmuZf1YJjByL6FwKm/JB62cCAZG5iWjMEmWWh8DHroPbVBmoLt1m4EGmPUojDymEFfCYuZ5LcHoUefRXawfyxYwYU/Ph8RiOS0lZoXEKVooK2d7dikkKsIEkq2Y+jE8vGo1e9YT0axHG3Bji0CzngY+p2Ewqj+PhC0tD5LHzZcuczmZ9UYxmGk8aew8SBgzQbK9PB5WX6n7oP4zTe8Ny29OIJ9TbCGaabEkiLc8in54LQHroafhgFRmPkzHlFKxEBx54+Uz65sMEqcIwI6IztBkRZisCXKVwkAxQlHC+kqiSOiF2g8hzrQJ85Ooup6a+50GQ+nWvXX7oevwRrnMfJY4iM8ph+SKRRCfVcLaROjQtxYiFms82NLzIalsNlvCy5jGxNXZbLjZQ32zopVTbKGebERrI244+Pq7bNklLDY7OPInQsrEU8AxZgLzRxsBBUTEBBZILJrCsiVjehLfw5FfqayQZigzoZMhpXKJ8jtT5azronTC3oaDykxyg+HJNAeKE0XrxRLRzK8XDbC/dx1az4ocyhbNhxPa+OxSSBo7F1Innc780gnsPjM+8D6jPBKUe4tF5rh0HSFxErFYlFVRAe8oY088ME0J1mKSucQ6mjXQvNFTV2WEFW8AdlUBQhKn2EKdxNc2RMFJXVH6PZaH95r5IssLqRlxcWBLygA7u8+UB95nlAdG/UVbmygggjAMV3er16zR2czPGI/NQma9WAYnG+I9T10exUhwHGBGfRwXhHkhcTIzPjPewXWGm/FE4uITICEtm7dwQWqBREpfFFOoV06JGbkQJ1EItae/B7oPrmelXwhzQuJkUrDmkrNmmzRmPATr3DiKp0LixFMg3uHgZ2N/1bR581Z47bU34IknnoYHH/wHe8b2li1b+W/EHjjhiI/3X+N4RwIkVi5Srv8UpR/Icb1xjGDpl25lnOAxYS6oTLuIJQ5SJ5/OGxLjdisDbjP0dzTxE8aC2TDix1SALasQ71rsXFnth5DXuI0dY2l2LNEeSzQ0NMK7730A69ZtgL6+oTNu2O12mDd3NpxzzpmQne1fTcYCP73vl9DY6O2Dx3NmwOHCU9kxruj7m2uh59h+AEny4dlSsiCxeKYyg5J/Pt6xc1lUxZTKtBP64O6HzoPr5RAmRYdsmYVsxmzLLjohTIitv4cfxd4ep5dfeQ3u+9mvYNWq1cMKE4I//1T5vZ/e9yt4/fW3+NnYICnRf13F6439wJZVDEmVJ7P+IUPwGY4XHDc4fghzQOJkItzKDaDzwFpwO40vIYDJbRPGzQNH8WRl5WTnZ71Yldlpus0/80sSav+YnSef+jcsX/4xbwWCIcP2zDL2PBi40nrq6Wd5y/yIyV/TlS6A110E+wX2D+wn2F+MBscNGz+ikBLSQuJkEty9XdC1H0tcdPEzBoEmvKKJkDhhPliTArNi2K1WKM3OgdMnTQOHx7+iiBWf0wsvvAxr1yqzb4G45GxInX8NZF34U8j70j8g6yLvc7bSTl1wDfu5yJo16+B55XViAXF7QKKnn113vP7YD0Swn2B/iS+sZP3HSHD8sHGkjCdCbkicTIDb2Q5dB9axCCTDYCa8AkiqXAR2TMmistXkpKTC3LLxMKO4DBLsdvAIgz8WCg2ib+njFSt5y0tCxRLIufgXyndyhvKdlPGzXmxKO2niGeznieMX87NeViivg69ndsSIPU9PJ7vueP2xH2B/CMQC9myfqa9A3X10BccRjiccV4S8kDhJDkvNcnA9GFlozW/CmzLAhIekJCTAwvETITvVf0Py9Hbyo4Fhx2ajra0N/v3s87zlJf202yH95BvBYh8+2zr+PG3RTZC+5BZ+xstz/3kR2tvNfXMUfYlu4XpjP8D+gP1CDZo8sR8ljpur9Cvj+gWOJxxXri7aCyUrJE4S09de593trkEJ9aBAE17h4CY8kb7+fnCL0UXKsbu3mzcCfRNm5LX/vhkQ+JA0+RxIKJ3LW8GRUL4AkiadzVsAPT098MYbb/OWORHLoKgrKrvcbuhV+sVQxCWlQ2LFQogvmKgIVqAZUC9wXHUd2gD97Q38DCETJE6SghU/nTVb2Y3eCNjNY+JCsGcPNOGp6VFuQoca63kLZ9GBNyozR+t1dzsD/EyY3ipl9lW8FRr4d7bUPN4C+Gz1WiZSZiWwgKQHPH3+CcmB+uPDihND6Vb2nBJl8rOQlZ0xBI8buqu3QF/LUX6CkAUSJwnBrA9Y8dOozbX23DJIHD8X4mz+TZYjsb/uODj7vasLr4lHiNYzsTht374jYM9JYuVZYdfpQZNo4qSzeEv5npTVxY4dynU2KepJh7vHa9rrUVaZB4XJykig6TOxYp4iVKX8jN54wHlkBxt3hDyQOElGX1OtN+uDESg3z4TykyA+v4Kf8DNSEcXuvl5oaPOGuKNzXMTMoeTV1TX8yItjTCU/Co/4vIn8yIv69c1Esuq6+vxO9e1t4Bxh/9dg/Sm+YAIklM00LKIPx11fczVvEUZD4iQRfW314DxuzEwazSqJExeANTWLn/ESBxYoycqGxRMmDQgRVlPT7N0Y7JtB+xA3a5qNlha/w9xid4A1o4i3wsOWVcqCAny0tJrXIa/Ol+gLgvH1g6HAfoT9CfsV9i8Ra1oOJE1YYJiZz3lsD/S31fEWYSQkTpKAO9h7atHHxE/oBbP7l0LCIGa8VEcCLKyYCDNKyiBdEZjJhcUDNlqKWOMs4Ebfg2oPSXKyeQMi2oSIOrtq1RMeFrDn+lemLS1yFcgLhZSUwGg73DuE1x/7wVBg/8F+hP0J+xX2L+xnImjmw/6I/ijdUcafs3YbuDrlSA02miFxkgBXdxt0V2+Oaj6toEAzXtlJzJyiNrNkJiXDyRMqISs5Rbmden9WmpUDE8YUsGM1DrsdclPT2ExYHbll5lByu91vYvJEaV+MGHaNuffMCq6cxLmKx9nBrj/2A+wPg4H9B/sRgv0K+xf2M+xvIiyxbMFEQ8x8OA4xSIL2QRkLiZPBsMwPhzYqI0LfYm1DmfFscVaYqNxAcEYbP8hNoSIvH/LTM3jLe4OZlF8IZ0+ZAeU53kg00efkcMSP6K+SmVRhM6nXHxHpBMID/S1+P1NamkFRalEgPj7w2vpEF/sB9gfsF2JVV+w32H/UYD/D/ob9DvufyAkzX4J6U6+2eMPMNwZEIBL6QuJkIJ6+HrbPQu9klEOZ8ZC8tHSoUG4SVsvQXWNWaTlMKiiCNGXmPKd8HPt9EZcQSu5dNZlXnIqKC/mRgnLDcrUc4Y3w6G9SBE7Yt1ZcHJkPy2iSkvw589RbCLBfYP/AfoL9BfvNUGB/w9/H/qfGG82HZr5ifkYfvBt1NyjDU55aaaMJEiejUAQJhQkFSj8s4CidNqgZz0dGUjLEjbDSwdktzoBPHl8ZsIryEZAdQnk9Ey+cYMrkSfzIS9eu9/lReHTuDvz7yZMCX99siBF76kAYBPsH9hPsL+pVkRrsd9j/BkURr/iCSnAUTdF1ruPuc0K3ARNIgsTJGDxuZjLQNfmkMvATymaALX0MPzE4++uPjbx5kjNU9B76HnyYPTtEfv6YgNVN194Poe/4bt4Kjd5jO8C5bwVvAZSXl0Fentf/YlYC8+sFrpx8jBTl6QP7Hfa/4bBlFUBCyXRdTcUoup0H9Te9j3ZInPTGAyz4AYMgdCMuDhLLT2L2+5HA/Sn7649H5FkRHf7qvTBm5OKLzudHXlo/fRQ8rtBMPR5lBt76yaO85eWiCwNf14yImckHWzkFC/Y37Hcj7Y9CrOl5EI+BEsOYnqMNltvAIImIXY5E0JA46YzzyDZdCwVa4qyQMHYOxKVk8jMjU6XcJJo6wo9UEgMizJ70FZkyZXLA6snV0QDNb/8KXG3H+Znhwd9rfud+cHc38zPeVVNl5QTeMi9iloihVk7BgP0N+12w2FKzlX59EuvfetHf0cgySRD6QOKkIz3H9kBfa/ADMFIwXQ4GPqiTtg63VwnBUNrqpkaWvDMcxBl0LJTLQL5603WQmekX+L7mQ9D4xr3QtWcZPzM46KPC38Pf95GdnQU33nAtb5kbMb9euCsn7GfY30baSjEgki85AxLGzVYO9As172s9Cr1GZXAZZZA46QQmluzFSC2dsNgcLMJJXYE0yeGAiWOECLQhwJns8bbwshcEmPVUGzXNSnZ2Ntx99zfZiscHmvbaVz8Fdc/dAk1v/xxaV/wdOja+yJ6xXffsLdC+9pkAE+DYseVw13e+qQjdwEASM5IiipMzvP6C/SyYlfrkwiJIVpXhYFsixs1V+vvg1Ye1oKfhIPQHuWomwofESQcw8KHnaHhO9HCwxCdB4vh57FmkLCcX5pWPh3F5eTCztByS7IMPaHQ2j8sbAwUZwZsCfahnz7Fg1vORlpqqCMudsGTJKfyMF4y47GvYD86Dq6Fz25vsGdvq4pBLT1sC3/n2HZCaanzJ8mgh+pyQcApiYj/D/jZUkENifDwLQy/NzoW5Sv/FfiyCdaESsL+PUFsrmjhrd+ob0DQKIXHSGp6S3+PRpyYTrpRwxWSJF/YweQCKMrJgSkExpCYkso2RJZnZMHdsBRv4Imjym1JYDGXKjSCceCh3L86A/eaZZJNH6w3G56+6HL6tiAxG8gVDUVEh3H3XN+GKKy7jZ2IHdcZ5dXaQYMB+hv0N+6fa5Iz9c155BRQr/RV/D1Md4e9hfxaDE+LiE7yZ9HUqYIjj2ckCJCiCTytInDTGqayYIoliCoW4xFTmY1JXqx2vzEpnlZUPGPi4OXLReG+KItZWhAsrmI7NyQs7VNfTEzibNHO5jOEYN7YcfviD78K3vvkNOPXUxVBaWqKsiLxZDDDrQ1lZKZymrJTw5/d87y7WjkXUZlt1Rvpgwf42NjcP5ikTphSeay87JZX1T+ynItiPsT9jvxbBxLyswm6iPitTl/JZMVEsoQ2Wjs4u0wZHTrv9Iejtj+KKxBIHqZNP543IQbt0d8023tIWS3wiq4kTIEzKla3Iz4cJuQVgtQ49D8H6O0dbm6FQmY3G2yJzLvfUboaWZX/iLWA38GBXGIT5wJIfv/3dH3kLIPPs/wfx+VN4KzwwnPxoC/bHzCFz9CEulxv21h+FfceOKQOAn1TAzA7d+9aCR6jGrCWJxTPAlhZoaoyEjp3LRgwOCYV4uw22/fVW3jIPtHLSCLRHo11aD9AZnDh2zoAVEzqPRxImBG8AmA8tUmFCYqmWEzEyAzKTRxBO7iNB6Y+4ihpOmBDs1xPyCgYESbCijuNm6xYk4TyyHdyUgy/qkDhpgY5+JraPCQei6GPidPU4oakr8ptFKLhUN6fUlNhx/hMDQbOtaAEO16wXLq3dXdDV6+QtP6zsxlhlXOiwDwqTxHo36JL/KZqQOGkA7mfSxc9kiWMbEeMcgzuB0TCw40iNMnj1y98XSxnJiZFxOBwB11g9OdGS7t5e2H6kWpkE8hMqMDjCMXYWGyda43Z2QM/xvbxFRAMSpyjT31YPvc21vKUhyv0goXQ6xCUNzOIs0u7shi3Vh8PeUBsqYpaAWAojJ4YmmQfUIB5VZnKt6FdWKxsPH4DWruHDua1JGWycsAGjMb1NNWz8E9GBxCmKoN0Z7c964CieFlSuPKShow221h6KqpN1KMSyCZiRnIh9RL+Tx6m9xcCj/Lel+hA0dQYnhDhOHMX6ZH8n/1P0IHGKEt7qmVuZ/Vlr7PnjwZYRWgTckeZmaO7S4cYhmPWSTFyenQgecbuAuqaTFjR3dsKx1tDK29syCyF+zDje0g7yP0UPEqco0XN8jy5lnW1ZRRCfO3TRtqHAjbd6+H9EnwOZ9UYHYvJXPXyt2I/FCrvBYs8by0RKa7z+p328RYQLiVMUcHW3Ql+Tv/S2VljTc8FRWMlbXnCgFmdlwdjcMUMWc8PfGZuXN3QhtygirpzEvGtE7CJuxBVreWkF9uOy3NwhJ1s4DnA84LhQ/w6a97DkhtZgHk1XV3i5BgkvJE4RguY8Z632afQxLZGjZDoqDT+DqyFgufJmlYyFqYXFsKiiEjIHEYTxykCdlF8UxlwzdMSZc6xmhyACEVfIYol+rcB+PLmgGMqzB258xf6P4wDHA44LHB+B/d6ijKNpynjyZvPQEudR5b6gvZs3ZiFxipC+xsOaJ4C0xNkgoWzmgFng1OJSyEvzR+thmpcF4yaw3GO4gREf4xRhmpivvSmDoQi1p9+/5yRWMpITwyPmT/SunLW/I+NImFRQxPq3r69PVgQJ+7+Y7gjHx5TCEt7yguPIUT5d8z1Q7p4u6Gs6zFtEqJA4RYC7vxd6GvbzlnY4SqeAJT5wF3xFXv6gM0c0aWCG56lFJWz2OFkZwHFDmD+ijasnsLovrZxGB4G+RQ+7KesB5tjD/o39HPs7WggGM22X5+YpIhZoyouzJyorqKm8pR099fuV+4R++wxjCRKnCOjFMhga7x+y5xSDNTVQhNCWjrPG4ShMz2S58oayy2uBetacQqmLRgUDk79qb9rzgf0b+zn296HAEYCrp/z0wBpa1rRcFmCkJRi913OMNueGA4lTmLg6m6GvvY63tAH9TPb8ibzlxW61Qn5a6HWW9ECdV42i9UYH6hWyHuHk4YBlNtQrq/jCSs39T5gA2tXZxFtEsJA4hQHb03RU26SuQ/mZ0JRhGyGRq1GoZ8xk1hsdqKMyo5H8VQvsNuuAsaOX/6n76C5dNsHHEiROYdDXcFDzdPyD+ZkQLCew9kAV1LXLF6YqhpEj6ozVRGyiXiHjPh/ZwPGC4wbHjxo9/E94v+hrPMRbRDCQOIUIluTuUcRJSwbzM4lgnrzN1QfheJtcAiWGEeOMNFFVJI6ITdSTEPUkxWjqlHGC42W4/JJ6+J9665VJrXL/IIKDxClEnGjO0zA1yWB+psHo6euHdQer4FhbaGlctETcgEn+ptGDeiLiVkVtGgnmlcRxguNlJLT2P2EJHaxYQAQHiVMI9HfUK49G3oo+Q/mZhgJt2DuP1EBv/8gDTw/6247yI4Cc7Cx+RIwGcnP9SYj7W/39wEj6XP2wrbYa3EH6evTwP2EQFQVHBAeJU7C43eA8sps3tGEoP9Nw4IwQB6EM9Lf4S4VQafbRhXi9+1uP8CNjwbGBNZ9CQQ//EwZHaL0FJRYgcQqSnsaD4NFwM50tI39YP9Ng4PoKNx8mO0ITNC3wuPvBJYTWFxTk8yNiNFAgiBPrBxJk5U5JSGCbdEMF/U9a5t/D4IheCo4YERKnIPD090Fvg3adCc0I8QUTeMsLDqxxOWNgSmExJCvHg1GQkQUlWdm8ZSyulsDZcj6J06giP1+43oowuSQx7ZXn5MGY9MELcuK4wvFVnp0HSfEOftZLfOFEZWBqZ95jk13XwMhBwg+JUxD0Nh/WdCZoHzMOLLZ43vKCiS2nFBWz3GGnTpwM04pKIcFm5z8FyElNg+nFgTnDjERtyskfQ2a90YTajNsniWkPwbGTnujfc4fjCM/huMLxNU0ZR2iBEImzOSB+zFje0gC3G/qaqnmDGAwSpxFAc1Vfo3blMOIcSWDPLuUtL0WZWTBGSOhqtcQpM8BcOHPqdJg3djyb7S0YWwF2q43/hvH0HN3Gj5RZZ3w8ZGYGpoohYpucnGyw2fz9sfeIvz8YTaI9Hk6ZMIlN9uaVV7BxhOMJx5UPHG8FGYGZV2w5pWCJ1247BJZ1J9/T0JA4jUBfcy0TKK1wFE/xOo84mFG5cgg7ORZYG5OWwWZ7wUb06QH64pwHVvMWwKRJE6V6f4Q+4HX34Ty4WiqzFSY/RjM5mviGKlQ4aUxhgAmdRe8VaVfeHb+f3mbt68CZFRKn4fC4NXVc2tLHQFxSoD28Iq8AkpSZnplwHlqjzAD9Ar5wwXx+RIwmxOvOJiyH1/GWOUBhGq8ImIg1JYsV+dSK3qbDlNZoCEichqG35SgLhtCEuDiv01UgNSERclK1L4IWbbr3fcKPvNkCpk6dzFvEaGLatCkBm3Gd+1bwI/OA9Z/U0a+4OVer4AjMGCHLvjDZIHEaEg/LoacV8aogCDQ75KSkgk3DCCEtcHU2Ql+df9f7/PnzFN2N7W7V29sLjY2NcOjQIdi1axds2rQJ1q1bB5999hmsWrWKPWMbz+PP8ffw9/HvYhmr1apc/7m8pXxPx3eBq0ueDCbBEG+1QV5qGm95weAI+5hy3oo+LBKYVk8DsHR0dpn2W5l2+0PQ2+/irShgiYPUyaezw/7W49Bdq41TF4MgEiYsHOCXQVv4xPwCmDCmgJ+Rn7ZPHobuA6t4C+BHP7oHxuRpZwbRk4aGBjhy5AgcP34c6urqWLu5uRm6usIvpoeZ2jMzMyEnJwfy8vJgzJgxUFhYyNqxQE1NLfzmt//HWwCJ4xdD2qKbeEt+9h4/CnuOHVWmpoG3RVaJYM8qzRI+J5RMB3uqd29Vx85lUTX1xdttsO2vt/KWeSBxEhHEqavqM3BplMAycfzcAb4mHyhYZdk5rOS0GE0kI33Hd0PTu/fzFsCMGdPga1+9gbfMx4EDB9jj4MGDUF1dDZ2d+iUwxVyEJSUlUF5eDmPHjmUPs/L3fzwK27f7S8pknfM9ZeWhXWBBNHB53CwV2KHGhiGFwdXRBM4DG3krulgT0iBp3Dx2TOLkhcRJhIsT5s/rPryJn4wu1vQxkFA6jbeGJsnhgFkl5ZCVnMLPyAVGMDa+9n1lwDawtt1uhx8rqyYzhZB3d3fDjh07YOfOnbB3717WlgX03UyYMAEmT54MU6YE+nJkp7m5BX72819DP8/5aE3JhexLfgUWibY+iGBy2C01h6GrZ+QMMD2Ht0B/az1vRZekspPAmpxF4sQhcRLh4tR9cD30a2Irt0BS5aKg8+elJyXDVGUFJaNAdWx8ETq3vclbAJdcfCGcffYZvCUvbreb+YK2bNnChCkY0IeGZrfs7GxmkktPT4fU1FRmokPRwH1d+MDfw5Uv3ljw30EfEz5Q9NAU2N7eDq2trcw0iD4oNBPi7wUDCtSMGTNg1qxZpvDpvf32u/DW2+/wFkDKjEsheeZlvCUPjZ3tsKO2Blq7gzPVunu7oHv3Z8pR9G+b1uRMRaBmkzhxSJxEFHFKGjsXuvav4SeiC+bPCyWpJAZJTMwvhIo8uVIB9RzZCi3L/oTLJ9bGDZg/+uH3mENcVmpqaliQwoYNG8DpdPKzg4N+oOLiYigqKoKCggLmG9IK9GUdPXoUamtr2XtE/9ZwJCQkwOzZs2Hu3LnsPcpKX18//OrXv1UEmGfxV8ZW5ll3Q3y+XJGc++qOwZ5jR4LOXI44D28FV6s/j2Q0QdNe94F1JE4KJE4iygCypWRBf7vXVBVVLErHm3AyWBzBly7PVFZMC8dOUG768syU+xr2Q/O79wdssLzzjlthwoQK3pKL7du3swi6PXuGrqOD/p6KigoYN24cexhZXh5XWPv372ePffv2Dev3mjhxIpx88skwdaq2WbTDZc+evfDAX//OW8oQsDkg89x7wJ6lXeRbqLhcbli1fw+0dAXvX3Q7O6F7L66eoo8tLRdcyv2HxInEKRBFnHyrgWhjS88FR+kM3gqOWaXlUJwpR2JXpL+9Dpreug88vX4TyDlnnwkXX3wBb8kDrpBWrFjBViSDgQKE/hx8yBx8gAEa6BPDx1BRgrjCW7JkCVtRycZrr70B73+wnLeUIeZIgazzfwS2VHlyL1Y3NbJKuaHgPLiZiYgW+EzD0YLEyQCiLk4srYk2X0dixXyIS/RvsMUNt5iqCM0Jx1tbBpgVslJSYH75BLBJsmpyd7dB49s/A3env9ji/Hlz4JprvsRbcoC+pA8//JCZyAYDgwymT58u7WpjOHAVuHXrVha8MRho5lu6dCnzTcnEP//1JGzcuJm3AOKSsyHnwp8yoZIBHHvrD1bB8bZWfsYL5q4szMhkYeUtygq2zekPmHF1toJzvzYZMEicvJA46YA1JRMSxgbOameXj4PMpGRlAFihp68P6pSBUd3UBO093WCPs8JJZeWQmzp4uLne9LfUQMvyv4Crwx+lNGXyJPj612+Sxjl/+PBheO+992D37oEFIfE9oo8GVxa5uebfg1VfX89WhuhDGyygorKyEs4++2woLQ1MKGwULpcLHnroYdizdx8/443gyzj9TrBlyOE36+hxwpbqQ+BUxmK2MjEsysyGDGV1jds5sNJ0fUcbbDocuLpy7l+viJT8m4xJnAzALOKUqAhTnCJQPpIdDlg6aSrbdCuCA+NYazPzMZVkyrEp03ngM2j99DFleunPnVdWVgrf+ubtAVmojaJP+c7eeustWLlyJT/jByPoFixYAPPnzzfUj6QVaOZbs2YNrF69etDsE6eccgqcf/757HswGnx/f/rTg1AtrmjjbJC+6CZl4raQnzCWtu5utmJJS0xSVi/8JAdXV8t3bQuorOtqbwLnQW32PUUTEicDMIM4oSkPTXoiM0vKoCRL/owAbZ89Dt17P+ItLyXFxXDHHbdIse9m8+bN8Oabb0JLy8DZ66JFi9jNGaPbYh2MPvz0008HFeiMjAy48MILYebMmfyMcWBwx4MPPhwoUAqJlWdC2vyv8Ja8HGyog221gTWYnPvWgqu7jbfkhMTJAKIlTvgFqCZKUSOhbCZY0/xChKa8uWMrwCHBqmNQlBkirpY6tryizAwDNxvOnTsbvvTFq8GudHYjwVn4a6+9BmvXruVn/OBN+NRTT2U35dEGivTHH3/MRFvNvHnz4NJLLzV8FYUh5v9+9j+wbt0GfsaLNTUPUmZdoYyXecpg1Go0Rgaa39ce3ActQmBKf1sd9BzaylvRJVr3JRInA5B95RTnSIbEiYEmi+nFpVCWLaffo6d2M3RsfAn6mwNnh2i+u+qqy2HRyQv4GePAYICXX36ZbWIVwf1IZ5xxBgsFH+1gGPqyZcvY/ikR3ER8+eWXs6AQo/n008/ghRdfOZFFwoctqxRSTroSHIXT+Rm5ONRYD1trDvOWgjKZ697zGducKyskTgYguzg5Sqexmk0+rHFxcNaU6VJVsEX6Gqqgfe2z7FkNZkS45es3QWGh8cloly9fDm+//TZv+cGV0mmnncZbhI+PPvqIraTUoB/q9NO9OSSNpLq6Bv7x8D9Z1gw19rwJkDrnC2DPkWuy0efqh/d3bAWXEIjS33wMemq285Z8kDgZgMziZLE7IGnSYt7iKN/0gvETIFeVkl9vXG3HoLduD/Qd38OexSg8H+hTOvPMpcpN7DSlc9v5WWNAJ/V//vMfFqEmgtm8zz33XKkzJRgNhtS/8847LLu6CEYuXn311Sxs2Uh6enrgww9XwAfLlkN398DMHdbUXEWoJkI8f1jTjM2WUtfeCmuq9ikDnJ/gdO1cAZ5+OUuikDgZQDTEyQpuSIIeiAcXxHncYLO4wao8W5VnC7P6hkdcUgaroqkG7wWYKw8fmt8Y3B7wONvA5WwFd7f3gfWXhgMTuJ6+9FQ466zTpQh6aGpqgueee45lChfBCDwUJiI4UKAwsk+krKwMvvjFL0JW1sB+qjeYf/C995bB8g8/HmDqU2NNzoa4xHT2sCakgyVBmezFaTuWcILU2NEOzV2daMkbAGYsd0chHyfeddwQBy6P8rDEQb/y3K+0nZZ46IXwLC4kTgYQijihCKV6nJBq6YYkTy8kWXog0dOniNLwA2E0cYaySsLkrSkpcmyOxL1LTz/99IBovEsuuUSK6DOzgYESr7/+OrvR+sDAka985SvS7Inq6OiAt//3Hnz8sb+6MuFFmT5Dl3LHYg+LA1qUaXWr8hgJEicDGE6cbMqlzIF2yFAuZZoiSrg6IgLBkupTpkyGqcpj8uRJykpJnrBrrCD75JNPBsyicYZ/2WWXsXQ9RHhgOqdXX32VrUh9YMDLtddeC5MmyVNzCU18O3bsVB67YLvyrGdtLTOBq6xWSyK0eJKh2ZIMbTBwDJM4GYBanHAVlOdpOyFKhFeAUpJTICVVeSjHqcqqKCMzAyZVTlRmyyX8t+QC0/Q88cQTvOUF899hpFksbqbVG9y8ixGPmLdP5LrrrpM2rdOhQ4dhz559rNxIu7K66ujohI72DnZMwuWnW7kLHlXufscs6SfMgCROBuATp3RFiIo9TZCriFIwVFSMZ0XxMjLSmVkjIz2NmbIcDgckJDjYsyymrdEG5o576qmneMsL3jBRmIjoggKFEwGRa665huUeJIwDxdbp7GHBIk7l0d7WDkePHYPjx+vg2LHj7Bkzo4xEMyRDrSUT2uyZJE56gnbz027/DRT01yviNHQFUww6wDDoyZMqYZLyGDdurOGbSInBwczb//rXv3jLC0aVYYYDQhsww4Y6CvKGG25g2doJOcF7X11dPRw8eMj7UFaVR44cHbJwZbfFAV+/5kpYuHCBFCnHgsWU4lS1rwqeevrf7IIMBpp+0Gw1Zcok5lNJTaVVkOzgxtFHHnmEJQn1gclacU8OoS3/+9//ArJtYNHIr33ta7Sh2UR0dnbB6tVrYOXKz6CufvAy8mlpaXDmWafD0tNOk8q/PBSmEqc6ZTn7wosvwebNg6cLmT59Kos4Q7MdYR6wGuzf//53FqnlY86cOXDBBfLViYpVMHnu+vXrectbgPHWW2/VtAowoQ2Y/X3FipWwadMWfiYQnLx/4Yufh4ULAnN+yoYpxAkduK+//iZ8+OHHATNrBDN4z559Epx37tnKQDJ/OYTRBubJe+ihhwI2iWI9IswDR+gL5ivEelg+cJPzbbfdJkVWcyJ0WlvbYNnyj1iqKEwOrGbatClwww3XS2tZkl6cduzcCf987HFoaxsY7LBgwTy44PxzISvLX46CMBcYlSc65bFcOm4MJYzh2WefZeXhfUybNo2FmRPmhWWtX7UaPvjgQ+U+GphBHSN4b/76V2FSZSU/Iw/SihOukF595b/w7nvvB2waRMrLSuHqq6+E4mLa72Jm0NeBCUp95Ofns3BmmqkbB65kH3/8cTh+/Dg/Ayyh7nnnncdbhFnBPYNvv/0uK5svBk9g0Ngll1wEF1xwnvZZa0JASnFqb++ABx/8G+zfH7gPIycnGy679GKYOZNCXc0Omo8w+4MPFCSMEiMfh/GgDxCjJsUChphFQrby70R4YMLdx594mkX8ieBG/FtuuVmaYAnpxKmmphb+/Oe/DshUfOqSU+Dyyy9lkUSEucF0RH/605+YL9HHlVdeSeHLEoFh/S+++CJveZ3o3/rWt0ZlnaxYBOtqvfTyq7By5Sp+xktuXi58+1t3soWA0Vh/8MMf/pQfG866tevhLw88yJJA+sBBceON17JkpHFxcfwsYWYwkasYALFkyRJWDI+Qh9zcXGZOx/yGCG76xBpas2bNYm3C3GAgGQZE5CnXGVNE+cx8XZ1Y+n+d8rOpkJaWys4ZhTTi9NJLr8Lzz78YYAtFn9I377wdyiRNs0OEDpYS/+QTf1JP3EuDiVwJ+SgvL2e5+DBlEFJfX88mi7IkiSUiBxMUzJw1HXbt2n3CkoHm3M8+WwMVFWNZgUqjMNysh7OzJ598RrlpfcrPeJk9exZ85ctfpGwOMQTOvH//+9+f2A6Au9VvvvlmQwdApGD0E+7PwtU+ri7ws6HpGUuPYMkRTIOFmx/NCl6zhx9++EQCXvxsd999t6mvGTEQjOh78KGHWcYJH3itb/7aTXCSci82AkPFaTBhwuXm5y67BE47bQk/Q8QKmDMPc+f5wE22uNnWLKApsrq6mq0mMGgAb9xDpYwRQXM03swx2AMzqpeUlLA9RGYBN+fiJl0fmHsPc/ARsQVOrv7+j8dgz569/IwiEBYLfOMbt7EEB3pjqDg99dQzbCezyB133AoTJ1TwFhErqKPzJkyYAF/4whd4S152797NHnv37g0I4IgUNI/hd1BZWckesoOViPfs2cNbFL0Xyzz2zycCsktgJO23v30njB+vbzorw8TplVdeg7fffoe3vCae2279mjJgSZhikT/84Q8Be2duueUW5nSXEYwm3LhxIyvO194eXKb7SEhNTWU3ekxyK2s0HPqbMMWUjzFjxsBdd93FW0Ss8eRT/4a1a/3prNBE/cMffBfylOuuF4aI05o1a+HRR/3Zp9E+/41v3ALjxpbzM0Qs8dFHH7Hs1z4wOm/p0qW8JQ9YgG/VqlUDsnSrQQHJyclhxQ/Rn4R56HDw4gQLTXho6kMfDfqhsPwB+qXwtRsaGgZU9VWDArVw4UIpfToffvghrFixgreAZYs/7bTTeIuIJbAPP/S3h2H3br+JLzs7C37wg3t0S3ekuzhVVe2H3//+jyec4iRMsQ1G/vzqV786YRLDm/mdd94p1U50tLWjgKIwDQY6hrHYIUapFRcXMzEKFxSrmpoaFqKNxf7UuSJ9oEChgOP4kAX0ET/wwAMn9iCiafKee+6BhAT5M1wToYNj949/+ivbe+pjwsQJcPdd39Jl/OoaSo5Zxf/whz+d2HmOH/Dmr90AE5UPTMQmH3zwAfPZ+DjzzDOlCgbYtm0bPP/888qkqYqf8YPplLBsx1lnncX8Q7haijS1Ev49vs748eNh5syZTKwxUkrMyI6ggKFZEaP9ZMmageMVxRL9bwiKOq4W8bMQsQdOymbNnA4bN25mZfORpsYmsMRZoHLiRNbWEt3ECc0cv1NWTL49E8gFF5wLi05eyFtErIGVPJ955pkTYcjop7j44ovZsdHgigUj0JYvX87epwiukE499VRYsGAB84tptfkbXxdfHzNjFBQUMJESM6PgJG7Xrl3MLIgJcWXYhI7vEycbvtLoGMF48sknm6qIHRE8OJnC2nirPltzIjJ17559MHXaVFZNXEt0E6dXXvkvmwn6mDF9GkveSsQu6J/Am6sPXIGgQBnNsWPHWPZt9WoJVzToQ5k/f77ue5Pw35uozEZxlYR+KTEyEN8vCgKGoWPwhNHg6sm3GsaJB5r10OxJxCboY0pJTobt23fyMwA7duyAJUtO0XRSostUDP1M7777Hm+BoriZcN11X+YtIlYRfTh405Uh9BhvqpjUFPcpiaAgXXXVVSwrgpGUlZWxPIP4fkR8yVhFsTcKvI6iqXEoXx0ROyxevEi57tN4C4OHmuH5//hzL2qB5uKEJpNHHvnnibIXaLe+/vqvRGy7J+QGN26KkWky5M7btGkT8y/5zIwIRsVdfvnl0m0Gxvfzuc99LiBqD02RL7zwAgtzNxr0xfnA6yxW0SVik2uv+RJkZKTzFsAnK1exDOdaobk4vfDCSyyM1sfSpUsoMm8UsHbtWn7kjeo66aSTeMsY8Ob5+uuv85YX9ONcccUVUpgaBwMDMvD94fsUeeONN0YMd9caDHnH6+pDvN5EbOJwOODLX/ZvnMcFxzNP/5u3oo+m4oQhiB9/7E/yOWZMHlxy8YW8RcQqmN5n//79vAVMmIwMHceUSWL6HQQj5c4++2wWkSQz+P7wfeL7FcF9Y2IqKL3B6ylOOPB643UnYhsMjsB4AR/7DxyElZ8G5kWNFpqK0yuvvMqPvHzpS1dTVM8oQG12Ut9Y9QT3Er36amA/RJPZokWLeMsc4PsVTWkIfq6DBw/ylv6or6sM5kZCe6688rKA+/jLL74KPT3eUPNoopk4HVAUdevW7bwFMGXyJDLnjRLEqEwsiWFUtgMMwf7vf//LW17QHKUONjAL6LfD9y+CAqVHiqXBwOuK19eHeN2J2AUD2s4++wzeAmjv6GCl36ONZuL06qv+mwKaAC69VI79LYS27Nu3L2CvzpQpU/iR/qDpCwXKB74X3LukFZj1AU1tvgJ9WoDvX/xOUZjQB2UU4nvB647Xn4h9zj7rDOaD8rF82YdDZjsJF03E6ciRo7Bzpz/kde7c2VBYmM9bRCyDGRdEjCq9/umnnwbcKHGPkFZ54HBQYrAFiiEWUsRnbEd7sPrAz4Gfxwd+TiziaATq66u+/kRsgnvdTj31FN5CK0U7bFgfXbOuJuK0fPmH/MjLeeeew4+IWGfnTv9GPUz5Y0TeNcx+jmmTfOC2BS0TzaIQYrohEWzjea3AzyPOXJctWxaQ9V0v8PridfYhXn8itjnj9NMCfE/LVPf9SIm6OPX09sKqVat5C8N1x0NeXg5vEbGMWNIbwYwHRoApiUQwC7qWGR/EyESRoc5HA/w8ixcv5i0v6s+tF+J1xutPUXujA8z7iFYxH5hsAfOnRouoi9OaNetOJHZFTl3iX/oRsY3a3yA6y/UCZ+6+xKQI7hHSWiTFTb0iQ52PFvi5xD1Q+LmNWLmorzP5nUYPpywKzI26Zt06fhQ5URentav9m/EwJ5OY8oKIbcSVAiY0NaJwntr3omUAhAyoP58Rvie8zmLhSC1XjIRclJeXseg9H+vXRW9zeFTFCU16e4RZ6+JTFkm/yZGIHuJNCXPE6Q0mozx69ChvecPG9U7gqjf4+cTUS/j58XvQG/F6kziNLubMnsWP0LR/JGqmvaiK07Yt206kVUdmC2+aiG2wdIJYegLLTujNOsGkgJMiIzf/6gkmYhUngeL3oBfi9cZ+gP2BGB2o7/Nr10Unz2JUxWnLVn8YaWpKCuTny5mzjIg+6mg1vQsKohP+0KFDvOW9YY+WCq34OcWM7/g96B2UoL7e6v5AxC4lJcUBpr3tO3ZCNMqrR3fltM2fEWLqVGP2twwHBmrU1dXD/v0HoL6+gVXylJGWllaWXWPFipXwzrvvs+jHnTt3DyiKJxPiTBkTgurtb1Lvr5k0aRI/Gh2oP6/e+43w5iQmgpV55dTa2gaHq2tYRm1xk7ZsVFUdgDVr18P77y+D5cs/hg0bNrF8pTIybZp/M/bhQ4cxKyxvhY+lo7MrGiLH9lj8+Mf38RbAddd+OSDM0ChQhNat38Au7LFjA/eBlBQXw6yTZsCC+XMhPd2fDt4IPvnkU1i9Zh0cPOhfAajBToARMtOmTeVn5OBvf/sby2OHYPTWl7+sb72uP/7xjydKnaOJ6cIL9Usw/NhjjwVEqPrA/VU33XQTb2kPbv71ZafAMN9vfetbuibcxarHPn8TFh+89dZb2bEMbNmyFTZu2gKbN28dMCnF6zRr1gw4adbMgJusEeA9CpNlr1fuV2LBSRGsQIv31qWnabtFIhRQRJ96yp+h/Mc//qGyovJvFA+HqFXC3bVrN6wXdghfdunFATMpvcEV0osvvgLPPvcC7N1bpdy4vGWl1eDMac+evbBs+UfQqqxYSkuLdTcHYfj9Xx/8B6vVj6um4cDPhd/zxg2boVi5+FqXSg4WzPrtG/S4KVNd5kFL0IwllmzAQAisaqsXmPB0sGwQ6AdS58LTEvT3+hLBolhi4UQ9V7AYjOEzJ2Jf0HLjc7B8+uln8Mij/4KVyjNmrhF94j7w2qEjH8fVunUb2PgvLo7sxhoqWPb+qaeehRdefFmZYFQPa9XBcv5o/Vm27CNFwLphyhTjrQQo8B8JFSjKykrZIxKiZtarrfEv43FQ5uQYk+wTwdnR/b/5g7JiCi2dxqerVsMvf/U72LNXv30ab//vXXjq6WdPzPqD5ZiyUn3ggb+xSYHR4MDChw8xrFgP1NFhRlezNQr159Y7ak687uo+oTd4A3/obw+zyWlzs7/o5UigpeXpZ56Dfzw8+GpYC/D9/f4Pf4ZNm7fwM8Hz0Ucr4C8PPKTbex2K3NwcSEz0T+ox8XekRE2cagQHbInOsw4RNI09+tjjA2YedZAG+yxjYL2lHFZYKmGD8lwFY6Deksp/w0t3dze76W/YuImf0Q70J7311ju85cViT4TEsSdD2vyvQNYFP4G8L/wNMs+5B1JOuhIcJYFRMbjJ88GHHmb+KCMRs0IgevubxECIgoKCURMIoQY/N35+H+L3ogfq667uF3qBvtk//OEvA8aFLaMIkiefC+mn3Q45V/wRci//PaSfehskTT4HbKmBuT+3bdsB//fHB6B3mBVMNMBJ6R//9FdoaGjkZ7y0QwIctmTDNksxfGqZAKstFbADiqAWMqEb7Py3vKBlCIXYaMYKVSeOKKvoSN1O0RMnITonv8CYJK/oq3nhxVd4y0snOGCNZRzssBRBDWQpFz0RXMrHblOeqy1ZsB2KFaEaO+CCP/30c3A8iqk41OzevRfefPN/vOUloXw+ZF/2a0hbfDMkVp4J9uxyRawSIH5MJSRPuxAyln4Tsi/6GdiyAvcQ/evxJw27ESDqf1tP3x2aacS+p3eUoGyInx+/l8HMWFqhvu5G9cnHH3+aWRZOYImDlBmXQtaF90HK3C9AQulcsCZlQFxyNiSUzYPUuV+E7Et+AclTL8Bf9v6NApr6nnzyGd6KPlhJ9rF/Bo7dXrDBTihQJtFjYT/kQQOksnN4f6qzpMFeS75yPxsPByy54BZu3xg88fwLL/OWMWAxWR8t7DNFpk5RE6fGRn8pdlzi6Q3OcHDFJA7GakWM1irC1KUI1HC0KbOUdcrvHbP4Z3648nr00cd5K7qgueOf/3qSdU4fmWfeBelLbgVrwvA3dltmCWRf+FO2kvLR3e1UBOpp3tIfdcSTnk7aY8eOBXyPeXn+ATIaET8/fi96JoNVX3cjIuHQcrJtu38TclxSJmSd90NInnmZolHDJARQfpYy+yrIPPceiBPGILoI0CesBe+++wHs21fFWwBNlhQ2kT4u3IcGw6MI6CHIYb+Lk28fGN0rfna9yRAmJ01NkU9MoiJO7e2B/pKU5GR+pB/vvvM+CxH10WRJhipL8PuscDW1C/KhFfxBHDj7Ep180QJXTGIkTursqyG+MLQ0T7iScpT4ne1o4127Njqb30JF9Jdhpmw9qx03NDTwIy9GFTaUBfXnr6+v50fag2UUxEzpofpRIwXH1OtvvM1biAUylt4J9pzgczzG502EjNNu5y0vr776etTNeyjcaNb30QdW2AGF0K88B4tTWU1ttxQFrE9eeulV6O/XplTLSKSmBrpIxLpu4RAVceroDKzEqX6TWoO+lw8/WsFbSlu5wDs94fi9LLDTUsiEysfy5R/xo+iA9nCMHPJhz62ApCnn8lZopJ18I8Q5UngL3+vH/Ehf0E/nAyM09QxfbmnxO7sxEEfvvicb+PnFbBHi96MHYoSu2C/0YPXqdQGTvuRpFzDTeKjY8yZA0qSzectb6XVtlFdPHyurHNEvvhOKQhImH2gVOgj+QBT0XW3b7t9vqicZGWqzrgTi1NkeGI+fkqLvyglDwcUNqruUGUifxRqWxRNnI1XgN42guRI37EWLLaoUT8zOHebNPM6RDInjl/AWQHVNTYB5VS8wMsqHOHPWA9F0FK4wYfVaLDeBNZHCeQxVVBDPD/b7wTzw/eD7Cgfxe9DbtCZef7Ff6MHGTf4y8Wj+Tp75Od4KHTTx2VL994HNW8K7FkOB+y59oGkOLT3hUm3JDrjXbdoUetRfNEhMTORHXrqdg+/TCpbomPU6VWa9FP9sXg8OHPBHJeHyuMHi/ffDnb8fZTZf/18f2O/dXBoNcH+CiD0vsnIO9jH+Qm+I+vX1QAxjxf0OeiKGK6sHRzC89tprrHrtrl27YPfu3WE9hhOnwX4/mAe+H3xf+P5CRfwe9A7nFq+/nuHN6F8Ty+MnjF88vI9pBCxWO3sNH/v2RS8sv7Ozi4Ws+8DgrEhwK/eqDuE1jLgHIOKKHXG7IgvGiYo49ak6od6hvE1N/tWCEyK/OaLD0Ql+v0k0nHs+xJBRW3ohW/1Egj0Xxc0vpA2NgSGpeiDWLdLT34REIowbNmyQPkEpvj98n6FglEAg4vXXup6VCG5edwk3Q1tK5EFZccJroAluqIwNodKoGqMtEayafLQIvvJQ9nVFkwHiJAQqhUNUxCkuLvBlPB79wleRBsGUhWa5aCC+TqMgfpEiigf6myIFxQ1FzkdDvf7ipGe4shrxBqgeHCNhlszZob5P8XvQUyDU6Nkv1GM0LjmLH4WPNTlQ4MT7TCSoTe+RrpyQNkvggqBOx0AYH2odkGLlpH5TQ5k5tEIcBHEQnX9b9Fi5ohj9ghFNPtw9gYEk4eLu8ZtVbbbwTRnhomcAhJpI/m3xWshMJO/TrNcmVNRC6OmPQnSdO/A1XFESers90Lpgg8hf16ZaEFhV92Q9UFtN3BHqQJTESbWc03kmnSY4gFMhOpm7k5W1k4+09Ojt28FSIj76m6v5Ufi4nK3gdvqd3kYkghQnJ3pfe3GVEOqkCHMAmoFQ36f4PYS6moyUgImijjdI8R6AuJr9/qdw6W8KfI1oja0U1XtN9UQeOJIi3K+QWNhSESVxCnwZl843qIJCf0aKeGUWYotw9ZSiCFycsHIqLPSnhImUomK/Cc7V0QCe3sjs2P2NmMPK/171TliJGOVnQET/ZqglRTB7+sKFC3lLTvD94fsMBfF70Nv/a5T/EW/G4r/XpxKWcOhjY8sL+vGysvw1iyKhsCBfmTT475kplsgn1KnCa+Tl6Zvb0oc6+CYhMbLI3ahkJa9vaIDVq9fwFuhefgLFcfVqf1Zql8UCrcraJ1zKPZg0xD8T+dznLolaBCKaOsTNsha7g6UnCpf21U8pIue1L+P38KUvfV732TJGl/n8IngznDt3LjvWA8zC7SvNjp9fLLoXDJiLDv8Gy2xUVlaG9cAEq4OtGNEcd9FFFw36NyM9sD7TKaecokw2ivmrBQ8GUPgECj/XxImRRYSGwpo1a07cpPDfnjpVn9IueLPHFD6+gCMcE4kTTgWLLbwbJFok2tc+jbYp1sb6dHPmnMSOIwXH5549+04EWiVAH8tOI6YjCgVcNeE9y2dEnTd3jiGZyjFbi5hN48wzzxyw9ykUorJyUpfGaIlwZ3CoYMJB0Y5b5mmEROWChwOKUiH4o11YRd8x0avoO2FCRcAMrHPLa9DfEl4Bse6qT6D3mD9dCdak0TuUGxFn53rvbRFNLe3t4fnwcG8O5qQrKioK6zGUbwXPD/b7wTzw/YS7Z0z8HvQ284rXX+9VW2Wl3/yJFomOtc/yVujgpM/T51+NVFZGV+AXLpzPj5RJDLhgosc7wQoVC3hgsucIe2Ztpc8tWnQyO9YbdVmiSPe7RkWcsrMDI2OwLpKe4Exk8eJFvIUfygOVygULFbzA3r/zm8mWnn4qP4oO+F7POftM3lL+JWXG3fbJI3jAzwQH+pk61vkHH3bK8887h7f0RVxV4qxZzHWnNVlZ/r6H/26kKVPMDn5+8fsXvx89EE07eu93XDB/XoCgdx9YpUzedvJW8PQe2QY9h/3WDdw3Ni/KhVPnzZsTMEnNhXbIhtDTPZVDAyQLfnYsllhQEL3JdCiozXrpEfrqoyJO6arZ2UgF87TgwgvOCwg2yIAuqIDgk156Be0o8zf5wJpUopBEi1NOOTlgudvXfAia3/8duLuD20/V17Afmv/3S3AL/qqZM6ZDfr4xnVLMSIDOeD3T1qhrR+mZS05G1J9fz9pauA9IDMbQO5VUamoKuw+ItCoTv7764Ouz9dbtgdaVj/KWl8suvSisDd7DwSaT5wdOJqd7qqEQgt9TOd5TB2WewNyS551rzAQVEfeD4iQhUvdCVMQJyRWccEaIE34Z11zzJXbRfRR7mmCeZz8kjRDBlwZO5feqWNpXH+hcvenG63gr+lx/3TUBDtzeY7ug4bUfBszYBqCsrjq2vArN7/wS+tv95TwyMzPh85+/grf0x8hs1JiFWwy1rqvTrsyJGRA/P34veoqT+robETm6dOkSmDjRb97DCV/TO7+Gjk2vKMNnmEAp5WftG15Qxtb94Hb67wOTJ1fCyScv4K3ogiu9adMCfXITPcdghiJSGNg1FHg/w/taCQTuaUSxw0reRlFT67dWqa1p4RC1Mu2bN209kSHaarPCKYv0j4LCUh3JKcmwY4d/KR8PLihSZiOpFiekeHog0dIHdo8LMqET8ixtUOJphnFQB3YINKtdqwjdpEnaOZJxSV9SXAxbtm7zzzbd/eA8tAa6936szPb2grurCdw9ndBzYDV0bn8T2tf+m5kcQDDbYJn2O75xq6Hl2jEY4NNPP+UtZUY3fryuZdIPHDhwIsEpmrSmTJnCjvVCljLtiDogYebMmexYD7B+1I4dfh8oOsSTda5QgJPTGdOnwtat26HjhJnJA311u5WJ31oW3drfegQ8yrhytdRCT81GcO5bAe0bX4DemsACo0VFhXD7bV/XLOoQ3+vcOSdB9eGagE2zidCrCE8TZCn3qGRLD1iVe1M6dEMRu1fVw1hoYPc1kTNOPw0uufhC3jKG//73jROBOBgIM3t2YHHUUInayqmwyB9ujUW6BhusenDqklPgqzddPyAwINvTAaXKTAMdjzPgMEyEY4owYQcItPNiqeE777gtapE5w4ERQHff9c0A2zOCsz1cQbWv/w+0LP8TWy2hKKnDzidUjIfvffcuQ+pniaj9GnoXmRPLk+PKQW37Hi3g5xZXTnqXq1dfd739XT7QBHfXXXeyVY9If+tRFkTUsfElaPnwL9Dy8YPK8YvsnKst0AWAK5rvfPsOXQKMbr75RuYvFq0+SJoiSGj9meqpZS6HAmgJ8C8hPgsPRhQbCZryxZJF0djSEjVxGj92LD/y+h0OH458g2m4zJw5Hb73ve+wm3coYIf8wfe/CxMmhPZ3kVBQkK/8m/8PzjrzdH5mZFBAr/78FXDnnbcpM9PASEkjwAEibvrT2++j3geEod2jEfXnDnV/VKSI112970hvMFLwtltvhiuvuCwkgWFj6+or4euKYOgV+YqidMEF58K3vnl7SJHBKL5478AoXaPBBYlINMyLUTPr4UV9//1lvIUbYwtgbHlgOXE9QXPCggXzYExeHqvHMtxsflLlRLjyys8xm63e4a8IDmI0Ic6fN5cFYSQkeAv2ud0elrgTgyfy8/Nh2tQpsERZGaJ/qSJE4dWaffv2nbg56W3OQt8GlpfwhTHjRlDcJ6QXspj1PvvssxNh5OiHPOuss9ixXmAWdd+/P1aZrM6aFZlZJxqUK/egRScvZNenqbllyI3aOMYwBPvGG64xbGzhNTv11FOYuR/N9OgewT6ESWdRKNGPU1ZawiL9zj//XDjv3LOlmJwia9dugD17/YEnV111ZcTibuno7Ipa3O/dd99zwik6+6RZcINyoWUBq3IeOzYweg+zP6j3aRGh884778AHH3zAjnEz7A9+8IMBZgotwX9b9HtdddVVuvm9HnvssUGzf+PgvOmmm3hLW9Df+8ILL/AWKDfaRcznoxfo6/vVr351YjMy/tvnnhteEU0tOXTocECRPyTe4YDSEuMCCWKB3//hz+y7RXAifd99P454/EfNrIeMH+837e3es2fQXfNGgXsucEakfpAwRQcxkwFed1/WBr1QZ4YQHfOjAfXnDTVTRqTg9RbHeziZLfSgrKx0wD2AhCkycOLvEyZk+vRpUZmYRlWcxFQlWFALK9QSowP1zai6Wl+fI4ZMiwlSt2/fHnbGCLOBnxM/rw/8HvQMIUfU11tWcSKiz7Zt6olRdFJWRVWc5syZHZAEdsNGf9lkIrbBXIpiUITe4oSoc/pt2hQYGhyrbN4cOM70zG3oQ7ze2A/0zK1JGMu69f5imGjKjla2/6iKEzrnJlX6wze3bNkqlWmP0BYxOuzQIX/pfL2oqKgICJ/etm1bzGeMwM+HwSA+8PPj96A34vXWO0qQMA4MNMMktj4w6ay4QImEqIoTMmfeHH7kNe1t2ryFt4hYBzff+sBUNkasnjCTt8jq1av5UWyi/nzqz68HeJ3FEuZiPyBim48/XhmQy3HJqYv5UeREXZzmz5sdEEL43nv+8HIitlGXZsDwcr3BWfv06dN5y3vj3LJF2wnSUGl6tE7fg59LnADg5zZi1aK+znqW6CCMA8PzV33mL5WEKezGjfMHxUVK1MXJ4Uhge3F81NTUsjorROyDEZG4v8XH3r3GBMScccYZAfn2Vq5cqWnOvaFqFmlZywg/D34uH/h58XMbgXid8frrnY2cMIZVq1YHZGM584zgEwkEQ9TFCTlDeZNiKOEHy5bzIyLWmTx5Mj8COH78OHvoDa5YzjknMDvzRx99pFmVXszlt3jx4hN55PAZ21rl+MPP8eGHH/KWF/y8RiRaVV9j8foTsQv2wbfefoe3vIkEFi2KboJcTcQJc72JKTUwCePhwzW8RcQy06ZN40dejNpvhJkZxL0+uEnVt0lYC9Ckdu2117JNt/gsmhajDX6OxkZ/Rmr8nHonmPWhvr7q60/EJh9+tALa2/15SU9beiokJES3rIgm4oScdVbg7vQXXnyZHxGxDGZlEE17Rm6GvfDCC2GMkKsMc8+pVxzRJtKULSOxfPnygBx6+PnwcxqFeH3xuuuZjZ4wBsyG8u677/OWt1zRRRdewFvRQzNxwnLkE4S6KgcPHoING0bHvpPRjlimoampyTDfE5oaLrvssoDqqDt37mQmPjOC73vXrl285b0p4OczKsEqXle8vj70LM9BGMerr70B3d3+cvznnXeOJjn+NBMn5Ctf/kJAzPvLr7wGfX3a2P0JeUATk+hzVG8S1RMsRnjllVfylhec7Wtp4tMCfL/qVSh+Lvx8RiFeV7zeRpkWCf3Yv/8ArFjhD8TBasfnnKNNgmFNxamgoIDZIn1gvY/X33iTt4hYBTO7i1kKcLUi+kj0BsOrP//5z/OWlz179sBrr72ma9XecMDURK+++ip7vyL4eYzc7IrXE6+rD7zeRmT0J/QDgyCeePIZ3vLyhauvCoiMjSaaihNy6SUXBSRXXb78Y9i7t4q3iFhl/vz5/MjL+vXDlJ/XgcrKSvjCF77AShD4OHLkCLz88svS1n+qqqqCl156KSCJLr5//Bz4eYxEfT3V15uIPV559XVoavKXHjpp1kyYN1+7VFmaixMK0zVf+RJveXn8iacDdpQTsUdZWVlAGp21a9cafs0x5xdG0ol537CCJ5b7+PjjjweUUjAKdDjj+3n33XfZ+/OB7xvff7Ryl4ULXke8nj7wOuP1JmKXbdu2B5jz0Md07XXalkSKWrHB4cCaSQ31jVBT4w0nx4Jfx4/X6VIKnTAOdNj7/BKY4gT9EkbnXcO9QLj/CHPSiQUosY3BBmiiMNKPg9nFUSxxVSeCKYHQlKd3tvHBQOE8fNhfIuHiiy829DsjtAXr4P31wX8EFNT86tduhNLSEt7SBl3ECZkyZRKsW7f+xOy5rq6ehd1GM90FIRd4w9q9eze0trayNt5wsTqqGD1nBPjv4z4kFEzxJosrJ0xgeuDAAWY+0zMsGoVx2bJl7Fm9WXjJkiVMAIz+3hD0gaGp0ZdPrbS0FC666CJ2TMQeuJfpz395kOVJ9XHaaUs0C4IQ0U2cMNwVw8tXrvz0RMfGek9YRhk37RKxCTrJfbnt8Lrj7MuIrNmDgRm88YGrJrH2E5rSDh48yIQCBQtN01o4+1taWljmdIzEw4AH0YSHFBYWwuc+9zkpyp37wH1WtbW1vOVdNYl7yYjYAcfqA3/9O7Ny+RhfMR6+/vWvRqWY4EjoJk4I2szxQ+3e7Y882rJ1K8yYMZ3yccUoeOPCgAOfCQ1XT+jMl+V6Z2RksBBoFB8MPBD9Tuj7wfeLAoImacwjhlsjInnvx44dY6KH2cQ/++wz9vrqEu8ohqeffjq78eP7kwV876+//jpveU2NRm4AJrQDhenRRx+Hvfv8wWtZWZnw/+7+jrKC13ajuQ9LR2eXP9+5DuDs+R//eBQ2bNjIzwBkZmbA3Xd9G9LSSKBiEVwVPProo7zlzVp99dVX85Y8oEigYKxZs2bAKkbEZ/LLyspiPiwUKzS5ob8KxQtrmKHIOZ1OJmgYro6bVXGFNlx9MxSlefPmwcKFCzXPNBEO//nPfwJC2r/61a9SBvIYxCdM27b799Vhf/zhD7/Htgfphe7i5OMvf/lrQHnf4uIi+MbtXz+RPJOILf79738HVKa99NJLA3LfyQQKCL5XfIgmLK0oKipi2RXQfCeGussEmmZxX5gPfK9f+lJgFC4RG/xdWTxs3+7fw4aTrm/e+Q2YWKlvlKhh4oSz1P/7419gf5V/j0l+/hhFoG6B9HT9sysT2oKJV3/729/ylndn+a233iqFk384MOM2muGwZpE6gi4S0J+EvrdJkyZJ77PBFeDf/vY36OjwJ/r83ve+F1CWnzA/eJ0ffexx2L3bn24MSyB961vfgPHj9Y+yNUyckJ4eJ/zh93+Cg4f8EVNo4rvzjtsgJ4c6fqyBzvS3336bt7yzb/SrmAW8OWNxP/RNoWihqQ6DGoYz1aGPFf1GaALMz89nZpGSkhJT+VjRzySues8//3zmEyNih8bGJvj73x+FY0L5k8TEBPjOd74FZWWl/Iy+GCpOSI+i1n9+4EHYJ2SNQDv+nXfcqswoae9ErPHggw+ycG0fmLhUy/ISeoB+JfRRoZ8JhQr9TmgKSUxMNL2ZWm3Ow822t99+O28RscD+Awfh4YcfCwgXT1UmT9+561tQVFTIz+iP4eKEYDLYv/3t7wE+KDT3XH/dl2HaNO2qiRL6g8KEAuUDr/PXvvY1ZcWcyc8QsoARlo888gjbNO8DhYmyQcQGGJz27nsfwNtvvxuwwRZX+N/61h0sOs9IdA0lHwqrNQ7mzp3DlpRHj3jziOGXtX79Ruju6oaJEysCspsT5gVNXOj0Rx8OgtcZo9hkDY4YzWDeQfQV+jjvvPPgpJMoq0ssgBvjH/rbI7BmzboT+06R6dOnwrcVYUKfsNFIIU4Iis+c2SeBJc4Ce/d4b1wI+qN2bN/FMkygmYQwP1iUDn03vhsf+m1wdo77Zgg5wLx+uL/LBwZuXH755bxFmJnNm7eydETixAM5++wz4frrrwWbRlnGQ0UKs56anTt3wd///jCIBa3Q/HPhBefBaactplVUDICC9Je//CUgAuyCCy6AOXPm8BZhFJhx/K233uItb2TlnXfeGZAwlzAf9fUN8NLLrwaEiSM46b/xxuth5ky5fL9SihOCkVAPPPAQ1NYGhu9iuPnVn78CKipolm12sB7Qv/71L97yguUgjM66PZrB6rbPPfccb3m54YYbYPLkybxFmA2c5L/51v/gk09WgssVGFmKK+Kbvno9pKfJt31HWnFCMAHm2/97B95+650ByTDRzHfhhedDaUkxP0OYEcxw/cYbb/CWdyf6Nddcw/YBEfqC+7ieeuqpgHRKmNT11FP9BUMJ84DFXT/88GNY+emqACsUguPs8ssvgzPOWMrPyIfU4uSj7ngd/PNfT7ASwWomVU5UROo8lkCWMCcYqrxypb9WDG4l+MpXvkKbPHUE/Q/PPPNMQGXgU045hWXyIMwFlrjAKLwNGzYFROH5mD3nJLjqyiuU8ZXFz8iJKcTJx0cffwIvvvgS9Dj9oa0+MP3R/PlzYf68uawQFmEunn766RPZyxHctIrpcSjEXHswZBzTS6Ep3QdGT+IEgTAHuDLCfKXr1m+EfUKyVhG8R37pi1+AignmcImYSpwQ3PD4zv/egw8/WgFO5+DJOdGxh0JVOXGC9OlxCD+4pwZ9Hj5w5YQ+KBQqQhtQkNDH1NjYyM94Kwbj3jNCbtBst3vPXli/bgPs2LmLnx1IuyUJvn/79cqEYxo/Yw5MJ04+MPXRJd/6DRS6GsAOA5euPgoK8qGkpBjGlpdBaVkpjMnLJcGSFPR1PPbYY6zYnw/cF3XVVVexjYFEdMESGM8///yJYpAIhvnfdNNNUmZFH81g9gZMm3XoUDUcZAUxDwVct8FoghQ4ZMmGbnsabPvrrfyseTCtOCHTbn8IevtdkAttkAftkOvx28uHA0NiMTUSRv5hklkUqwTl4UhwQFJiYsyFqmOhR8zllprqLe0gM5gGCCP4sNifDwx1veKKK9iNk4gOWGMLN9mKpUGw8CJG5sm+nxD3xGGFVtyGoA6UMiu9fX3MXYGfzak88BhXtcfr6pRJRB2zGAVDpyUB6iAVjkM6OJVpOxJvt5E46Y1PnHxYwQ050AFjoBUyPF0Qp7SJQFCocN9KSkoyE+epUybDpEkTpcoBh9mRn3jiCaiqCrSdy1xmw0yo8+UhuAH6uuuu06Tib7igAGG17O07djInP4oRnosVQYoW3YoI1SlidNySBl0wcPJJ4mQAanFSk65cqgzohExFqDKUY2JoSoqLYWJlBUybOkWKPWSYQPXJJ5+EHTv8+RYRDGs+7bTTeIsIlY8++oiF74tMmTIFrr32WiksBujM37ptB8sSU11Tw88SIv3KNLwZkqDZkqxMw5OUO9zw1hASJwMYSZzUJEKvcil7IdGjPFu8zw7lUscrD9swfqvRxrhxY+GSiy9UZtPGm9FeeuklVtJcBDeE4v4bmWb5soPmuzfffJNtfBZZsGABM5kazd69VfDf19+Egwf9GetHK32K+PRa7NCDz8qqyPtsY48uTzwz3YUCiZMBhCpOI5GgdAs7m5dE9pVYkzMgfszgxblSlBtqWXYupCXoZ9f39PeCq7tFebSCR3m4nMqjoxH6GwfuGxPBPWSXXHIhCygxkvfff5/lehPBQAlMd0T5+EYGk+xiHS1MGSVyzjnnwFlnncVbxnC4ugZe/++bsGu3v/z7YNiyx4I1JRusCekQl5ThfU5MB4tNv8CN1u4uONRQD529A7eyIL3Hq8DVOXyQwlC4IE4RH6siRNHPa0fiZACRixN+dIv3MJpYLJA0aYkycAI7mt1qhTOnTAdbnByluD19Tuit3wu9x3Ypj53Q36TMWj2Bfjoslnf60lOZSBlZQhyL3b3wwgusZpLIokWL4Mwzz+QtQs2yZcsCNjgj6Hf8/Oc/z4o9GgWWyXntv2/ARx+t4GcELHFgyyqD+PzJymMSxOdNVMaSHIE8fS4XvL9jC7hUBSY9rj7o2oGfRb7bKYmTAUR75RRN4vMngD13YAXJ0yqnQKqOq6ZQcHU2QefmV6B7/6cDRAqLjt14w7WQl5fLz+gPhj6jmU8sVohgmDkK1Lhx+peSlhWMxvvggw/YdyaCtZjQjGdkaH5dXT0rB370aOB7Q1FKHLcIUk66XFkVybn5GldPK/YEmkaRvvpDygTPX01BJkicDCAq4qTR4ikuPgkSK0/mLT/jcsfA5MJiLf7JqNHfegQ6Nr0MPYfX8zNesLrrlVdcpqxWFvIzxoBlw1esGDjjxozmS5cuhaSk0ZshpKurCz788EOWWVzNkiVLDC+L/8knn8LLr/x3wArYUToHUk+6Eqxp8u5n8yj/bautZqY9NV27VjJLhIyQOBmAzOKEJIyfA9akDN7ykmiPh/njKqRdPYn0HtsBrSseBrcz0I4+Y/o0+PKXrzZUBDCKD0VKzGyA4D4uvAmffPLAiUGss2rVKibaYuVaBDNtoChhVJ5RoGg+9dSzsG17YPRlXEI6pC+5GeLzjXtvwYKrpjX790KPKpTd1dkMzv0beEs+SJwMQGazHmJNz4WE0oH7cspz8mBaUQlvyY2ntwtaP30Eeqo38TNe0Lx3913fNHTDJu53wQg0tU8FwRsyCtRoqNy6ceNGJkxqoUYweeuFF17I/ExGgZGCv//9n6GuPnDFgaul9JNvBEu8HCtdX0VY9LMOxubqQ1DdFFigD3Ee3AKu9oGrKVkgcTIA2cUJV2SJE09mJj4Ra1wcnDl5OsSrbhg4IzvW0szK1hdnypWRu7tqJbSveRo8/X7TRVlZKXzrm7cbeuND0L/yzjvvBKQ98oEiheHSsVjEEE13GGY/mChhNo1zzz3XcD8cTiD++Ke/wuHD1fyMMizsiZA678uQOP4UfsZ4uvt6YasiPi5FoMYqk8f89ECLh1P5+bKd28AtlDRH3D2d0L33M68FRlJInAxAenFSsGXmg6N4Km/5qcjLh5zUNEiw26HD6YRjbS1Q19YKfcrnwc40tbAECjPkcgq7OhuhZdkfob+llp8BmDJ5Etx6qxxJQvFGjUEA6pBpBDNgzJ49m0WoYRi6WcHPhpGLGzZsGDSlDWZxP+OMM5ggy8BDf3sYdu7czVvKeMgogsyz7pIq4AFXTFuqD0NNc4PXyq+snLKSU9j4S0tMUu4x/dDY0Q776497/0Cgp3q7Mh5UgR2SQeJkAGYQJ+zoCZXK6kmZLaqJt9ow6nyADRtJssfDyRMqmY9KJtzdbdD49s/ArQiVj/nz5sBXvvLFIc0herN8+XKWBWGofGSVlZUwbdo0Q30woYI+tm3btsHu3f4bvQiKL2bPOP300/kZY8Eb/j//+SRs2uwvg2JNzoKsC+5lfiaZaFCEZ3XVnkEXP3FKn8Z+rQ4dRzy9Tuja/SkeeU9IComTAZhBnBBbVhE4iibxVvDg6mpSQRFvyUN/ex00vf1z8PR08DMAn7/qcliyRB4zDZqTMDjg008/HTJ7M2aYwDLVKFYVFRVSJfzF9E24eRbFaNeuXSzf4GBgEmP0Ky1evNhw86rIihUr4fkXXuYt5UbjSIHs838M1tQ8fkYeVlfthfqO4JJGi/TW7oS+piO8FWXYEs57GCkkTgYQfXHC3qDB12GJg6TJp4DFGtoqKCneAfPGjYdUh3yRfX1Nh6D5nV+Dp98bGeZwxMO99/4A0lJTWVsm1qxZwx6HDx/mZwaCwoTZJjAzd2lpqSFl4rFMOr5HzMiOSW9RoIYC3+P8+fPZQzYwOet9P/sl9PR4y71bbAmQdd4PwJYpXxAQrprWHaiCfndo9xG30u+dGD6u8kHJCImTAURdnBQRUW8+jRb2nFKIL5jAW8GBUlmSlQPTS0qVYzlMZiIYJNH26aO85S3y+NWbruct+cCACfTVYHQb1o4aDqxnhAJVUFAAeXl5kJuby4IrolHnCP9tDGKor6+Huro6VqcHhSmY94TRh+g7k7l8yD8efgy2bfOHjKef8jVIGLeIt+QBb3wbD+2HI83N3sEWAr1H9kBfoz/II6qgeTyKokfiZABaiFOcPQHcvRpkMFdm5smTFgNYg8+dVZqdA5MLilnaI1lpevc30HfcX4Xz5q/dCNOnDwwAkQlckWDZCPThoC8nlBIMWBcrLS2Nlx1JYaZB3FuFJjV8oH8CZ9P4mvhg9XmcTl7uoR3a2trYcbDga6JvDH1kWC5E9lpjmzdvZdkffNjHVELWOffwlnz09PXBzqO1UNM8MOJxKDz9fdC1+xPsSPxM9LAmpIK7pyOqKzISJwPQQpwSCirBeWRgepJoYMspAUfBRN4aGlwljVNm6xV5BVILE+LqqIfG//4IPC7vrB9v2vf++B7TZAxHoUKfDvp20MeDqxmjwVUa+sDQF4Y+MbMUv0Qhvu9nv2JmPQTN2NmX/BKsKTmsLSu9rn6oqjsG+5VVLGaBGIneo7uhr0Gbch6JRVPY/YfEicQpEEWcUiYthc59mIpk8MzDEaHMqpMmLgJL/NA37mTlpj6jsBSyJfTdDEXnjrehY/3zvAVw2aUXw5lnLuUtc4Gh2mj+q66uhtraWvYYydwWCWiqKyoqYo+SkhJmrjNrqPt77y1jZS98pMz9AiRPPpe35KdRWdluqTk0ZNZxBDeld+1Z5bUJRhm02iRVLILOXctJnBRInEQUcUqdfDr0NlVDz7HhU/iHizU1FxLKB6/mimHjM0rKIDc1jZ8xCR43NLxxL7j4/icsgf+jH36PHccC6B9C3xA+Y+lsNM35zHNossPHYKZBNMnhChIfPnMgPrKyspj/Cn1Z+Bwr/OSnv1C+n2Z2bM8sg6wL72VjykzgXsNN1QeV+8rgpl7nwc3gah+YJSIaoNXGnlkMHTuXkTgpkDiJcHFCW3LHXmX1xE1V0SZh3BxW80mNGZLCDgUmiW356K+8BXDXd+6E8vIy3op98GbicrnYM/qdsLyILPu+9GBf1X74858f5C2AjKV3gqPEfKmjWHLXmmo41DjQvKtlDj0sr5MyYTG7B5E4eTHXtEYv4uLAnq1d2GvvkV14N+MtPzggOofYzyI7juJZLGTYx6pVgdVrYx0UIlwpYeZ2X2DEaGLVp/7rHRefDI6iwa0DstPu7B48OEIZr71HBt8AHQ3is5WJnMlWmVpD38YQxGeVKH1Fm2AEt7MT+luO8pYf3IVeHULUkFQo31VCuX/Pzbr1G0OKgiPMC/rkNmz0JwZ2YD+QpKBmKOB88XBD46DZIPqaj7BxqwlxNoiXcA+Y0ZA4DQEKEwqUVvQerVJGw0CT5OGGerYxcDiCiSgygoSx/jpPeMNavyEwkzkRm6xZuz5gIpI4Vr5yJWgmq21ugs6eoS0T9e2tyuRwoD/J43ZB37H9vBV94rNLlTsx3YrV0DcyDPYs7ToN+rN66w7ylp8+ZSBsqz08IPsxzubq2ttgw6H98FnV3mEHmVHEj5kEcYn+vGm7d2sTVELIxa5dfnNXXFIm2PNC22yuNShMe44fhR1Ha2Ddwf2w62gtdKsiMHF8bTtSPfiqqe6AZv5ni7JqcmjoQjAzJE7DgE7K+Aztctv11x9iKffVYJZyzIDs7O8Dt7JKauCitHb/XjjS0swyJK/evw/aurv5X0iCxQLx+ZN5A8uqD8ziTMQeWHbdh6NAvg3YR1qbYZ8iTrjhFn1K++qOwZoD+1htJhSjrp4e2Kv8HJ/VMBN8w9BpryLFnqncXxSBIgZC4jQC8TnlmvmecEbXc3i7csBPCOBgwYSUq/buhs8UUTre1hrwa129PbDp8EFmJ5cJW6q/zPbRo3KXEiCiQ0OD3xQmW5l1pyJIO2prBgwxFCksHrhy7y42vqoGKYeBf9RTs42NUy1groOc0RPRGiokTiNgscV7I2k0wu1sh75BZmY4o8MB1Nw1tBO2zdkFe+s0yoocJtZ0/80J/RBDZQQnYgPc+9XX5/c3WdPG8CPjQVHZWnMYevr7+JmBtCljDCd6gwlQX+MhcHcHn2oqVNjEN4R0ZqMNEqcgwNmNxebgrejTW1cF7r7wTHR7jh2FlmEETG9sqpnz8eN1/IiIRY4LJj3EliqPODV1dsDxtoGFJ4MBazX1ahgEYbE7IB592sSQkDgFgyUOHHnjeUMDlFVSb3V4+fxKMrMhPSmZt4zHym5O/j0+x0icYpr6+sDoNpnMeljNVl1uPViwwq1WFQoQR16Fcvel2+9w0LcTJPaMfIhzaCcCuPu8r8lf/jwYMpKTYXJRiVQZJSz2BIiL99efam8bPiyeMDeYad2HJT5JKjMVboSeXlwKyY7QkhD3N9WAqyu8FVcwxCWkgl0wfxODQ+IUNBZIyK/kx9rQd3QfePqDC1kdk5YOC8ZOgHgJs5ZbhJL0Q1VwJWIDp9Mf4SZed1lw2OywqGIiZKWk8DPDgwmf2R5EDcEcesTIkDiFgDU5E2yp2qX/97j7uTlh+OignJRUmFFSLm05DRKn0YN4fXHVLCMoULNLx0LGiOZvjzL+trJxqBW2tFywCnsBiaEhcQoRx5gJuIjSDFdHE/TWD9yc6yPFkQAzFWFy2OTdGyHepMSZNRF7dAt77eIkXDn5SLDHw0ml5ZAcP3RgU9/xg+Dq1DC6VLlvOMaMXM+N8ELiFCJx8UlgzyjmLW3oO34AXF1tvBVId1+vVNF5gyGKU7dTso3CRFQRJx8yixPS2t3Fxs9goCj11h3gLW3A/HlYs4kIDhKnMHDkjdVsY64X3Jy7RRkxA80LuP+pqv7YgPRGajD/nkZ7B0dEvEnRyim2CTTrGSNOrK8r/w0HjhfMujLouFHGGZrz8JW0gm24zR3HW0QwkDiFAZafdmgcHIGOWWf1Nt4KpKWri20uHAoUsC3Vh2BzzYEBOcT0gHxOowejfU7tPU7YeOgg6++D5cXzgeMFx81g4DjTpPK1gCN/knLfoDRFoUDiFCb2jAKwJWfxlja42huhr6GatwLBvGCDCVR9ext8VrUHapqboLapGdYdrGK5+vQkcOXk1Cz9C2E8AdF68Un8SB/QTLfuQBUcbWlm/R37PfZ/NThOcLwMBmZnwXGmJVblPoFbUYjQIHGKgISiKco3qO1X2Hts35ApVLA4YVXdceh19UO/2wX7jh+D9Qf3s5RHKAj4Hw5gzHKOSS/1glZOowejVk5oEUDRwez8rKcr/R37PfZ/HAc4HnBc4PgYrKotwlKHKeNLSzDreCLeJ4iQIXGKAExpxHZ6a4nHDc5Dm8AzRH6wnUdr4JM9u+DTfXtg17FaNijVYH2otcoKqlen4n+iOPX09NLKKUbB69ov7MvTy+fUo/Tj9YeqBg0Mwv6P4wDHA44LHB+DgePJeXCz5n3TMWacpqnPYhkSpwiJzyyGuMQ03tIGtIf3HNzE0hwNBiaubFNWSMOBCS47ld/TA0t84AyagiJiEzGMHLHqJE6sv4+wIsfxgL83KMo4wvGktZ8pLiFN88jeWIbEKVIsFmXZPpWlStESV3cbOGsGD5AICh1XL+oZNJn2YhOcdIjzJb1WTowI+jOOIxxPmmKJg8Tiqez+QIQHiVMUwL1P8TljeUs7XK310Hs89L0YVmsczCgpg0ydEsSq97vQyik2UU869PI5YT+eVlwK1jD8vb3Hq9g40pr43LHsvkCED4lTlLDnlINVw8SwPvrq9kN/iINrfG4+FGdm85b2qG9STglLyhORM0CchIS/WlOalQNjc/J4Kzhw3PTVDZ19JVpggmhHdjlvEeFC4hQl0KznKJ6uHGj/lfZUB2+WqMjLhwljCnhLH9QhxWTWi00Grpx0NOspVBYUBi1Q7q5WNm40h5nz8D7A20TYkDhFEVw5JeRP4C0N8QTn0EWzR0lWtu7jZKBZj8QpFlGba8VSKXpgUf4rzc4Z0byHhTy7D25m40ZrsHKBlqV1RhMkTlHGnlnMMg9rDYbCdh/YAB7X0BkgEux2iDcgQazXrOeXRPI5xSbqaL1orpyCDXfAPo6PocASND1VGwFc2u/zs6WNUcZ/IW8RkULipAEJhVMHrB60wNPTBc4qRaCG2L/U2dMDq6r2Qptz+DDzo63N8Mm+XVDb3BiVoD6K1hsdqCcdFlvkARG4oRazPazatxvq2obPEN7a1cn6N/bzwcCJW3fVerZy0hoc7wlFk3mLiAYkThqASR4TS2ZoHl6OuHs6wXlgvTIQBxco3O+xraYa2ofIDn640ZsGqaWzEzZXH4JdxwbftBgqokD1xPDKad++Knjp5dfgd7//E/zwR/fBHXfexZ6x/fIrr0FVlbaZro2kRxCFaKQuwnnRziO1Sn88BE2dHbBFea5VhGowcAPu1trDQ+7vwwmbUxEmT+/wE7OogNtJSqYrT3LWVzMrJE4aEZeQon32CI7b2aEI1MYhi6ThQF+zf19Ajj28ERxsqGc3AF/mCMzYjOlePtm7K+INu+Isuktl/jE7LpcLVq1aDT/7+a/hz395CD788GM4fLga2tq8QSr4jO3lyz+GP/35r/DzX9wPq1evBfcwiUnNiGjWizQLAvbNlUq/w8zhvgSuzr4+2Hj4AOun4oK+tasL1hzYN2QiV5yo4YTN3aODMClgjSYsvU5EFxInDbFnl4I1RZ8Qbjdu0j2wCUcmPxMI1rHBJLA40DHPHibMxJx7g4Gz0qq6Yyw3WbiIzvFYMus1NTXDb377f/DvZ5+H+vrBk4mqqaurh6efeQ5+/4c/Q0uLhsXsdEa8rpGYsbE/7lP621B1yrCfYn/F30PxwtRFQ6Xiwgma88AGNmHTA5syvuOzKAuEFpA4aUxS8TSIs8XzlrZguKzzwNBRSR09Tth5pAZ2Hq2F420t/Ozg4GqrrSv8FY+410k0/5iZw9U1cP9vfg9Hjx7jZ/ygGMcXToOkKeew58Ei16r53+NzLCD6nCIx67UrItfSPXwBTeyv2G93KY+uocrAKBMztCC4u9v5CW3B1WKiMr4JbSBx0po4GySUzlSe9fmqXZ3NbOboGSQBLOJShKumeeQSAYUZWZCTGr6pQtyQGQsrp46ODnjkkX9Cd3fgZ0mcuBSyL/kl5F79EGSeeRekzvkie8Z29sW/gISKJfw3vXR2dsEjj/5LeT19TE5aEq2VE/Yz7G8jgf12qCKbzJRXpayYhqggHXWU8ZxUNouNb0IbSJx0wJqQBolF+m3Mw5LTzqp14O4Pb8WSFO+IOKOEuHJS39DNyGP/fDLAJGdLL4TM834IaQuuY8eDYcsogvSTb4TMc38AtlR/PZ/m5hZ44smnecu8iOIUaeoi7G/Y78KBFeasWqt9vjwfyjjG8RznSOEnCC0gcdIJW2qOrmWaWZDEvrVhRStNKSxWbhSRmSLFaD2zr5w2bNjEovJ82FLzIOvCnyrXM7iAl/i8CZB10U/BmuwX/F27dsPmzVga3Lx0B4hT+CsnBPsb9rtQwaCH7n1rdAt+QDDQCcczoS0kTjriyBkL9nT9KmLijLJ73zpwhWDqyElJhTHpGbwVPqKZx+zi9N77y/gRYoG0JbeCxTr0xs/BQP9E+uKvKwf+5fP7Aa9rPgJWTqoyKeGA/Q77X7DgSqlbWTHhRlu9wPEbn13GW4SWkDjpjKNwClgT03lLezyuPsCwWlf74PtF1GQmpwRlfexzu1jp66GKtQWKk3kDIhoaGqGmppa3AJKnXQD2MJN62pUVVNKUc3kL4OChw9DUNHxgiswEmvUGXzlh/8B+gv1lJLDfYf8Lhv72RraPCSKIKA0VW9L/b+8+4OMo7/zxf1e7q95l2ZIl94aMG8WNYjBgMBjTAinkIBAIoSS5u0BykN+fkgMuCXc5cgkhFwIhgRAISS4hAUKzTQnBHdy7LNtyVbXKrrRN//nOPsvOjrq0u/M8s5/3K4rmGUmLpZ1nvvO071Oo119IDgSnJOOFuVljZw9rAHnQeHO1A59Q4ORxcaJ3vIbEH+z7RsIz+Vbv3a0v2n1/9w6qbWyIWYfCjGMQKrec1q3TboAGWdMuEkdDk236+fUbYl9fFRx0fIZZc+bgxNcDT2Dg64OvE75e+LrpC08P7206uVGg+Rh1JilXXgRvf8ETm5KxsB7CEJwswF1CWePm6JkkkoVvJp0Ht5LvGI+d9NzaYSdaT9I/9u7q9SbR4ffRhppqOilW5nPmCV6p/8nB/eTRvhZhl8zkBw8dEkfa7+TKIKf29DwcPO5kDNwHtNaTirolfTUEJ74O+HrgzCORzCR8vWw4UK2vVepJfVsrfbh3J9W19tEFrV22nUd3U+ehbeFCkkTrK2bmJROCk0XCT2JztCtfnEgSf10NdVR/onf39YZvKKur9+g3DCN+sv34YA11BmJ/llf0c5qZTw7s/3Sqr3n2lqpde8Z/t7t4rDgaHuPsPnX/Lt6YPIyRlhO//3wd8PUQyfQQwYHpE60VZW6ZHz95ktbt39trjjzG6Yi81espUB99WEgKK3o6QIfgZCHuw84azYv4khuhgu2N5N2zhkIdvS9WDGg3kDX7dusLH/mmwfeh7UdqqcEUsMwiv0ma29RyUnTDQeOYmsP0Ow2Vw7ClQpeiKY06O2MnIURu3vz+97YWidVpLfNthw/p1xOnLNqqHa+r2dstkBnxderdu1pfZJ5U2i+TVTkrqWPEEIXgZDFXwSjK5EHWJLegIjP5Ak3dsx1E8A2E0xjxzWOXFqT6W7ybm5kZ7ZM3t5wUXeuUmxsNJP6m+HTBBZuiGSJy89RcK2POlxhpKfP7n5cR+96b8XXE1xNfVzX1J8TZnvH4El+n/e1dFn9ai6liJqaMWwjBSQLuwjLKLDtFlJKINy2s3UadR3bFtBDM+AmXc5/1p8Kwyt9p6gZRdcwp35AlI+RpGnaW61BHCwU90Rl6+fn54kgt5vfTOCGisrj/Bdx8PfXVjcfXpu/wjvD4UhInPui056vMiunkyh/cNvAQXwhOknAXVVBG2TRRSq5AQy11VG8YckYJVqLdxAuzo60Mu4w5jRsXO87kb6gRR0MT0H8++iAwbuwYcaSWvoITXwfFA5wS3pNIq97feEScSa7M8ulJXY8IPUNwkghnN84YlZxtNsz0pLG7V1OwZWCZto24I2/qyNEx22Wbpxar2nKaPXsmpRl+r/atr2l3z95bmX3roratr4pjIpfLRTNnnipKajE/bBjfb74OJpaOEqXBCTQfJ++e1X2OhyZSZvk0cheWixJYCcFJMrz6PKN0kigll54888Amfcp5b7vr9iQ/K5tKcmOflI2JX5mq+fUyMzNp/vy5okTkO7ZdC1DRADMY7ZteIf+JPaJEtGDBPP31VdRhGnNKM2WIGJVfQFmDSIGlbw7I194h7dpL4sJao4xRU8hdhO0vZIHgJKH00vGUPmJoWQjigRfrend/pK/CHwjemLD7+IFDe5qOJvJUdbYeW3bZUnEU1vbJ/2k30nWiNDAdNWupbfMrokTkdrvp0qUXi5J6Ogzvd3hjyeiMHm5YNrS39bqmyYyvM77ehtJqj5eM0onag2F8lgpAfCA4SSpj5CT9wypdQR911nxCnbXbqbftNyJ42vm7u7bpe0UFg9HBa+PaEFVn67GCgnz64hc/J0phJ99/klr+8Qx1+fv+vfjrJ//xNJ384GfiTNj1X/gs5eeru3uqsSVs7NLza62ebUcO0ZrqPX1OKWd8XekTcrTrjK83S2gxlbvS00sniBMgCwQniXHrSZ9mbngqTbZA09HwU21b37n5eLbfvrrjtGLnFn16MN+kjOuCjE/aKlowfx6dc/ZCUQrz7vs71f/1/yPP9jfId3iz1gIIz2jkz1z2bHtD/3rHvg/18xGLFp1DZ555uiipybiBJG+syO/3fu19X7ljm/7+9zX7k/G+Y3rrvI+lDAmnVSueLo5ErnJCcJIcD85mjZmlvVPWvVX6fjn7Pw6PB/Sz3oSzSPDCyvUHqimYFs3crXLLKeK6666hCy88X5TCQu0N1Lrhd9S08nFq+PN9dPz5m/XPXG7d+Dv960b885+55kpRUpfXMObE7zO/37y4loNUXziDOE8P76je2O+1lFCONMoeexqmi0sMwUkBvBAwe9wZ2rtlbW4vfSbV7tXkrzvQ75NxQ2srnfRHu/hUna1nxLP2rrpyOd3y5S9RTs7gskXwYt5bb7lJ/3nj7D9VGWfrNQe69Pe7L3y98HXj3aW1lpotbC1pOEde9oQzyJnT/+67YB0EJ0U4s/IpZ8KZevJRK3WFAuQ7tpc69qzW0yD1JeCMztZSvVvPaM6cWfTgA9+hc845S5/Y0Bf++qJzz6YH7v+OPi3dLowPG8YWck+C7c369HC+bvj6sRJP0smZNE/fnRrk5mhr9wx10YblZtz1JPkC/e8TM2BaUz+varEoyIkXynoPbEzqzp99cRaU6ouHHT1ssT3h0Aoa0bRDPy4vL6Pv3Pct/dhueEfbw0e6LxitrBhNs2bZJyAZPfofj9GxY+EtWOqKq6im8kL92Ii77XxHd1HgZJ04Yy1nRg5ljjud0lzD2+U50dp2rOy3Z2Iw0t0u2vrEHaKkDrScFJOmtZyyx59J7pwiccZaQe3G49n1d/Kd2C/ORAWNLScbdOv1hltEl116SbcPuwYmZpytF0zr/mDC14Nn59+lCUxcX7ImnCl9YIIoBCcF8f4yiy64jsZNkCe7gP94dTjTuTe6oVwwLTWCUyoyvp8hw0MIv/98HfD1IItJU2bT3HOuxH5MikFwUlBxbh6NKCikBWcvozPnX0JpSdy0sC+hDu3GtG8N+Y7u0QohU8vJPmNOEDuVnMeceM2S7+hu8u5dq18HMuB6seDsy/U6MqZ0JFWW9J+QFuSB4KQYTgmzYOpUUQo/FV54yRcpK1uSBZ1dWiuq/iB59nxEAUOGAO5DN97QQF3mVjC/z7xmya9vBCjHEHZWVi5dfNmNNG4CrxMMm1I+elAplcBaCE6K6enpr7ikjJYuu4lKR8qTF6zL10He+sOiFIbWkz2Y30dvw2Fr1yyZjBw5hpZe/mUqKCwVZ8I4MKH1pA4EJ4Vw5eKnv56kZ2TR4iVfoFOmzxNnrBcwXV4Yd7IH4wJcFpToNlJ16nw6/+LPa/Wh54S6aD2pA8FJIbPH950MlnchnX36+XT2eVeRy9X32pNkCFLsWBiCkz1069aT4DbC1/uixdfSrNPO45TD4mzPFky1Zt80GBwEJ4XsPnKUvL7+E2RWjplKlyy7mYpLrN2XJuCIvby8CE62YO7WMz+EJNuI0gr9ei+vmCjO9I7rz6aa4W0YCcmB4KSQxrZWWrV1C9U29L+VRW5eIV209J9o5mmLyGFRuhxzdw9aTvYgS8uJZ+NxS+mCS67Xr/f+cL3h+sP1COSH4KSgzQdq9I/+WlHczTf91AV0yWVfovyC5A8EY8zJnmQITjzZgWfj8RhTf914bPXu3XqdAXUgOCmKnwJX7941oG4+rsiXLLuJpk2fN6CKHC/dx5wwW88OrOzW4+v3lOnztcD0pW6z8XrC9QOtJTUhOCluoDOPuAtkzunn0+Iln6ecnOQkveQVL0FDMETLyR68HYbtMrRbSLJWNvF1y114s08/b8CZ3TEzT10ITgrrbVp5X0pHhdeATJicnLxvAcNTNYKTPRjfx2RNI584eZZ+3fLkh8HC2iY1IThJjNMU9WY4Cwpd7nSat+BSWnzR5yg3t/+B5OEIGS4xdOvZg/F9TPR4E1+fFyz5As1dsFS/boeiv7VNfdUzsA6Ck6S4MnGaIv7gIGSuXP2teRqIkWXj6NIrbqGZs88hpzMxSTH9McEJLSc7iG05JWa8ia/HmbPP1a9Pbu0PV0/1hevV4hkz9TqG7j/5IDhJKtJlx091s8aN/7QScTnyEQ88FjV95ln6TaCsfII4Gz/Gm5c5swCoyRiczGvZ4oGvw8uu+Ip2XS7Ur8944PrCwYg/uD5ddvoZ+udIUBpKFzkkFoKThLjC9NRlxxUs0pqKt5ycAjrvwuvo7POupuw4JpE1dvugW88eEtWtl52TT+do1x9fh9k58e9q42DEHz3VLT6H1pNcEJwk1FPlSZbKMVPositv1XP0DXRGVF+CjuiTr52zkvv8fjpRV0fV+2v0z1y2q5huva7hXyO8SJzXK112xa1UoV1/VkHrSS7Ypt1Igm3a+emNu/BkcPJkA61f/QbV18VmFx+MyXScKrsa9eOSkmJ66MH/px/bQWNjE61Zu442b95KtbXd/0ZjKiv1XXLnzTuDiork2Lk4Hh548GFqamrWj2upmPY6RunHQzFiZIU+OScvv1icsRaviRrI2sFEwjbtYWg5ScbKVpNZQUEJXXjx9XTGvCXkHuL21sapxnaZENHQ0EC/fu4FevChR+j119/sMTCxQ7W19Oprf9Nu5o/Q88+/+OkNXXXGbr2hTiV3u9P16+rCJddLE5iYTPUv1SE4SaYkT7JprQ4HTZ56Gl165a00unKSODlwxm4fj0f9CRGHDtXSf/7X/9D69RvFmYFZu249Pfafj9ORI0fFGXUZJ7YMZUJEReVkuvSKW/Xriq8vmUhX/1IYgpNkOAcYf1jdtWDGO4uee/5naM4ZiweVAslvGHPirgqVx2IOHjxE//Pjn1J7e7s4E+Z3ZVNT/gSqLVtIe8cv0z83a+WAM0t8R1hbWxs9/qMn9ACnKvO44WDGnPi6mXPGBXTO+dfo15NMuL5F6h7IAcFJQpHs4wNJ7pps06rm6jcXp3Ng+0UZ0xcxVbv2OLA89Ytfajfn6PsRdLjoQMUi+mT6l/WgdHTkGXqQ4s97tPLHp96iff08CqVF15Dx7//zp57RXi82wKnC/P4ZM4D0ha+X8y66Trt+zhRn5MH1DPn35IPgJLFIiv+BbJGRTNy9t+TSf6LMrBxxpnfmm5eqwemZXz5HJ0+2iBKRJ2skbZ/6eTpRMkuc6dmJkpm0bcrnqT0rmqSUX4fHrFRk3pNrIFPJs7JztevlBhpVNvyF4/HE9er1jRukq18QhuCkAK9PvinYnBGaJ0tkZMR2XZl129PJq15w2rjxE9q7d58oEXVmFNCOyZ+hjoyBpX7i79s56RrqTI+OZ+zcuYs2bdoiSuowv3/9ZYhI166Piy75J+16GSHOyEPGegVRCE4KkHX9RW5eEZ134Wf7TH3UfdsM9YLT2++sFEecad1B+8ZeQiHDWNpAhNLcVD3m4pgJAO8YXlcV3bv1eh9/5K3Tz7/os/riWhn1l3MPrIXgJLkp5dZutd6fouJRdPZ5V2n33J5vUqqPOdXXN8RMFT9Wejq1Z40UpcFpyymnYyPmiBJRzYGD1Nio1vRyc5aP3lpOfD2ce/41VFQ09DVQyYDZefJCcJJAX09vKlSe8tETacasc0QplnnMyatYCqN16zaIo7DjI/oeY+qPeYxq/YbY15ddt5ZTL1PJZ522SE8sLDusa5IXgpPFIhkhIjnzOH9eJFjx53gleE206TMW9Jg9WvUJEQcPHRJH4a45v7v/SSB94XEnfp2IA1rrSSXmCRE9tZz4Ojilap4oyc1Y3xgHq0iiZU4O29eDIyQWgpPFIk9uXEkiiV0jwSoe22IkjcNBC8+9gtLTM8WJME7CErunk1rBydiN5cmKz6C+NzOaEUG1ZLjG94+7bM1Jdvj95+vAOLYmO65nkWAUSQwbCUpoWVkHwclilSU93/AiwUolWZk5tODsZaIUFbunk1o3Y2OOs2BahjganoAz+jpdoZA4UoNxEW5Pa5z4/efrQCXm1pMRxqSsg+BkIa4Qdus2KK+YpI9BGcW0nBTb0yk3N3qjzeqoE0fDk90RXVeTmydXpoT+eA0pqIzvK9Pfe+3DTvoKXJBYCE4WsmuXwczTzhVHYbF7OqnVrZdveHJO97eTKzi8lp874CG39joR+flyTrPujbHla16AO2tO7PtuF+jaswaCk4Xs2mXA04eNT9CxmcnV6tYbN26sOArL9gyv9ZTtjf35cWOHvwV5MsWOOUXfV07mWlg0tCn2skPXnjUQnCzCXQWqjSkNxsw50anlxunG5tlesuP9mIybLpbXbeCBKFEaHJ4+MPrEelHiRaoumjnzVFFSg/H9M445zZjd81ICO0DXnjUQnCwSyYLMySZlS+4aD9x6KhkRzmwR7IpNfKqSzMxMmj9/rigR5bcd0gLM0NYmjT6+jnLbo1tmLFgwT399lRjfv0i3XunIStu2mjjvnoy7BKQCBCcLcWDiC5+Tu+45esR2FWDc+On6Z2OKG9W69diyy5aKo7CK46upuHmvKA1McfMeLTitFSXebM9Nly69WJTUETvmFG45Rd5nu+B6GMlUzp+RrdwaCE6S2HP06KeVwS7GjJump7Exdv+o1nJiBQX59OWbb9R/l4hJB9+gCYdWUFqo7wcK/vqEQ+9o3/+mOBNO7cOvl5+vXrduR0fsbD3+XcaMP0WcUV8kKHGLCa0layE4QcLwlhqjysfFDJybN+pTxWmnzaZrr71alMJGNO2gGbtepLK6j6mg9QBl+MJ58vgzl/k8f31E0079fMTnPvsZmjFDzdaG15CVnLv1ykZP7LbwGiAeEJwkY7t1T+UTPx2biPAruhvuonPPpq/edkvMOFGGv5XGHP2Qpu7/K83a+Ruau/kJ/TOX+Tx/PSIjI4O+dtftdPbZC8UZtZh3weX3tXz0BFGyBztPUlINgpNkZN0eY6iKS8opaNpewnyTUwm3eL79rX+lqVOniDMDU1U1je679x6aNm1wPycT83ghz8Lk99dOsjMwK08WCE4SseN01eIRWnAypblRcVKEUWnpCPr6126nm2+6gaZM6TsjAgexW275Et15x21UUhLNqaci83ghb1NfVBzd4dcOMG1cHo62ds/QFm1IYMZdT5IvEBSlONCeBPOqFotCYvCFn5Uezq3GO3EaB1157ya7tZzYP/78PzSp9RNRIvq3b3+TKisrREl97e0eqqk5QE3NzeTxeCgnO5sKCwtp/PhxlJOTLb5LfZxB/b9++D+iRLSv4Aw664qviZJ98KQI49btkTrLraqG1sQv/WjbsTImp+NwpbtdtPWJO0RJHQhORkkITj0FIL7YI1tG27HPe/P7v6NRB94QJaJvfP0OrcUxWZRAFTt37aaf/vTnokR0YuIymnn2taJkH5H6yAHJ3IoyB65EQHAKQ7eeBLgCcFCy62BsZl5sbjLVu/VSlblbLzNH7W7K3kTqozkwMbvWURkhOCVZKubpcmXEZt5Wca0TdH/f3Nmpdy1jwkTyIDglWSo+eblzCsRRGIKTmswtXldW7PuaCtBySh4EpyTqqZsgFbjTMylkSGGkWvJXCDM+VPD7me5Ozes5VetxsiE4JVGqpt5Pd2fGbpthyDIA6jAGJ05J5XLHZ2dg1WALjeRAcEqilH3i0vPrGYITWk5KMnbr8cOGMddgKkHXXnIgOCURJ3flLOR2zEDen5jkrwpniEhlXsMW++aUVHbH08f5g6eS2yk5s8wQnJKM0+9HMpC/vnGDHqwSvW5CBrG74aLlpCLj+2Z8P+2K62okS3kkKKVCXZUFgpPFuAKkwgUf03LCmJOSjN16xt2N7SrSWkq1Xg5ZIDhJoCQvdh2QHQUV33AQYltOxocNgERAcIKkMCZ/9Ro2rAN1dO/Ws/eECEx8sBaCkwRSYWoqZuupL6ZbD7cOSDBcYZAUxpYTZ/EG9Rhn65m3QbEjpCqyFoJTkkSSSfb2YXd+wwA6Z1z2+wOiBCrw+XwxmbIDXfa/dfRUT40fkFgITknC22QsmDq1x49U0H3DQXTtqcT8fqXCVHLWU33lj8qS2Ez7EH8ITkmS6l0Extl6DMFJLeYZlqk+Ww9dfomH4ARJEeiKvZl12ixLhM/vpxMn6qh6fw2dqKvTy3ZizuoRTIF1TmAtXGGQFObZXXZoOTU2NtHf3niLfvDYf9Pdd99LDz/yfXr88Z/Qww9/Xy8/9tjj9Oab71BTU5P4CXWZ3y/M1oNEwxWWJLzlcyoz38y8CmeJ4KD06+deoAcfeoRef/1Nqq09LL4S61BtLb362t/ogQcfoeeff1ELUs3iK+rpMMzUY6kwW68vqV6fkwHBKUlSfQ+YkKkbSNU9nY4cOUqP/efjtH79RnFmYNauW6//HP+8iswPE6kwW68v2NMp8RCcICl85BJHYZ0KBqeDBw/Rfz/+E2pvbxdnwvyubGrKn0C1ZQtp7/hl+udmrRxwZonvCGtra6PHf/QEHTpUK86owzzm5HekdssJEg/BKUl4mwz+4ESv/JGKySSjq2TUazlxYHnqF7+MmcjBQam68gJaX7mctmdOoWpvGh1paKT9HW7all1F68ddpX39opggxWM3P3/qGe31YgOc7IzJeo27GqeSSJJmrsfYNiPxEJyShLfJiOznxB+RLTNSKQW/cfpxp2LJX3/57HN08mSLKBHVF1XRxhGL6NCxE9S2+U3y7F1LnYe2UefhHdRxcDN5dv+D2reu1N7fRvq4/CLt+08RP0n66/z6178RJTUYW06pssaJcSDiehrZ3oaDEtfjVKq3VkFwspjXp9ZNejiMkyJUajlt3PgJ7dmzT5SIWrLKaHugkFr3rCFfY+9ddKFAJ3Uer6aW6o9ph2M0teZUiK8Q7dy1mzZt2iJK8jNOiAiiSw+SAMEJksY4w0ulqeRvv7NSHGm/Q1o6bQuN0FtIxnQ+fQl1tFFHzUbanlZJQWd0IP0dw+vKzvh+pfpkCEgOXGWQNMaWkyrBqb6+IWaq+N6McdRWN7QJDa3H9lF1djRdVc2Bg9TYqMb0cmNLF2ucIBlwlUHSGMcqVFnntG7dBnHE0+GddKi+UZQGrysYoEPNrUSO6ISC9Ruiry8z48MEskNAMuAqg6QJGMYqVGk58fTxCC+5tQATFKWhCbafJK8jOnvvQM1BcSS3mL2c0K0HSYCrLMl48R5nNOaPKeXlKbHRYESwy7hVuxrByWOYCOANDC8wRXgNfwfj68sspuWUQtkhKktG6PWUP3ibDK6/WICbHAhOSbJ4xky67PQz9M+zxo3XP3gbjVTaF8Y4ldyc5VpWTme0iqQNcAJEf9IC0TVuaWlqVEFjcEqlMScORFxPI1vecP2N1GVILASnJMHTVuxYhSotp/z8fHFElOeMT8sp3xndaLGgIPr6MvN4UmsXXLAeglOSpGJGCDNjyykQCAx4KraVRo8uF0dEbkcXZaaFRGloshwhrdJFf2/j68uKt/+I2QUXtw3U5yTAVQYJ53SGg1LAMNbCPB6POJLXKdNidyoe4x7eTakyI/bnp06ZIo7kZW7lRmZdqtIlCWrC1ZUkqZQJwszpDCd9NWcWUKFrb8yYSsrKis6uG5vRQTlDbD3lOkM0Lj36O2dlZWqvH80aISvz+xRpATudbv0zQCIgOEHCOV3hm5i5O0iFtU4Oh4POPecsUQpXmOlZQ0vaempme0zK1PPPX6S/vuy6bdEuxg5d7tQdR03lh81kQXBKEk9n6vZRR25i5oF08zYMsrpk6ZKYiRGFziBVZXkpzTGwMTP+vqpMD+UbJlQUFRXSkosuFCW59dat53anbsspletzsiA4JQk/aUW2yzB/2J3bFQ5O5paTcRsGmaVrN+FbvnxjzBhLpbuTFmS3UW5a3zP48tICtDCnlSrTozczHoO79ZabtJt77B5Xskrlbr2e6mvkAxILwSlJjNtlmD9SYeYPjzuZt1ro6FQjOLGJEyfQ5z53rSiF5WgtoYW5rTQru53GZXRSgTNALq2VxJ+5PCurnRbktlG2aYzqC5+/jsaOHSNK8jM/RHCGCHcKdOlxveypvvIHtsxIPAQnCaRC/3VmZo6yLaeIsxbOp6/edov2u2SKM2GjXH6amuGleTlttDjvpP6Zy6PcfvEdYRkZGfS1u26n+fPnijNqMG9vwuvVMrJyRMm+MK5kLQQnCaRC/3VuXiHxCh8jFWbrmc2YMZ2+/a1/palTBzcFvKpqGt137z00bZr8U8fNjLv/Mt4JNy+3UJTsC+NK1kJwkkAqPKFxcGJ+w6QIVVIYmZWWjqCvf+12uvmmG2jKlEnibM84iN1yy5fozjtuo5KSYnFWLcYWbuT9y8kt0j/bGVpO1nK0tXvkX6bfixl3PUm+OCXj1DnSKK9qsSgkDyeB5Vx7drZz+xratPE9mt+1j7Io/ES6aNE5dN21V+vHKmtv99DRo0dFKaq8vJxycrJFSV0vv/xH+uDv/9CPOxzptJom0ZwzFtO0KrW6JweLt2jnseJka9uxMq7ZU9LdLtr6xB2ipA60nCSQEt16OeGWU9Cw0ke1MafecACaPHlStw87BCYWs9Gg2C4jNwW69Rpa28QRWAHBySKR1hJnOOZsx3aXkx++mcVmJrdHcLI74/sUmdSSm2f/bj2ul/xh3C4DkgfBKYk4IEXS7XNg4nKqXPAFBaX6OiHjpAgEJzUYM3nwcgBeFpCXr+b42WBxUDJul8Gfud5C4iE4JVmqPn1xYCoprYiZTo7gpAZzy2mE9j6matJXtKCSB8EpiVJ9amrpyDExC3FVna2XaozvEyfvHTlKnQXEiYCxqORAcEqiVE95wjc145gTD7SrsKdTqjO3nPghI5UhdVFyIDglWSpvUsbdQYE0TIhQjXHfrVCaW++eTVXYZDB5EJySrKE1dZ+6eCA9O3+EKBH5TTusgnzMOxZn54cntqQqLMxNHgSnJEv1i7uodKw4CvN4vOIIZGTec6uoNNXHm9CllywITknGg6ncNcD91pzZmFehbz5Qo2c65mO7KymLzYSBSRFyM3e9FpvePzviehjJPs7HXE+5vnK9RTby5EFwSjK+yFdt3aJf+ByUOD1K5OJPhVlArsw8cRSGcSe5md8fV0auOLIvrodcH/mD62fk4ZHrLcackgfBSSKRpzM7S3NniaMwc8ZrkIs5ODlM758dcT0E6yE4ScbuY1LmmxtaTnIzd7s60mP3srIbtIzkgeAkGdsPuKYjOKnE/P6kueyRzLY3tQ314gishuAkGbuPO5m79RCc5NatW8/mLSdkf5AHgpNEOKHk1NHlomRPDifnJYtum2HeAhzkEvv+OMT7Z19c/1IpIbPMEJwsxpUgsnUGf+bEknaXlh7tGkLLSW7GPbfSMuzdpce4/hnrI4KUdRCcLMIXfSQNf6o9qTkM406dNkmG6/P76URdHVXvr9E/c9kOjLMpHW77BycjrpeRbTIQpJIPwckiPCsoKz1DlFKLccZeh1fdDBGNjU30tzfeoh889t9099330sMPf58ef/wn+mcuP/bY4/Tmm+9QU1OT+An1GFu2xoeKVML1FLP4kg/ByUKpmgolzR0dVFcxQ0RdXT39+rkX6MGHHqHXX3+TamsPi6/EOlRbS6++9jd64MFH6PnnX9SDmWqMY04Ol70nQ/QGM/isgeBkoVRd7GdsOXk71Go5bd26nb7/gx/S+vUbxZmBWbtuPX3v+/9FO3bsEmfUEDPmlAILcHuCVpM1EJwsxGmLUvHCj+nWU6jltGbNOvr5U8+Qz/Se+V3Z1JQ/gWrLFtKe8cv0z81aOeCMvZlzF9mTP3uK1q5dL87Iz/j+OAwt3lTB9RP59KyB4GSxVOzaM45dqDJbj7vuXnzp96IUxkGpeuwS+mT6l2mvFpSOjjxDD0r8mYPUx6feQtWVF3ULUvw6hw8fFSW5GVu2qdhyQpeedRCcLNZT1x4/qYWTwtozS3maKzY4yb6nE+9p9Iunn6VgMCjOENUXnUJbp32RGgqniTM9ayg+hbacEvt9/HpPP/Os9nuLExLrNLZsDUsA7CSShTxVezJkheBkMa4QkWDEWY9f37hBP+ZznBHZjpXFmGXAvF+QjFasfDdmMkNLTgXtH8MtooHNtgw4M/UWVmtOpTijBbf6BlqxYqUoyautvV0cccvJft16XL+4nvFDYqQORnYN4HP8NbAGgpMEIsGop0Bkx24F45gTj9/I3HLif9uqVe+JElHQmU7V4y4WpcHZpwUo/vmIVe9+QKFQSJTk4/fH7oJrxzGnnuoX10MOTBygwDoITpKzY64v801O5nGnffuqqb3dI0pENeXnkd+VI0qD43fn0IHyc0VJa4G1tFBNzQFRko/5fTFnlLcDfigEOSE4SY6f4OzWtZdmyjQg84y9/fujwSOkVZdDh2vJs/Pv5N27jjpqNlPn4Z3kP1FN/sbDFGyto2B7EwVb6vUyn/dpX+fv4+/nnzt4+DAZ24nG15eNOTil2WwRLtcru9UtO0FwUoDdJkaYn8BlDk719dFuHw+59c9d/k4KeVv0YBTQgpDv+P5Pg1BH9UbqOLBJL/P5SNDi7+ef03576qBo116DxE/u5o0g7dZywkw8uSE4SY7ze3ECSjvp1q3XKW+3Xn1DozjSbtYiOA2XNyY4RV9fNt1aTjYLTlPKRyMDucQQnCQVSTppt8DEurec5A1OXV3RCQtOis/khTTD6wQM09NlkwpjTly/FkydhiAlIQQnyXDKfs6CbOd0/d2Ck8TTyfPz88URUa7WdoqHfIr+vgUF0deXjcf0vtg1QwTXM65vs8enxpY1qkBwkkwqVBDzehmZW06jDZs/uihImeQXpaHJ7PLFtJyMry+bVGg5GXG94/oHckBwkoxds0IYhZ/Ao7vhyhycpk2dIo7CRncNL7N4BTWLo7CpU2JfXyax74uDHC77b/GCSRLyQHCSTG+Lce0mzZAlQubZemPHjqGMjGj36hhqpGwa2vvD3YKV2s9HZGVl0pgxFaIkH2PqolTYy4nrHTJCyAPBSUIp8fRmWOtk3DNINg6HgxYtOkeUuP3QRdO6htK6Df8c/3zE+ecv0l9fVsaWUyokfUWrSS4IThLqK6ceL8q1w6p24+C6eT2NbJYuvThmYkQBeWkqHdMqz8DSLvH3Te06RnmGiRBFRYW05KILRUlOMRsN2iA4cd3hj56g1SQfBCdJmZ/iOCBxri/+4HEp1bv+jE/iXsm3ak93u+mWL99IaWnR6sJjT2d27aecfmbw5XZ10NyuahptGGtyOp106y03kdvtEmfkZEzKq3q3HteXSP3hD3P3OVpN8kFwkhQ/xXEF4qSwkUzlkac+rlSqVybjzU72lhObOHECff5z14pSWLYWmDjwzOw6RBPphB6wirva9c9cnqWdP5P2U5ZpjOoLn79OH8uSXadhcbTq3XrG+sL1KJKBPBKo0GqSD4KTxCLZynvSV9efCox7Onk9amzVvnDhfPrqbbdQZmbsVPgSaqOxXQ16V98sOqh/5nKxdt4oIyODvnbX7TR//lxxRm4xLSeF1zhxPekt+EQCFcgHwUlhKreeYnbDVaDlFDFjxnT69rf+laaappj3p6pqGt137z00bZq8U8fNjC1ac7JelaDLTk0ITgpTufVkHGDnWWGy74ZrVFo6gr7+tdvp5ptuoNNPm6NPbugNB7FbbvkS3XnHbVRSUizOqiFmI0jD1H+V9NVqArk52to96twVTGbc9ST5AnHMTeZIo7yqxaIgvynl5XryShW1bX6F2jf9WT/m7q7/fOxRqadV98fn91NzUzO1tLZyQj79XLn2/uTkqNvi+Obd95Jf+71Y7pxrKGfmcv1YNTyByDwBQmZtO1bG9WEt3e2irU/cIUrqQMtJQZwLjPPvqRqYmLHlpMKEiP7wjL6RI0tp8qSJNHnyJP1D5cDEN8dIYGIqjzlxPeG0REjsqhYEJ8Vw/i/OVq56/j2nafaXzCmMUlF7e7s4ClM96Wuk3nD2cVADgpNCwun9p4qS2rplJu9Qd+ahHZlTStkl6SvXIf4A+SE4KcTrU7/7K8L8JI6Wk1zM74ddghOzUz2yMwQnhai+tsnInHGgo0ONtU6pImamnsYuufUwe08dCE6Kscuaje7denialUn3lpPaY04Rm2qw4FYVCE6K4ae+3rJG8Gp3TseiQusqrVvLCd16MukenOSfeRi5/iNpvsz4fG9fA/kgOCnInPg1UikjFXP17l3SB6juLScEJ5mY3w/z7sWy4es9ev2H64KxDkS+DupAcFIQVzTu3otUuEiljIh8XWYOl3lCBLr1ZBL7fjik79Yzd9dxfYgkdlWhPkB3CE6K4u49rnzGoGTEX5d9y3dj6wktJ7kY3w/jrsUy4uu8t3oQCVKYBKEeBCcb4wrJT42yMj6NIzjJRZWNBvn6RuCxJwQnG+NV8TKnbInZcBDBSSrGhwXZ1zghLZE9ITjZFAcm2bNJoFtPXqoEJw5MnJYIAcp+EJxsSIXAxGL2dEJwkorx/VBhAS7y5tkPgpPNqBKYmPGmh9l6cjG+H7J360VwzjwEKPtAcLIR7tpQKTEsuvXkFdutJ/dsPSMOUOjiswcEJxsJz1ySe/q4kcMwRRnBSS6qdetFmBeog7oQnGyGp9X2lt4ogtd+yFCB01zRlDiqd+vxTrgn6uqoen+N/pnLKot5P0yppqzA1+tArmtMK7cPbNNupNg27X3pbQZTJJtEuAtwmqVdIJ7tb1HrhhdFiegnP/6hOFJDY2MTrVm7jjZv3kq1tYfF2agxlZU0e/ZMmjfvDCoqKhJn1fD1b9wtjojy5l5P2acsEaXk48DEGSD4up1SXk6VJSO6Xbf8PbzY1g6wTXsYWk42Zc6vxxXbmOYoUuGN35Nsxm495rPw3zIYdXX19OvnXqAHH3qEXn/9zR4DEztUW0uvvvY3euDBR+j551/Ug5kK2ts94igszZRqKtkigYlxy8h8bdspMEEUgpNNcYWNVGLuDjHn32NctrKP3jwLzOuVf0+nrVu30/d/8ENav36jODMwa9etp+99/79ox45d4oy8zHtrWTlbr6frNhKMIt182AbDnhCcbCwSoDYf6L3ycgW3KimmeaBd9nGnNWvX08+feqZbCy9z3DzKO+MLVLz0/9HIzz+pf8498/Pa+bniO8J4ksGTP3uK1mqvIzPz+2DVbL2eApMRX9d95ZcEtSE42dxAWkXWtZxib3oypzDirrsXX3xZlMJcBaOpZPnDVLDoDsqefjG5SyfrrQz+nFN1iXb+Tipe9hA580eJnwh78aXf0+HD8g7cm98H867FyVKSlyuOemfVtQuJh+CU4njRLq8NsYIjPXYDu05JW06BQIB+8fSzFAxGJ99kT72ASq54lFyFleJMz9zF46jk8ocpa2p0og2/3tPPPEtxHPOOK/O0fqu69aaUj9avT0hNCE4pLDxjz7pFu+Y9nbymsQ5ZrFj5bsxkBveoUyhv/g2i1D+H003582+k9LIqcYaovr6BVqxYKUpy6fDGBicr1znx9WnljFKwDoJTCps93poWU0T4idwRLmhkXIjLU3pXrXpPlML/5sJzvypKg5N/9m0xrZBV735AoVBIlOTRveVk7Ww9q5c8gDUQnFIUP5Fa3WVi3sROxgkR+/ZVx0ytzp93A6VlFYrS4DizC/U1QxEtLS1UU3NAlOQhS7deBAcm7uJDgEotCE4pytM5sIHkxA44O2K69mScSr5/fzR4OJzplDlxoSgNTdbEs8mR5hSl2NeXhfEhIRmBaSDXWHZGOiY/pBgEpxTF03D7y8PHU3kTPVXXePOTseVUXx+dZp+WVyqOhsHhIGfOSFEgaugnJY8VYnfBTVyXHl9Xr2/coC9l6CvwRNbpQWpBcEphvNq+twBlXGPCx4lKKJsm+Z5O9Q2N4ojIlTtCHA1PWl50W4cGw+vLwjghIlGTIfh6igQcvg57y1bC39fXOj2wLwSnFNdTgDIGpojI98W7a8XhzhBHcganrq7ohIWQP04tu0A0KWzAMD1dFsb3IRHdeuGHndh1Xny9mQNUuHWPRK6pCsEJPg08fIPoKTBF9BTIhsv4ZC5jcMrPzxdHWiBpOiiOhsffEG0JFBREX18WMcEpzgtwOeD0dn0ZAxRfh/1lIQd7Q3ACHQceY4LN3sR7xpTsY06jR5eLI60V5fNQsH14N8xA6wnqCkZ/T+PryyK25RTfMaf+rh++/pCSCBiCE3yqvy47nnrOU3rjyXjzk7HlNG3qFHEU5t29ShwNjfnnp06JfX0ZJHK2HrI+wEAhOMGAJWLRrjGFkYzBaezYMZSREX3ab9/+BgVbjonS4ASbD5Nnx1uipLUisjJpzJgKUZKHcbaeccJKvPB1hDVL0B8EJxgQ3uQtETcU45iT15Q2RwYOh4MWLTpHlDShIJ38xzOiMAhdXdrPPa19jk6wOP/8Rfrry6Yzplsv/sGJr6PKkuiMRYCeIDhBv/hmMpDuPB4nGOxsPmO3nqz7OS1denHMxAh/3V5qWfNr6goObCt2/j7+fuNEiKKiQlpy0YWiJBe/YTahcSv9gRrINYCMD9AfBCcYkP5uOJEZVrx/1GBmWZmfzGXcDTfd7abbv3pLTPeed/e71PjaQxRorhVneuZvPEANr95P3j3R/Hz8Ol+97RZyu13ijDzMu+CadyvuC7/vvKjWvFNtT/jrWenRZQQAZghO0K9w4NnV5wyqyG6k/L08XZgDVX83KGaeqtw5wLRKyTZmTCXdecdtlJ0dbUkETh6hhr/eT82rfkStG3+vByzfka36Zy43r/yRHsCCLcfFTxDl5OTQ1+66nSoq4juxJF58vs6YrTwG0q0Xvj52f7pYNnK99Pb+Y0YeDASCEwxI5AbU00JcPm++0URuQP21otLM22ZIvFX7xIkT6L577+kWWDprN5Fn2+t6113Tih/qn7nceXiT+I6wMZWV2s/fTePHjxNn5OPxmLdo77vlxO9vT4GGr5Ge0hLx9cPXC0B/EJxgUCLroSI3ncji3d54tSfxvpifzGWcsWdUWFhA99z9z7R8+WXkdrvF2b6lp6fTFcuX0d13f4MKCgrEWTmZ15r113Lq673na4UDFIs+3CDjAwwMghMMWqRVxIGpv5tNZUnf+ejMu+F2dMq3ENfM5XLRxUsupAfuv48+e901NHfuGVRWFrsVO6usrKDLl12qfd+9tGTJBeR0RrORy8r8cJBmen/M+pt1x9cHd/ehGw8Gy9HW7pF0s+j+zbjrSfIF4pibzJFGeVXR7bRheHg21uIZM0WpZ6H2Bqr7v3tEiegrt95Es2b1/TOy6tQC69Gjxyg7J1trYRXqEylUs3HjJ/Tsr54XJaLSz/w3pWUXiVLPOPgg1VD8tO1YqW9yGS/pbhdtfeIOUVIHWk6QMANZtBvuNoqu9ZFxrdNAZWRk6ONJI0tLlQxMzGMe8zONCfYEa5YgERCcICG41dRfmhoeh3hj63btKPqUKPuYk92Z//5vbt3WbVKDGb/PWLME8YbgBAkxkEW7PLGiS2s1hdKirQwZk7+mEmNw4veF35/IpIa+xDvnIgCCEyQET5bgcYjenrp5cDwyQB5Miz51o+VkLePDQdAZfl/Cs+56H1Pir/H7DRBPCE6QEByUeKC8p204ItOKI4IxLScEJysZ//7GhwYOPuYHDQ5K/D7y+9xf1x/AYCE4QUJxYOIbGH9EbmDmbqKgU+7dcFNJb8GJ37vI+xZ5TzkomR88AOIFwQmSgm9ivNaFb2jmtVFBJ8acZGGcLRkyBCfG71vkQQNBCRINwQmSqqexi1BatOXk7ZA3fVEqiGk5iTEnIwQlSBYEJ7Bc7IQItJys1Fu3HkCyITiB5YxP6BhzslbMbD0EJ7AQghNYDrP15NFftx5AsiA4geWChjEn85YNkFx+f3RKuHEWJUCyITiB5YwtJ054yQlUIfnMrVZ064GVEJzAciHTEzomRViD/+7GZNjGKf4AyYbgBJYzP6Fj3MkaaDmBTBCcwHIITnLoFpww5gQWQnACy5m7j9CtZw3zXlpBB1pOYB0EJ7Cc+QldtZZTe7uHtm3bQR9++BG99fYK/TOX+bxKOn2xDwXmsUCAZMI27UbYpt0SzmAHzdn5tCgR/dMXP0/z588VJXmtWbOO1qxdR3v27BNnups6dQot0H6XuXPPEGfktXr1Wnrht78TJaJPqm7DuJMFsE17GFpOYLmgM3YrcNlbTlu2bKMHHnyYfvPCS30GJrZ79x567vnf0kPffZS2b98hzsqpW7ceAhNYCMEJpBByuMQRJ3+VNzitWbuefvH0s9TU1CzODExDQyP978+f0X9eVsaHAuPuxABWQHACKRjHnTolnRDB3Xi/+c2L3bpcmvKnUG3ZubRzwmf0rjD+XFt2DjUVTBbfEcY/xz+/VtIA1WFY/BxA6iKwGIITSMH4pC5jy6m29jC9+NLvRSmsNaeStky5karHXELHS2ZTe3a53hXGn4+XzKHqyqW0dcoN2vdViJ8I49c5fDh2TysZeL3R1FHGbUwArIDgBFIwPql3Shicnn7mVxQMRiff7K9cQrvHX0W+9Hxxpmed6QXa911NNRUXiDPa7xoI0DO//BXJNhPJ2GLFeBNYDcEJpGDcdVW2ltObb72jjxlFcKuosWCaKA1MQ+F0OqG1riLq6uppxTsrRUkOxo0eMeYEVkNwAikYn9Rlmq3H40SrVr0nStq/LaOIDo9aKEqDc3jUWXpLKmLVux9QKBQSJevF7OWEMSewGIITSCE2OMkzIWLfvuqYxbQnimdRl8MpSoMT0n6Ofz6ipaWFamoOiJL1jA8F6NYDqyE4gRRChhRGMrWc9lXvF0dhbabJDYPVljNaHIVVm17fSsYJEQFkhwCLITiBFIxTyc2LQa3EY0MRPA7jzSgWpaHxZo7QXie6pquuvkEcWc/YYjWOAQJYAcEJpGDsRvJ45MlJ12iYCNGaXS6Ohq6LHNSWFX2deomCU2enoVsPY05gMQQnkIJ5jMPn94sja7nc0VaOOxCfFp0rGH0dl2to41fxZt59GLP1wGoITiAF85O6LONOubm54ogoq7Nea/cMb3US/3xWZ7S1lJ/f9zqpZOG/d8wuuOjWA4shOIEUzDdDWYJTZUV0AoOjK0SZnU2iNDRZHQ3660RUVg5vgkW8mNeWIX0RWA3BCaRg7kaSZTp5VdUp4ihsZMMmcTQ0paafrzol9vWt0mHOSI7ZemAxBCeQgqwbDpaXl8W0bkY0baO89sOiNDj57YdoRHN024zx48fRyJEjRMla5r83ZuuB1RCcQAqyduux5ZdfKo7Cxh9ZQWmhgCgNTFrIR+NqV4hS2OXLYl/XSuaWahATIsBiCE4gBfPN0NzNZKXp06tiWk/pvhaatv+PlOEb2J5O/H3T9v+J0gNt4ky41TRt2hRRsl63lhPGnMBiCE4ghaArdjdc2ZK/3nzTDZSVlSVKRNkddTR930tU2rhFnOlZaeNm/fv4+yP4dW684XpRkoP5743ZemA1BCeQAi9ONWZOMK+7sdrIkaV05x1foezsbHGGu+oCNPboezRr1y9p0sHXqKxuAxW07tc/T9bKs3c+o339/ZguwJycHLrzztuotFSOsaYIY8uJW7H8fgBYCcEJpGF8WpcphVEEd8Xdd+89VGGYXs7cAQ8VakGp4sRHelDizxykXMForjo2prJS+/m7afy4seKMPIzdqOjSAxkgOIE0jNPJZZoQYVRYWED33P3PtHz5ZeR2D2zSQHp6Ol2xfBndffc3qKAgumWGTGJbTghOYD0EJ5CGcTq5bN16Ri6Xiy5eciE9cP999NnrrqG5c8+gsrJR4qtRPImCZ+Q9cP+9tGTJBeR0ypGqqCcdhr83ghPIwNHW7pFtt+gBm3HXk+QLRLfOHjZHGuVVLRYFSLapNX/6dA3RzJmn0m1f+bJ+rAoOqEePHqPsnGythVVI6QNsWcngZ//7C9q+fad+3JozhnaPv1I/huRr27FS3+QyXtLdLtr6xB2ipA60nEAaso859ScjIyO8sLa0VKnAxIx/b2QkBxkgOIE0jFkJZB1zsiuMOYFsEJxAGsYndgSn5EJwAtkgOIE0jMFJxW49lcUEJ3TrgQQQnEAaxid2mXbDTQXG2ZFoOYEMEJxAGsabIs9WCgQGl1wVhoYDk3F2GJK+ggwQnEAasu6Ga3eckdw4czmEvZxAAghOIA3zHkKybDhod+aHAIw5gQwQnEAa5rEOtJySAxnJQUYITiANdOtZo1vLCcEJJIDgBNJAy8ka6NYDGSE4gTTMwQlrnZLDHJywZQbIAMEJpIGWkzXME0/QrQcyQHACaXSlOWN2YMVsveQwPgTwnlrYBRdkgOAEUgm6omts0HJKjpiM5Gg1gSQQnEAqxpsjglNyGP/OyA4BskBwAqkgOCVfTHDCZAiQBIITSMWYJcK8OFRW7e0e2rZtB3344Uf01tsr9M9c5vMqMCZ9DaUhdRHIAdu0G2GbdstNPvgaFbTuDx9PnkT//I079WMZrVmzjtasXUd79uwTZ7qbOnUKLZg/l+bOPUOckc/jP3qCqqvDf/Pm/Em0b8yl+jFYA9u0h6HlBFIxdivJ2q338ceb6IEHH6bfvPBSn4GJ7d69h557/rf00HcfpS1btomzcokdc0K3HsgBwQmkEnREB+SN3U0yCIVC9Mf/e4V++exz1NTULM4OTENDIz31i1/SK6+8Gten4niIma2HMSeQBIITSCVo2K5BtgwRf/zjn+ndd98Xpaim/ClUW3Yu7ZzwGfqk6jb9c23ZOdRUMFl8R9Q7K1bRH/7wJ1GSAzYaBBkhOIFUgs5oy0mmbr316zfS+x98KEphrTmVtGXKjVQ95hI6XjKb2rPL9Zs7fz5eMoeqK5fS1ik3aN9XIX4ijF+HX08WXq9XHCE4gTwQnEAqQcNsMVl2wm1paaHfvviyKIXVVFxEu8dfRb70fHGmZ53pBdr3XU0HRl8gzoS99Ls/UGtrqyhZx+fzYRdckBKCE0glYNqFtbW1TRxZ5y9/fZ38fr8okd5Kaig8RZQGpr5out6aiuCutFdfe0OUrNPZ6RNHYdgFF2SB4ARSCTqzxVGY1a0LHvdau3a9KBF1ZBTR4VFnidLgHBm1UG9JRaxevdbySR/cKjTyu7LEEYC1EJxAKuabY1ubtS2nbdu2x3R7nSieRV0OpygNTkj7Of75CJ79t337TlGyhjn4+00PBwBWQXACqfhdsTfHlhZrW06HDtWKo7A20+SGwWrLGS2Owsyvn2zmbtMAWk4gCQQnkErAmUnkiG7Z0Gpxy6m5+aQ44tQ+bvJmFIvS0HgzR2iv4xIl7fVPRl/fCjHBX/u7639/AAkgOIFctBuk3xl9eq+vqxdH1mgxdHu1ZpeLo6HjvZLasqKv09w8uMW88Xairk4ciVar4cEAwEoITiCdjvRCcURUvb9GHFnD7Y62ctyB+Ky7cgWjr+N2Wzt1u6bmgDjiv3uROAKwHoITSKc9u0wcER0+fISCwTgm9x2kvNw8cUSU1VmvtXuGl3qIfz6rs0GUiPLz+14nlUg8Pf7o0WOiRNRm+LsDWA3BCaTDGRYieKaclZMGKiqjExgcXSHK7GwSpaHJ6mjQXyeisnJ4EyyGo6bmYMxMROPfHcBqCE4gnbas2Cf4AwcOiqPkm14Vu9h2ZMMmcTQ0paafrzplcIt54+nAwdi/a1t27ExCACshOIF0eDpzp2Hc6cDBQ+Io+crKRsW0bkY0baO89sOiNDj57YdoRPMOUSIaP34cjRw5QpSS74DWcoroyChG6iKQCoITSOlk3jhxRLRjxy59wapVll8eu/ne+CMrKC00uLx/aSEfjatdIUphly+zblM/HsfbtXuPKGl/79yx4ghADghOIKXGginiiPQsEVZmUpg+vSqm9ZTua6Fp+/9IGb6BTQPn75u2/0+UHoiu2eJW07Rp0d8x2bZs3RaTjbzJ8PcGkAGCE0ipPauMfO7oTLm166L57axw8003UFZWdP1VdkcdTd/3EpU2bhFnelbauFn/Pv7+CH6dG2+4XpSssWZN9O/pc+dqf+9RogQgBwQnkBZv4hfBW6N7PNEn/WQbObKU7rj9VsrJiaZX4q69sUffozk7nqKq6pdpYu2bVHH8I/0zl+fs+Ln29fdjugCzs7Ppzjtvo9JS68aa2tvbadu26JbxjYXTxBGAPBCcQFqNpp1kP/lkeDPlhmvChPF077/dQxUVsbPanCEfZXtPUNHJPVRWv0H/zGVnKLrNBhtTWUnfue8eGj/O2vGdDRs/IeNO8caHAABZIDiBtDxZI2O69la9+37MuhwrFBYW0D13/zMtX37ZgLM7pKen0xXLl9E3v/l1KiiIbplhBf77rfRQfLgAAB4xSURBVFr1niiFN0P0ZFrXigPoDYITSO2EYYO+Y8eOa62nzaJkHZfLRRcvuZAeuP8+fcbd6NE9L17lFhZ//YH776UlSy7Qf85q69ZvpPr6aIYK3jgRQEaOtnaPtY+iwzDjrifJF4hjahtHGuVVLRYFkAGP18zc8ytyibx2vO7oO/d9ixxIUDpo3Gr694e/92lwCrgyacuUm2KypIP12nasjGsPQbrbRVufuEOU1IGWE0iNb5zHi08TpXDracOGj0UJBoN39I1tNZ2OwATSQnAC6Z0omUmBtAxRIvrbG2+JIxiM115/UxzxdviZdKJ4higByAfBCaQXSkunEyOiYyMnTtTRW2/HZluAvr355jvU1BRNWstjTfx3BZAVghMo4UTxLO1pP3oz/etfX9eClLUbEaqCg/mrr/1NlLRWkxaU6kpmiRKAnBCcQAncDXWo7BxRCnvxpZfFEfTl+ed/K47CDpYviukmBZARghMoo6FwOrXmRHPc7d27j1avXitK0JO/f/gR1Ri2HOG/X2Ohddt0AAwUghMo5UDFhRRyOEWJ6P/+9Bc9HQ9019raRn/+819EKTzzsWb0haIEIDcEJ1BKpzufjo6cJ0qkZ9Z++plfUyAwuC0s7I7/Hj9/6hnq7PSJM0RHSueTL926beEBBgPBCZTD63O8GcWiFO7ee/ZXz1ue2kgW/Hd45pfPxewg7Mksjcm2ASA7BCdQTpfDQfvGXqZPkojYvHkr/fmVV0Uptf3+D3+irVujWcf578R/L/67AagCwQmUxNu47xm7TLvhRi/hlSvfpQ8//EiUUtOqVe/TBx98KEocyJ20Z9zlMQl0AVSA4ATKas8up5qKi0Qp7Hcv/5HeeWelKKWWt99eSX8yTIBg+ysv1jduBFANghMorbFgKh0xTJDg8ZZX/vIaPf/8ixQKhcRZewsGg/rv+5e/vhYz7nZ45AJqyp8kSgBqQXAC5R0tnad/GPG27k/89H/J6w1nM7cr/v1+8sTPum1jf2TkfDpWeqYoAagHwQlsgVtP+yuWxAz679mzj/7je49pn/eKM/ayc+cu/ffbt2+/OBOeLMJ/h6Olc8UZADUhOIFtNBZOo71jr6SQI7oNRHPzSfrxT36md3t5PB5xVm38e3BKop8++ZT++0Xw782/P/8dAFSH4AS20pJbSbsmXksBZ5Y4E8bdXg8/8gP6+ONN4oyaNm78RP891q7bIM6E8e/Lvzf//gB2gJ1wjbATrm24Ax4ad3glFbTViDNR48eNpQsvXEyzZ89UYkddnuSwadMWWrFiVUyevIiTuePpQMUF5HdlizOgMuyEG4bgZITgZDuFLfto7NH39GBlNmJECS1efB4tXDCP3G63OCsPv9+vJ7Zd9e77VFfXfXsQDkaHys/DjDybQXAKQ3AyQnCyJWfQR5XH/04jmraLM7EyMtKpquoUmjVzBs2YcSplZUUzTyQbz77bsnUbbdmylXbs2EWdnZ3iK7EaCqvoUNm5MXtcgT0gOIUhOBkhONlaVmcjldVvoOKTu7mvTJyN5XSm0aSJE2nW7Jk0R/soKCgQX0mcpqZm2rR5C23WPqqr91Mw2PP6LJ6J15w/WZ+JZ8wtCPaC4BSG4GSE4JQS0v3tNKp+I41o3k5pIb8427P8/HwqLx9FZWVl2scoKtc+jx5dprWuYidcDATPsjty9BgdO3acjorP/NHS0iK+o2c8C6+hqIqOjTiTfO4ccRbsCsEpDMHJCMEppXB3X2njZipr+Fg77rn7rDc8RpWbm0O5ObmUnZOlHWufs7O1jywtCHn1PabCHx79c1tbuz6GNBi8Wy1vp368ZHZMkluwNwSnMAQnIwSnlOToClGu5yjltx3UPg5Qdkf3yQfJ4skcQS25Y/WPtuzRMYltITUgOIUhOBkhOIHGFfBSYet+LUidoMzOJsr0NZPbH//ddn2uXOrMKKSO9ELyZI2k5rwJFHANvrsQ7AXBKQzByQjBCXqRFgpoQaqRMjuaKMN/kpzBAKV1+bVWV1D/mqMrQM5QUP/c5XBRMM2pf+at0XnbipDDTUGnmzrTC/Rg1JFRrH8NwAzBKQzByQjBCQAshuAUhg5tAACQDoITAABIB8EJAACkg+AEAADSQXACAADpIDgBAIB0EJwAAEA6CE4AACAdBCcAAJAOghMAAEgHwQkAAKSD4AQAANJBcAIAAOkgOAEAgHQQnAAAQDoITgAAIB0EJwAAkA6CEwAASAfBCQAApIPgBAAA0kFwAgAA6SA4AQCAdBCcAABAOghOAAAgHQSnGF0U8ndQwNNMgfamTz/4HABAvHR1BSnoORlznwl6W8RXHeJzfDi6usSRWhxt7R41/+WaGXc9Sb5AUJQSK82VTmnZheTMLiJXbjGlpWeLrwAA9K0rFKRAWyOFPI16EIoGIpM0F5H2vfygHC8ZLidt+emdoqQOtVtO8X3A6FMo4KNAywnqPLaL2vd+RJ796ylw8qj4KgBAd6HOduo4soPadr1PHbWbyddY23tgYqGA9n/xbS90OZJ4o4wjdOsNUdB7kryHt+uBKtBSJ84CAGgxxu+ljsPbqH3favI3H+Gmk/gKDBSC0zCFfB7yak9EngMb9QsSAFJb5/G91L7nH+Q/eUycgaFQOzhJNFoWbG8iz7415EcrCiAlhXxeaq9eS76GA+KMHFSdEIGWUxzxoGfH4c3kbzoszgBAKuCxJU/Negp1tIoz8sCYE4RpDykdR3eSDwEKICUE9cC0gboCPnFGLmg5QYxOLUAFTh4XJQCwI+7K6ziwkbqCfnEG4gXBKYG8R7brEyYAwIa6QvpkKF5mIjN061lB9r+5fvFuEQUAsJPOE9UU6mgTJYg3tYOTAl2pfPHKNnsHAIaHJz74GlGvEwndekngO7EffdIANtJxdJcSD8cMEyKgV5zk0d94SJQAQGWcGJozxKgCY07QJ0wtB7AHf8NBcaQGtJygT7wGItCG7BEAKusKavW4tV6U1ICWE/QrcPKEOAIAFfHOBNrtPlxQBFpO0K9Ae6M4AgAV8Z5MqkHLCfrFXXtdyFwOoKygp1kcqQMtJxiQUCcyRgCoiMebVFwSgpaTFRT8mwd9aDkBqKjL1yGOIBnUDk4Ktla7Ap3iCABU0oXdbJMK3XpJhuAEoCo1u8cw5gQDpOYFDpDyFB27wZgTDIgjzSWOAEAlDqeadRctJxgQR3qWOAIAlaS5MsWRWlRtOTna2j1qhlXNjK89ST5/UJTU4C4YpQWoHFECAJVwXr2uUECU1JDudtHWJ+4QJXWoHZzu0oJTQK3gBACQTKoGJ3TrAQCAdBCcAABAOghOAAAgHQQnAACQDoITAABIB8EJAACkg+AEAADSQXACAADpIDgBAIB0EJwAAEA6CE4AACAdBCcAAJAOghMAAEgHwQkAAKSD4AQAANJBcAIAAOkgOAEAgHQQnAAAQDoITgAAIB1HW7unSxwrZ8n9z1HNiZOiNHxprgzKrDhVlGCwOo/vJeoKiRKkKoc7ndJLxosSDFbH4W0UCnSK0vCNH1lAbz98oyipQ+ngtOy7L9CeI42iNHxp6dmUM3mhKMFgte5cRRRCcEp1aRk5lDNpgSjBYLXv/YhCPo8oDd/UihJ69YHrRUkd6NYDAADpIDgBAIB0EJwAAEA6CE4AACAdBCcAAJAOghMAAEgHwQkAAKSD4AQAANJBcAIAAOkgOAEAgHQQnAAAQDoITgAAIB0EJwAAkA6CEwAASAfBCQAApKN0cEpzOMQRyMDRlXrvR25mOpUX5dKU8mI6c8pomje1gqaPKaUxpQVUnJslvgvAOqrWSqU3G1z+77+lXYcbRGn4sNng8LTteJe6uoKiZC/52Rk0Xws8U0aX0PSxpTSxrIgmawFpIFq9PtpVW097jjTQ7iON+udN+49Tpz8gvsNesNng8MR7s8FpFSX0VwU3G0RwMkBwGh67BSfeQfT8GePpwtkT6LRJ5eJs/HCA2rj3CG3Yd4Te23rQNsEKwWl4EJzCsE27AYLT8Nhhm/ZRhTl01YIquu7sKho7slCcTTxPp5/e+ngf/fmjnbR6Vy2FupStlghOw4Rt2sMw5iSpNO1Xc2n/l+5Ko0ztI8MtPpwOcmsfTu1rsv32Ko85cevoV/96JX3wgy/T3VcvTGpgYtkZbi0onqL9G66i975/M9285DTt/XaJr8JQfVqPtDqTYaxH2jGfk7EexZuqv5/SwUnlp0szrkQciHLS06ggy0WF+oeT8jPSKFf7yNPO6x+ZTirQPoq0r/HXuZzldugV0GpdDvXejwXTxtAfv/M5+tmdl9NZp4wVZ63Frbf7rj2H3v3eTXTDBbO068IpvgL94VrAQSc7Xas7Wt34tB5px3nGeqQd8zm9HmW7wvVIO+/SftZuVL1LouVkMQ4q4Yrk0gNRlvZUp/1PD1b94ac+bknlaD9fIAIVPxVaFadUajmNH1VEz3/zanrum1fRzHEjxVm5lORl0f2fO49WPPolWjZ3qjgLPeGYwsGFAw5/ZGsPbBykBlSPtO/R65FWdwr557WAlunSWlU26ZlR9bdAy8kiXCG4lcQBhSuS1mgaFr4AuYKFW1cuPUgl+6JUoeXEDzQ3XTSHXnvgCzR/WqU4KzduST1+6yV6IOUp6hCVxg932rXOAYmDC3d5D5dWhSg3I9zSyrTwYS9e0HKygEPBJxv+F/NTWbg7Lk0PUvGmvawepLg7kI8hrKwol35z9zX0nevOJbeCXWXcBbnikRvpa5fPE2dSWwbXI+06z9Y+uBch3riLL1d77RwtUHErDJJL6VtXl2ItJ64/fKHzU1kyxoh40Jf/WxwMU92lZ06hvz30RX2hrOq+sXw+vfxv1+mLf1ORXo+0oJGnXdvxaCn1R+/y0/5bPLYLyYPn6iThSmRFoOAnSq5YPK6VilWLZ8E9euOF9D9fWUo5menirPrmTCyjVx/8Ii2ZM1GcSQ38UMeBiXsdkoljII/tcl3CTTM5lP47q9Ktx4GJg4NVXQP8X+VxrWytYqVSgBo3qpD+cv8X6Lqzp4sz9pKXlU4/vWMZ/cuVqbGmKDx5KDwN3CpZ2sNldob641AqUDo4qdCtx/WIB2xlGPvRK5ZWuVMBpxZ66VvX0tgUmEBw52Vz6ce3XWrrKefcA8Cz8WQY++F1h1ynEaASS+k7lexTyfmPm6W1mJLRLz5Q3B2SqL5zWaaSzxo/il769rX6VOxUsfSMyfTcv16tJ6K1G76quOXPYz+y4Fl8mW41Hgbk+asNjtLBSfZ2Ez/pyVShIrhS8YLfeJNhKjnnwHvum1friVpTzemTy+kXX18uSvah1yMLu/J6w+PH3IqSHaaSW0Dmbj2uTPx0JSOOl3ZaZBgxYVQRPf31K/RJEKnqjMmj6Ynbl9mmy4m78WQNAPw35jqeiGnsoHhwkhVfq7wGQ+ZLlis9/xvtYkR+tp7xgScJpLqLT5tI3/nsIlFSF1+dVmY8GQiOm1iqkRhKBydZx5wiSSVlx8Epnv9Mq8acuKX0q3+5ikYW5ogzcOMFs+nas9SepZiuXZ8ydoubcX2XaVzZTP6/YM+UDk4ypi/igKlChWJ6br44DupaNeb0vRsv1LcFgFj3f2ERjR+V3Ozq8cI1KJ7XZiLpPSUS13mMOYHOrT3tqZTZmFtPKifQ/YzWOuDsD9BdVrpbXwel4tYbbu59UOjuxP9ejD3Fl9LBScZFuKotI+I4qsgDajc8AeKh688TJejJlPJi+vY1Z4uSOlToFjfif65q/2bZqR2cxGdZ8IOT26nenzRelSrZY04/+spSJVsFycZ7Qp06tlSU5MfPnJJOdO2TrD0mcv6r+qd0cJJtzCldC0wqtuw5LUw8/tnJHHP64vmz6JQxI0QJ+vPdLy4WR/Jza9ejil1k+r9bwt4cjDkBORVt1vONQKUGX1Fupr6Vupp/bWtw1oxrFlaJktxUrUccTxXsOJGW0n9K2QbyVe5ydsahViWrW+/b155jyzQ9iXbPNWcp0Q2ajO1kEkXGwKrqX1Pp4CRbt57Ks3Xi0R2RjG69iWVFdM0CNVoAsuGFytefP1OU5KVy+lp068UPGqFxwtekwrFJq1RqXMLfvPos/W8NQ3P70jMpM13u1pND4Yqk8j1ANghOccLXpNLXpQJ3/FMqR9CS2am1uV688XjdF86Tu/Wk8g0esSl+MOYEunj8JRM95vTPVy5AqykOblw8W+q/o8pvsYxrL1X9e2LMKW7UvmvG4y+ZyDGn4twsWjxjvCjBcFSU5NFpE8tFST6qjpEwGXdKUPXviW69OFFhV94+Sf7vv+asKqXHImSzfN5UcSSfkMJVSfG7gFQQnOKEL8qQwrUqKMkutr25csEp6M+Po+Xzpkk7u1TleqRyYJUNxpziKKDwhRkMhcTR0CVqzGnK6GKahqzjccU7Bc+dUilKcgkq3Ash479d1Yc6jDnFUVDh4BSPJ75EjTktPR1ZxxNhYVWFOJKLyvUoOPxnvLhT9c+Jbr04Cipaq4JaZApI/G8/99Sx4gjiaeG0MeJILqrWI37AU/XfLiMEpzjya1enin3OAe0fLes/OzcrnWZPGCVKEE+ztL9rtoRpoPh65Acm1XD9V7lLUjZKByfZ1hRwhfLL2K7vh0/ip71FM8ZJuXbEDnjM9sxJZaIkD45LfvWqkdS9DypSOjjJOH3bp1ilCnfpiYKE5oyX7+ZpJxPLi8WRXPyK3ej5nyvzQ56K0K0XZ/5AiLT/KaNTC0wyd0VMKCsSR5AIE0bK+ff1aZVIpZs913sVuyJlhuAUZ3x9dsrcFDHgysQ3AZlNGFUojiARJpQViCO58G2+U5HgFK7zCvZDSg7BKQE6Azz2JH/F4n8nDz7LKt3lpLGlct487WK8pC0n5vOHlAhQ/G9UcYxMdpgQkQDhJyl5Z8Ax7jLhf6PMKkfkiyNIlLKiXHEkH746O7W7fkjiZaQ8CaIDkSkhMCEiQTq0Zn6HpDd/Dp78b5N92muW5PsO2QVvoyErfojq8MnZTc61x4uxpoRBt14Cdfjk7Jbw+oPSjzUx7taDxCvMyRJHcuIHPRnHdLx++XsfVIbglEDcMvFqT30ytfq92j+GK5UK3AhOSVGUJ2/LiXHDxKNdszLN3uOeB68vIEqQCEoHJxU2G+QHPk9nQIoA5dUqlCeBXSTxTvyKllNyFGRniCN5cdeZxyfH9HJuyXm1f0uXIilV1fhXdqd0cJIt8WtvODBxULByga5H+0d4OoMJrVDxTvyq8tYJKmnr8IsjufHM0nbuKrewi48nP3CQVClNkaq1CN16ScJTy9u14JDsSRL8xNmmVSauUKpdpKqsF1NdS3uHOJJfuAXVpfcCJPN65gZbuxaYODjimSk50K2XRHqg0AIUfyRjfRE/YfJ/K1lTXePdrdfiUeemqbJ2RVpOEdxq4Qc9vR4loZuPuxL5vxfuylMPuvUsoEq3nhm3nto6Q/rTXyLqFseiSBBMUlzSxbtbr7a+VRxBIjUr1HIy4plyrdwr4E9MFnMOfNxS4nok02SMwVL1X45uPYvo/efaRd/aEdQrVzxaUlyBuLK2dgT0AKjKgG1vvD4/tXp9ogSJwA94bR3q/o3D3XxBatEe9rjrOh4tKa5H3BXeyg+Q2tNdEjo5oAfo1rMYByW9cmlBSq8MWlDh8amBVAiumLyOivvCm7Wf59fQV9RbVJkSsU370aY2cQSJUN/iEUdq04OUdu23aA98XA84qAy4HmnfwwGJg9tJUY+4K1ylSQ99QbeeBVTt1usJVyIeI+LWFFeQZm9A+wg/EXIXoP4kJ57muPI0aV/jr3PLi/vCZdhLJhHbtB9paBFHkAjbD9aJI3vgeqSPEYlA82k90o57rUeegH7MwU21rToGQtXfSOngZOdN6LiScauKMznoqZC0isOtIg5gXPn4SdF+1ai72noEp0TadvCEOLKnT+uRVmdSuR6pSOngJHNuPYiPj6uPiSNIhG0H7NVyAvvAhAiQ2prdteIIEsHuLSdQF7r1QGonmtvpcAOmlCdCQ6sXE05AWujWA+mt33tYHEE8vf1JtTgCkA9aTiC9tbuOiCOIp3c+3iuOAOSDlhNI703tJuoPWpg114baO3304Y5DogQgH0yIAOm1eDpp5ab9ogTxsEL7e/I0agBZKR2c7JAhwk4SkSEi4pXVO7EeJY7e3rhPHIHdqXqXVDo42SlDhB0kIkNExKot+6mlvVOUYDh49uNK7e8JqUHVuyRaThA3iWw5cRfUyx9uEyUYjl+8tYH8AYzhpQq0nCyAlpNcEtlyYk+/uYG8nQFRgqFoauug3/99uyhBKkDLCSDB+Mb6wvubRQmG4hdagPdjh2FQgNLBCeucUs/Tb2xE62mIGtu89Nv3togSgNzUDk7iM8ghkWNOEXyD/c17aD0NxX//6R/k6VRrS3YYPow5WQBjTnJJ9JhTxI//sgZbuA/SrsMN9DLGmlISxpwAkqTTH6B7nn0TDyeD8P+eWyGOANSA4ARK2rj3KD37zieiBH35/YfbaHPNcVECUIPSwQnrnOSSjDEnox/84e+0/3iTKEFPjja20WN/+FCUIBVhzMkC6NaRS7LGnIzuePI18nT4RAmMOnwBuvXHr9BJDzJrpDKMOQFYoPpYE/3L02+KEkRwxv5vPv0G7TnaKM4AqAXBCZT37pYa+vkb60UJ2I9eWU3vIJM7KAxjThA3yR5zMvrhnz6iv28/KEqp7XcfbKOf/Q3BGsIw5mQBjDnJxYoxJ6O7fvY6rd6V2hvocWB64IWVogSAMScAy3l9fvrKT15N2QDFgen+36wkPLOBHSA4ga3wAl0OUO9vS60uvkhgArALR1u7R9nnrOX//ls9LUu8OJxuchePESUYLF9dtTiSww9uuoiuXlglSvb1H7//gH4l0YJkhzNdq0eVogSD5W88RF3B+OVAnFZRQn994HpRUofSwWnZd1+gPUcwVRZ6d40WnB68/nzKSneJM/bBSXB5ndfH+46KMwDdTdWC06sKBid064Gt/d9HO+iaR39HNcebxRl72H6ojpZ/97cITGBbmEoOtrfvWCNd9ehL9ObHcnU7DtWfV++kqx55iepaPOIMQO8wldwCmJQEA8X7GH39f1+j51ZuEmfU9JO/rqVvP/u2KAH0D1PJLYB2EwzWI797n372+jpRUsujL79PP3l1jSgBDAxaThbAIlwYisdfWU0vvKvWbrr8b/71CrVbfWANtJws4HIq/c8HC333xffo4+pjoiS397YeoP9VtLUH1nOlqXmfVPruXpybLY4ABu87v1Zjd1g964M4BhisEflZ4kgtSgen0gIEJxg6nsX39idyz+DjXWyPNbWJEsDgjSzMFUdqUTo4TSovEkcAQ/PSe1vEkZx+9Ta2oofhmVJeLI7UonRwuvi0SeIIYGg+2H6QWr1y7qTLC22xWSAM10WK3ieVDk4TRhXRpDI1nwpAHmt3HxZHclm/54g4AhiaGeNG0pgR+aKkFqWDE/vK0tOx3gmGZfuhE+JILrsP14sjgKH5ysWniyP1KB+crpg3jcaOLBQlgME7eKJFHMmlqa1DHAEM3sSyIrr0zCmipB7lgxOvdbr/8+eh9QRD1tAqZ446XyAojgAG79EbLhBHalI+OLFFp46lf7v2HFECGBx/MCSO5BIMYXUTDM0Pb7mYzpg8WpTUZIvgxL685DS6femZogQwcE5Js9s709AfAIP37WvPpuXzpomSumwTnNg3r15Ij918ESo1DMqk0XKulxs/CmOpMHAZbhf95PbL6NYl6k6CMLJVcGJXLaiiVx+8ni6cPUGcAegdP8j80/mzREkunzt3Bh60oF/c8OeW0t+++0W6xEZrP5Xepr0/2w7W0Rsb9tLKzdXYzh26yUp308M3LNZnfMrqz6t30AMvvEsdvoA4AxA2c9xIWjRjPC2bO4UmK5oFoi+2Dk5mtQ0t1NDipQ6/X5yBVJWdkU5TRxfrXSEq2LT/OK5boEy3W88pOro4T5yxr5QKTgAAoAbbjTkBAID6EJwAAEA6CE4AACAdBCcAAJAOghMAAEgHwQkAAKSD4AQAANJBcAIAAOkgOAEAgHQQnAAAQDoITgAAIB0EJwAAkA6CEwAASAfBCQAApIPgBAAA0kFwAgAA6SA4AQCAdBCcAABAOghOAAAgHQQnAACQDoITAABIB8EJAACkg+AEAADSQXACAADpIDgBAIB0EJwAAEA6CE4AACAdBCcAAJAOghMAAEgHwQkAAKSD4AQAANJBcAIAAOkgOAEAgHQQnAAAQDoITgAAIB0EJwAAkA6CEwAASAfBCQAApIPgBAAA0kFwAgAA6SA4AQCAdBCcAABAOghOAAAgGaL/H27yXfpCgly2AAAAAElFTkSuQmCC;points=[[0.32,0.06,0,0,0],[0.5,0.06,0,0,0],[0.65,0.06,0,0,0]];" vertex="1" parent="1">
                    <mxGeometry x="70" y="150" width="133" height="415.35" as="geometry"/>
                </mxCell>
            </root>
        </mxGraphModel>
    </diagram>
</mxfile>